{"glyphs":{"0":{"ha":625,"x_min":47,"x_max":578,"o":"m 308 -14 q 169 44 228 -14 q 79 199 111 101 q 47 408 47 297 q 85 644 47 546 q 185 795 124 743 q 314 847 246 847 q 414 820 371 847 q 483 757 457 793 q 578 421 578 632 q 551 215 578 299 q 483 81 525 132 q 395 8 442 31 q 308 -14 349 -14 m 314 799 q 266 783 292 799 q 217 724 240 767 q 181 601 194 681 q 167 393 167 521 q 171 287 167 347 q 190 169 175 226 q 233 73 204 111 q 311 35 263 35 q 347 42 324 35 q 394 77 369 50 q 433 161 418 104 q 453 283 449 214 q 458 447 458 351 q 434 668 458 588 q 378 775 410 749 q 314 799 351 799 z "},"1":{"ha":581,"x_min":89,"x_max":492,"o":"m 364 169 q 374 85 364 113 q 411 51 385 58 q 486 43 438 43 q 492 19 492 35 q 486 0 492 8 l 122 0 q 117 19 117 8 q 122 43 117 35 q 201 51 171 43 q 244 85 231 58 q 258 169 258 113 l 258 622 q 253 681 258 658 q 231 703 247 703 q 183 695 210 703 q 108 668 157 688 q 96 685 100 675 q 89 706 92 694 q 242 779 181 749 q 361 844 303 810 q 369 838 369 844 q 366 769 368 824 q 364 651 364 714 l 364 169 z "},"2":{"ha":625,"x_min":63,"x_max":563,"o":"m 75 650 q 106 738 75 692 q 192 815 136 783 q 325 847 249 847 q 435 826 382 847 q 524 758 489 804 q 560 636 560 711 q 520 503 560 557 q 421 393 481 450 l 281 258 q 262 239 278 256 q 226 197 246 222 q 192 143 207 171 q 178 90 178 115 l 425 90 q 483 120 463 90 q 522 224 504 150 q 563 217 549 229 q 558 159 563 196 q 546 80 553 122 q 529 0 539 38 l 63 0 q 74 80 63 42 q 119 167 85 118 q 221 285 153 215 l 324 386 q 411 506 385 449 q 438 631 438 564 q 418 734 438 697 q 370 785 399 771 q 317 799 342 799 q 210 769 240 799 q 179 714 179 740 q 184 697 179 706 q 190 681 189 688 q 194 667 193 674 q 196 651 196 660 q 172 614 196 629 q 131 599 149 599 q 92 613 108 599 q 75 650 75 628 z "},"3":{"ha":625,"x_min":61,"x_max":574,"o":"m 299 799 q 249 791 281 799 q 192 760 218 783 q 167 693 167 738 q 163 663 167 681 q 149 633 160 646 q 113 621 138 621 q 76 638 88 621 q 65 668 65 654 q 78 715 65 685 q 120 775 90 744 q 201 826 150 806 q 328 847 251 847 q 419 832 382 847 q 479 793 457 817 q 513 741 504 767 q 522 683 522 715 q 492 583 522 628 q 376 499 463 539 l 378 496 q 465 466 419 489 q 542 398 510 443 q 574 276 574 353 q 530 119 574 185 q 415 20 486 54 q 261 -14 344 -14 q 173 -2 219 -14 q 94 31 126 10 q 61 79 61 51 q 79 112 61 96 q 119 128 97 128 q 155 117 140 128 q 179 92 169 107 q 209 54 192 74 q 279 35 226 35 q 326 44 297 35 q 383 76 354 53 q 432 144 413 100 q 451 257 451 188 q 422 374 451 336 q 351 424 393 413 q 269 436 310 436 q 238 436 256 436 q 203 433 221 436 l 196 478 q 314 521 265 488 q 388 597 363 554 q 414 674 414 639 q 378 769 414 740 q 299 799 343 799 z "},"4":{"ha":625,"x_min":22,"x_max":603,"o":"m 581 304 q 603 282 603 304 q 590 254 603 269 q 561 239 576 239 l 467 239 l 467 111 q 490 53 467 63 q 564 43 513 43 q 569 19 569 35 q 564 0 569 8 l 247 0 q 242 19 242 8 q 247 43 242 35 q 327 53 293 43 q 361 111 361 64 l 361 239 l 78 239 q 37 260 47 239 q 22 297 26 282 q 123 449 71 372 q 226 599 175 526 q 322 731 276 671 q 400 832 367 792 q 409 842 404 838 q 422 847 414 847 l 467 847 l 469 844 q 467 799 468 836 q 467 710 467 763 l 467 304 l 581 304 m 361 704 q 219 499 289 607 q 94 304 149 390 l 361 304 l 361 704 z "},"5":{"ha":625,"x_min":67,"x_max":558,"o":"m 435 263 q 388 425 435 376 q 274 474 342 474 q 194 467 236 474 q 97 440 153 461 l 144 840 q 218 835 181 838 q 294 833 256 833 q 406 838 350 833 q 522 849 463 843 l 532 843 l 510 749 q 364 740 425 740 q 277 744 314 740 q 201 753 240 749 l 174 521 q 229 535 193 528 q 310 543 265 543 q 443 507 388 543 q 528 413 499 471 q 558 288 558 356 q 521 132 558 200 q 417 25 483 64 q 264 -14 350 -14 q 178 0 225 -14 q 99 38 132 14 q 67 89 67 61 q 83 125 67 110 q 119 140 100 140 q 159 127 142 140 q 190 96 176 114 q 224 54 206 75 q 282 33 243 33 q 358 63 324 33 q 414 145 393 93 q 435 263 435 197 z "},"6":{"ha":625,"x_min":50,"x_max":575,"o":"m 189 476 q 258 499 221 492 q 322 507 296 507 q 472 475 417 507 q 551 392 528 443 q 575 281 575 340 q 560 185 575 236 q 515 88 546 133 q 435 15 483 43 q 317 -14 386 -14 q 231 -1 278 -14 q 144 49 185 13 q 76 151 103 85 q 50 322 50 217 q 83 494 50 404 q 181 658 117 583 q 309 772 239 726 q 483 849 379 818 q 500 813 500 839 q 347 723 408 778 q 247 604 285 668 q 189 476 208 540 m 178 426 q 169 369 172 396 q 167 318 167 342 q 190 138 167 200 q 251 55 213 76 q 333 33 289 33 q 421 88 383 33 q 458 256 458 142 q 451 316 458 282 q 426 383 444 350 q 376 437 408 415 q 292 458 343 458 q 243 454 275 458 q 178 426 211 450 z "},"7":{"ha":625,"x_min":53,"x_max":572,"o":"m 219 743 q 175 736 197 743 q 133 703 153 729 q 97 622 113 678 q 92 622 96 622 q 86 621 89 621 q 69 623 78 621 q 53 626 61 625 q 71 740 61 681 q 81 849 81 799 q 86 853 81 853 q 105 845 99 850 q 122 837 111 840 q 156 833 132 833 l 442 833 q 507 838 482 833 q 550 849 532 843 l 572 832 q 440 497 494 643 q 342 227 385 350 q 261 -14 300 104 l 167 -14 l 156 -8 q 306 346 226 150 q 467 743 386 542 l 219 743 z "},"8":{"ha":625,"x_min":53,"x_max":572,"o":"m 536 674 q 507 591 536 629 q 438 525 478 553 q 364 481 397 497 l 464 421 q 545 337 518 388 q 572 225 572 286 q 542 117 572 172 q 452 24 513 61 q 300 -14 392 -14 q 122 42 190 -14 q 53 203 53 97 q 72 288 53 243 q 133 369 92 332 q 244 446 188 415 l 211 468 q 118 553 147 508 q 89 656 89 597 q 118 753 89 710 q 199 822 147 796 q 322 847 251 847 q 481 798 425 847 q 536 674 536 749 m 314 799 q 219 765 251 799 q 186 682 186 731 q 203 615 186 650 q 283 536 219 579 l 328 510 q 372 548 346 524 q 419 605 399 572 q 439 675 439 638 q 411 761 439 724 q 314 799 383 799 m 303 35 q 374 47 335 35 q 441 93 413 58 q 469 197 469 128 q 442 295 469 247 q 350 382 415 343 l 283 421 q 194 339 224 382 q 156 260 165 296 q 147 203 147 224 q 174 103 147 140 q 236 51 200 67 q 303 35 272 35 z "},"9":{"ha":625,"x_min":50,"x_max":575,"o":"m 436 356 q 368 333 406 342 q 303 325 331 325 q 153 357 208 325 q 74 440 97 389 q 50 551 50 492 q 65 647 50 596 q 110 744 79 699 q 191 819 142 790 q 308 847 240 847 q 394 834 349 847 q 481 785 440 821 q 549 682 522 749 q 575 510 575 615 q 542 338 575 428 q 444 174 510 249 q 316 62 386 106 q 142 -14 246 18 q 125 19 125 -3 q 278 109 217 54 q 378 228 340 164 q 436 356 417 293 m 447 406 q 456 464 454 436 q 458 514 458 492 q 435 694 458 633 q 374 777 413 756 q 292 799 336 799 q 204 745 242 799 q 167 576 167 692 q 174 516 167 550 q 199 449 181 482 q 249 395 217 417 q 333 374 282 374 q 382 378 350 374 q 447 406 414 383 z "},"\u0000":{"ha":593,"x_min":0,"x_max":593,"o":"m 0 0 l 0 1069 l 593 1069 l 593 0 l 0 0 m 553 1039 l 40 1039 l 296 553 l 553 1039 m 563 1018 l 307 532 l 563 47 l 563 1018 m 286 532 l 31 1018 l 31 47 l 286 532 m 40 26 l 553 26 l 296 513 l 40 26 z "},"A":{"ha":993,"x_min":0,"x_max":958,"o":"m 239 165 q 231 144 238 161 q 217 110 224 126 q 211 89 211 93 q 244 53 211 61 q 311 43 276 46 q 317 19 317 38 q 311 0 317 6 l 10 0 q 3 8 7 3 q 0 19 0 14 q 3 33 0 26 q 10 43 7 40 q 88 62 54 46 q 149 142 122 78 l 464 886 q 501 895 478 886 q 540 914 525 904 l 826 119 q 878 58 844 69 q 951 43 911 46 q 958 19 958 36 q 951 0 958 7 l 611 0 q 606 19 606 6 q 611 43 606 38 q 686 53 656 46 q 717 85 717 60 q 714 100 717 89 l 633 335 l 340 335 q 306 330 315 335 q 292 311 297 325 l 239 165 m 365 393 l 611 393 l 481 771 l 472 771 l 331 411 q 329 406 329 410 q 365 393 329 393 z "},"Æ":{"ha":1210,"x_min":-15,"x_max":1183,"o":"m 1142 232 l 1183 222 q 1133 0 1139 19 l 471 0 l 471 40 q 579 71 558 46 q 600 189 600 94 l 600 411 l 356 411 q 226 146 278 260 q 210 89 210 110 q 215 71 210 78 q 307 40 229 50 l 307 0 l -15 0 l -15 40 q 82 69 51 49 q 150 160 111 90 q 479 782 289 406 q 496 829 496 814 q 496 838 496 833 q 440 857 489 851 l 379 865 l 379 903 l 1100 903 q 1114 704 1104 800 l 1071 699 q 1025 814 1050 782 q 978 843 1008 835 q 879 851 947 851 l 772 851 q 733 844 740 851 q 726 807 726 838 l 726 467 l 844 467 q 960 483 936 467 q 997 572 983 500 l 1040 572 l 1040 300 l 997 300 q 960 394 983 376 q 844 411 936 411 l 726 411 l 726 183 q 733 103 726 128 q 760 67 740 78 q 899 51 786 51 q 1010 61 971 51 q 1071 99 1049 71 q 1142 232 1108 142 m 600 467 l 600 844 q 563 821 583 844 l 382 467 l 600 467 z "},"Á":{"ha":964,"x_min":26,"x_max":939,"o":"m 706 1050 l 703 1038 l 440 950 l 422 986 l 644 1132 q 681 1099 657 1129 q 706 1050 703 1068 m 939 0 l 588 0 l 588 40 q 668 64 653 49 q 675 83 675 71 q 667 119 675 99 q 594 322 649 176 l 303 322 l 243 150 q 231 92 231 113 q 238 68 231 75 q 331 40 253 49 l 331 0 l 26 0 l 26 40 q 122 74 96 50 q 182 183 147 96 l 469 910 l 518 924 l 786 183 q 844 71 819 94 q 939 40 869 47 l 939 0 m 574 385 l 456 729 l 451 729 l 325 385 l 574 385 z "},"Â":{"ha":964,"x_min":26,"x_max":939,"o":"m 690 985 l 668 950 q 497 1036 610 974 q 328 950 381 972 l 306 985 q 482 1138 431 1083 l 514 1138 q 690 985 565 1083 m 939 0 l 588 0 l 588 40 q 668 64 653 49 q 675 83 675 71 q 667 119 675 99 q 594 322 649 176 l 303 322 l 243 150 q 231 92 231 113 q 238 68 231 75 q 331 40 253 49 l 331 0 l 26 0 l 26 40 q 122 74 96 50 q 182 183 147 96 l 469 910 l 518 924 l 786 183 q 844 71 819 94 q 939 40 869 47 l 939 0 m 574 385 l 456 729 l 451 729 l 325 385 l 574 385 z "},"Ä":{"ha":964,"x_min":28,"x_max":939,"o":"m 628 1111 q 678 1090 657 1111 q 697 1038 697 1068 q 676 988 697 1008 q 626 967 656 967 q 576 989 597 967 q 556 1038 556 1010 q 576 1090 556 1068 q 628 1111 597 1111 m 358 1111 q 408 1090 388 1111 q 428 1038 428 1068 q 408 988 428 1008 q 357 967 388 967 q 307 988 328 967 q 286 1038 286 1008 q 307 1090 286 1068 q 358 1111 328 1111 m 939 0 l 588 0 l 588 40 q 667 64 651 49 q 674 85 674 71 q 667 119 674 99 q 594 322 649 176 l 304 322 q 246 150 271 229 q 233 90 233 113 q 239 68 233 75 q 332 40 254 49 l 332 0 l 28 0 l 28 40 q 124 74 97 50 q 185 183 150 96 l 471 910 l 518 924 l 786 183 q 844 71 819 94 q 939 40 869 47 l 939 0 m 574 385 l 456 729 l 453 729 l 326 385 l 574 385 z "},"À":{"ha":964,"x_min":26,"x_max":939,"o":"m 568 986 l 550 950 l 286 1038 l 283 1049 q 310 1099 288 1067 q 346 1135 332 1129 l 568 986 m 939 0 l 588 0 l 588 40 q 668 64 653 49 q 675 83 675 71 q 667 119 675 99 q 594 322 649 176 l 303 322 l 243 150 q 231 92 231 113 q 238 68 231 75 q 331 40 253 49 l 331 0 l 26 0 l 26 40 q 122 74 96 50 q 182 183 147 96 l 469 910 l 518 924 l 786 183 q 844 71 819 94 q 939 40 869 47 l 939 0 m 574 385 l 456 729 l 451 729 l 325 385 l 574 385 z "},"Å":{"ha":964,"x_min":26,"x_max":938,"o":"m 494 1190 q 581 1158 543 1190 q 618 1072 618 1125 q 581 986 618 1019 q 493 953 543 953 q 407 986 443 953 q 369 1072 369 1019 q 407 1158 369 1125 q 494 1190 444 1190 m 493 1144 q 450 1125 467 1144 q 432 1072 432 1104 q 450 1018 432 1039 q 494 997 467 997 q 538 1018 521 997 q 554 1072 554 1039 q 538 1125 554 1104 q 493 1144 521 1144 m 938 0 l 586 0 l 586 40 q 667 64 651 49 q 674 85 674 71 q 667 119 674 99 l 594 322 l 303 322 l 243 150 q 231 92 231 113 q 238 68 231 75 q 331 40 253 49 l 331 0 l 26 0 l 26 40 q 122 74 96 50 q 182 183 147 96 l 469 910 l 517 924 l 785 183 q 843 71 817 94 q 938 40 869 47 l 938 0 m 572 385 l 454 729 l 451 729 l 325 385 l 572 385 z "},"Ã":{"ha":964,"x_min":26,"x_max":939,"o":"m 424 1097 q 510 1071 453 1097 q 588 1049 558 1049 q 653 1108 624 1049 l 689 1089 q 571 968 649 968 q 474 997 539 968 q 411 1017 435 1017 q 343 956 375 1017 l 308 981 q 424 1097 354 1097 m 939 0 l 588 0 l 588 40 q 668 64 653 49 q 675 83 675 71 q 667 119 675 99 q 594 322 649 176 l 303 322 l 243 150 q 231 92 231 113 q 238 68 231 75 q 331 40 253 49 l 331 0 l 26 0 l 26 40 q 122 74 96 50 q 182 183 147 96 l 469 910 l 518 924 l 786 183 q 844 71 819 94 q 939 40 869 47 l 939 0 m 574 385 l 456 729 l 451 729 l 325 385 l 574 385 z "},"B":{"ha":781,"x_min":19,"x_max":760,"o":"m 200 896 q 290 897 238 896 q 379 899 343 899 q 535 878 476 899 q 625 826 594 858 q 667 757 656 794 q 678 685 678 719 q 638 579 678 629 q 546 503 599 529 l 546 500 q 698 415 636 474 q 760 256 760 356 q 744 166 760 211 q 689 83 728 121 q 582 23 650 46 q 410 0 514 0 l 26 0 q 19 19 19 7 q 26 43 19 36 q 101 53 75 46 q 138 86 128 60 q 147 169 147 113 l 147 726 q 138 810 147 785 q 101 844 128 836 q 26 853 75 851 q 19 875 19 860 q 26 899 19 892 q 115 897 67 897 q 200 896 163 896 m 265 764 l 265 508 l 368 508 q 510 544 454 508 q 565 668 565 579 q 537 779 565 739 q 467 835 508 819 q 386 851 425 851 q 301 845 326 851 q 270 820 275 839 q 265 764 265 801 m 265 461 l 265 164 q 287 72 265 100 q 381 43 308 43 q 540 69 486 43 q 612 137 593 94 q 631 229 631 179 q 603 344 631 292 q 516 429 575 397 q 361 461 457 461 l 265 461 z "},"C":{"ha":883,"x_min":51,"x_max":849,"o":"m 51 431 q 84 617 51 529 q 176 771 117 704 q 317 876 235 838 q 497 914 399 914 q 638 898 583 914 q 729 867 692 882 q 801 851 767 851 q 819 742 813 794 q 832 636 826 690 q 816 629 824 632 q 801 626 808 626 q 794 627 797 626 q 786 629 790 628 q 733 742 768 689 q 638 829 699 796 q 482 863 578 863 q 370 833 428 863 q 260 739 313 803 q 200 619 222 692 q 178 457 178 547 q 201 307 178 381 q 266 174 224 233 q 366 78 308 114 q 494 43 424 43 q 667 78 592 43 q 817 194 743 114 q 849 174 838 194 q 688 33 778 81 q 496 -14 597 -14 q 247 47 346 -14 q 100 208 149 107 q 51 431 51 310 z "},"Ç":{"ha":897,"x_min":51,"x_max":849,"o":"m 51 431 q 84 617 51 529 q 176 771 117 704 q 317 876 235 838 q 497 914 399 914 q 638 900 583 914 q 729 871 692 886 q 801 851 767 856 q 819 742 813 794 q 832 636 826 690 q 816 629 824 632 q 801 626 808 626 q 794 627 797 626 q 786 629 790 628 q 733 742 768 689 q 638 829 699 796 q 482 863 578 863 q 370 833 428 863 q 260 739 313 803 q 200 619 222 692 q 178 457 178 547 q 201 307 178 381 q 266 174 224 233 q 366 78 308 114 q 494 43 424 43 q 667 78 592 43 q 817 194 743 114 q 849 174 838 194 q 706 44 785 90 q 538 -11 626 -3 l 507 -93 q 543 -89 524 -89 q 613 -112 585 -89 q 642 -175 642 -135 q 599 -249 642 -219 q 493 -278 557 -278 q 438 -272 460 -278 q 390 -254 417 -265 q 404 -218 390 -232 q 448 -233 432 -228 q 485 -237 464 -237 q 536 -223 517 -237 q 556 -182 556 -208 q 544 -147 556 -160 q 510 -133 533 -133 q 477 -135 490 -133 q 447 -142 464 -136 l 439 -133 l 489 -14 q 244 49 342 -12 q 99 210 147 110 q 51 431 51 311 z "},"D":{"ha":939,"x_min":19,"x_max":914,"o":"m 206 896 q 303 897 246 896 q 435 899 361 899 q 622 862 535 899 q 774 760 708 825 q 877 610 840 696 q 914 428 914 525 q 872 217 914 300 q 760 86 829 133 q 613 19 692 39 q 460 0 533 0 l 207 0 q 117 -1 168 0 q 26 -3 67 -1 q 19 19 19 4 q 26 43 19 36 q 101 53 75 46 q 138 86 128 60 q 147 169 147 113 l 147 726 q 138 810 147 785 q 101 844 128 836 q 26 853 75 851 q 19 875 19 860 q 26 899 19 892 q 118 897 68 897 q 206 896 168 896 m 265 117 q 275 78 265 94 q 317 53 285 63 q 417 44 349 44 q 556 60 490 44 q 672 114 621 75 q 751 221 722 153 q 781 394 781 289 q 760 556 781 475 q 694 703 740 636 q 571 811 647 771 q 382 851 494 851 q 298 835 331 851 q 265 783 265 819 l 265 117 z "},"E":{"ha":753,"x_min":19,"x_max":733,"o":"m 433 501 q 488 513 471 501 q 509 540 504 524 q 514 567 514 556 q 513 572 514 569 q 513 576 513 575 q 514 581 513 581 q 517 596 517 581 q 539 603 524 603 q 563 596 556 603 q 560 538 561 571 q 560 476 560 506 q 560 412 560 442 q 563 354 561 382 q 539 347 556 347 q 517 354 524 347 q 508 407 515 386 q 476 438 501 428 q 390 449 450 449 l 264 449 l 264 142 q 281 74 264 93 q 342 54 299 54 l 503 54 q 623 108 582 54 q 685 236 664 161 q 693 238 689 238 q 701 238 697 238 q 733 229 719 238 q 711 115 725 176 q 682 0 697 53 l 25 0 q 19 19 19 6 q 25 43 19 38 q 100 53 74 46 q 136 86 126 60 q 146 169 146 113 l 146 726 q 136 810 146 785 q 100 844 126 836 q 25 853 74 851 q 19 875 19 858 q 25 899 19 893 q 119 897 67 897 q 204 896 172 896 l 558 896 q 596 897 583 896 q 626 901 608 899 q 632 897 632 901 q 637 869 633 893 q 645 814 640 846 q 655 749 650 782 q 663 696 660 717 q 629 688 649 688 q 623 688 626 688 q 617 689 619 689 q 585 771 601 738 q 541 822 569 804 q 460 840 513 840 l 356 840 q 282 819 300 840 q 264 751 264 797 l 264 501 l 433 501 z "},"É":{"ha":753,"x_min":19,"x_max":733,"o":"m 486 1139 q 538 1107 517 1125 q 572 1067 558 1089 l 372 986 q 337 973 350 976 q 314 969 324 969 q 293 990 293 969 q 297 1003 293 997 q 314 1019 300 1010 l 486 1139 m 433 501 q 488 513 471 501 q 509 540 504 524 q 514 567 514 556 q 513 572 514 569 q 513 576 513 575 q 514 581 513 581 q 517 596 517 581 q 539 603 524 603 q 563 596 556 603 q 560 538 561 571 q 560 476 560 506 q 560 412 560 442 q 563 354 561 382 q 539 347 556 347 q 517 354 524 347 q 508 407 515 386 q 476 438 501 428 q 390 449 450 449 l 264 449 l 264 142 q 281 74 264 93 q 342 54 299 54 l 503 54 q 623 108 582 54 q 685 236 664 161 q 693 238 689 238 q 701 238 697 238 q 733 229 719 238 q 711 115 725 176 q 682 0 697 53 l 25 0 q 19 19 19 6 q 25 43 19 38 q 100 53 74 46 q 136 86 126 60 q 146 169 146 113 l 146 726 q 136 810 146 785 q 100 844 126 836 q 25 853 74 851 q 19 875 19 858 q 25 899 19 893 q 119 897 67 897 q 204 896 172 896 l 558 896 q 596 897 583 896 q 626 901 608 899 q 632 897 632 901 q 637 869 633 893 q 645 814 640 846 q 655 749 650 782 q 663 696 660 717 q 629 688 649 688 q 623 688 626 688 q 617 689 619 689 q 585 771 601 738 q 541 822 569 804 q 460 840 513 840 l 356 840 q 282 819 300 840 q 264 751 264 797 l 264 501 l 433 501 z "},"Ê":{"ha":753,"x_min":19,"x_max":733,"o":"m 438 1122 q 506 1050 469 1085 q 581 988 543 1015 q 573 970 578 978 q 558 958 568 963 q 482 997 518 978 q 411 1043 446 1017 q 338 996 372 1015 q 263 958 303 976 q 243 988 247 968 q 317 1052 282 1017 q 383 1122 351 1088 q 410 1131 399 1131 q 438 1122 421 1131 m 433 501 q 488 513 471 501 q 509 540 504 524 q 514 567 514 556 q 513 572 514 569 q 513 576 513 575 q 514 581 513 581 q 517 596 517 581 q 539 603 524 603 q 563 596 556 603 q 560 538 561 571 q 560 476 560 506 q 560 412 560 442 q 563 354 561 382 q 539 347 556 347 q 517 354 524 347 q 508 407 515 386 q 476 438 501 428 q 390 449 450 449 l 264 449 l 264 142 q 281 74 264 93 q 342 54 299 54 l 503 54 q 623 108 582 54 q 685 236 664 161 q 693 238 689 238 q 701 238 697 238 q 733 229 719 238 q 711 115 725 176 q 682 0 697 53 l 25 0 q 19 19 19 6 q 25 43 19 38 q 100 53 74 46 q 136 86 126 60 q 146 169 146 113 l 146 726 q 136 810 146 785 q 100 844 126 836 q 25 853 74 851 q 19 875 19 858 q 25 899 19 893 q 119 897 67 897 q 204 896 172 896 l 558 896 q 596 897 583 896 q 626 901 608 899 q 632 897 632 901 q 637 869 633 893 q 645 814 640 846 q 655 749 650 782 q 663 696 660 717 q 629 688 649 688 q 623 688 626 688 q 617 689 619 689 q 585 771 601 738 q 541 822 569 804 q 460 840 513 840 l 356 840 q 282 819 300 840 q 264 751 264 797 l 264 501 l 433 501 z "},"Ë":{"ha":753,"x_min":19,"x_max":733,"o":"m 450 1051 q 470 1099 450 1079 q 517 1118 490 1118 q 564 1099 544 1118 q 583 1051 583 1079 q 564 1005 583 1025 q 517 985 544 985 q 470 1005 490 985 q 450 1051 450 1025 m 188 1051 q 208 1099 188 1079 q 254 1118 228 1118 q 301 1099 282 1118 q 321 1051 321 1079 q 301 1005 321 1025 q 254 985 282 985 q 208 1005 228 985 q 188 1051 188 1025 m 433 501 q 488 513 471 501 q 509 540 504 524 q 514 567 514 556 q 513 572 514 569 q 513 576 513 575 q 514 581 513 581 q 517 599 517 581 q 526 602 519 601 q 539 603 533 603 q 553 602 546 603 q 563 599 560 601 q 560 540 561 574 q 560 476 560 506 q 560 412 560 442 q 563 354 561 382 q 539 347 556 347 q 517 354 524 347 q 508 407 515 386 q 476 438 501 428 q 390 449 450 449 l 264 449 l 264 142 q 281 74 264 93 q 342 54 299 54 l 503 54 q 623 108 582 54 q 685 236 664 161 q 693 238 689 238 q 701 238 697 238 q 733 229 719 238 q 711 115 725 176 q 682 0 697 53 l 25 0 q 19 19 19 6 q 25 43 19 38 q 100 53 74 46 q 136 86 126 60 q 146 169 146 113 l 146 726 q 136 810 146 785 q 100 844 126 836 q 25 853 74 851 q 19 875 19 858 q 25 899 19 893 q 119 897 67 897 q 204 896 172 896 l 558 896 q 596 897 583 896 q 626 901 608 899 q 632 897 632 901 q 637 869 633 893 q 645 814 640 846 q 655 749 650 782 q 663 696 660 717 q 629 688 649 688 q 623 688 626 688 q 617 689 619 689 q 585 771 601 738 q 541 822 569 804 q 460 840 513 840 l 356 840 q 282 819 300 840 q 264 751 264 797 l 264 501 l 433 501 z "},"È":{"ha":753,"x_min":19,"x_max":733,"o":"m 340 1135 l 508 1018 q 529 989 529 1003 q 523 974 529 981 q 508 968 517 968 q 485 972 500 968 q 449 985 471 975 l 235 1072 q 280 1107 254 1092 q 340 1135 306 1122 m 433 501 q 488 513 471 501 q 509 540 504 524 q 514 567 514 556 q 513 572 514 569 q 513 576 513 575 q 514 581 513 581 q 517 596 517 581 q 539 603 524 603 q 563 596 556 603 q 560 538 561 571 q 560 476 560 506 q 560 412 560 442 q 563 354 561 382 q 539 347 556 347 q 517 354 524 347 q 508 407 515 386 q 476 438 501 428 q 390 449 450 449 l 264 449 l 264 142 q 281 74 264 93 q 342 54 299 54 l 503 54 q 623 108 582 54 q 685 236 664 161 q 693 238 689 238 q 701 238 697 238 q 733 229 719 238 q 711 115 725 176 q 682 0 697 53 l 25 0 q 19 19 19 6 q 25 43 19 38 q 100 53 74 46 q 136 86 126 60 q 146 169 146 113 l 146 726 q 136 810 146 785 q 100 844 126 836 q 25 853 74 851 q 19 875 19 858 q 25 899 19 893 q 119 897 67 897 q 204 896 172 896 l 558 896 q 596 897 583 896 q 626 901 608 899 q 632 897 632 901 q 637 869 633 893 q 645 814 640 846 q 655 749 650 782 q 663 696 660 717 q 629 688 649 688 q 623 688 626 688 q 617 689 619 689 q 585 771 601 738 q 541 822 569 804 q 460 840 513 840 l 356 840 q 282 819 300 840 q 264 751 264 797 l 264 501 l 433 501 z "},"Ð":{"ha":1029,"x_min":51,"x_max":968,"o":"m 74 903 l 463 903 q 849 783 725 903 q 968 486 968 668 q 794 115 968 247 q 388 0 642 0 l 63 0 l 63 40 q 172 71 151 47 q 192 190 192 93 l 192 443 l 51 443 l 51 503 l 192 503 l 192 713 q 174 833 192 810 q 74 863 154 856 l 74 903 m 322 443 l 322 185 q 347 82 322 110 q 453 54 371 54 q 724 169 629 54 q 817 465 817 285 q 667 796 817 696 q 444 854 585 854 q 339 839 361 854 q 322 779 322 829 l 322 503 l 536 503 l 536 443 l 322 443 z "},"€":{"ha":1029,"x_min":47,"x_max":982,"o":"m 311 351 q 367 195 326 265 q 476 83 407 125 q 643 42 544 42 q 957 182 813 42 l 982 157 q 819 28 926 76 q 606 -19 715 -19 q 385 28 479 -19 q 232 158 290 75 q 154 351 174 242 l 47 351 l 75 415 l 142 415 l 142 421 q 142 438 142 428 q 143 460 143 447 q 142 483 143 469 q 142 513 142 496 l 47 513 l 75 576 l 154 576 q 240 761 178 679 q 397 891 301 843 q 614 939 493 939 q 757 917 688 939 q 883 858 826 894 q 972 776 939 821 l 956 739 q 626 883 804 883 q 513 860 565 883 q 422 806 460 838 q 353 708 383 771 q 311 576 322 646 l 886 576 l 858 513 l 304 513 q 303 490 303 503 q 303 457 303 476 q 303 433 303 443 q 304 415 303 422 l 817 415 l 789 351 l 311 351 z "},"F":{"ha":679,"x_min":19,"x_max":660,"o":"m 424 449 l 264 449 l 264 169 q 274 86 264 113 q 310 53 283 60 q 385 43 336 46 q 392 19 392 36 q 385 0 392 7 l 206 0 q 110 -1 158 0 q 25 -3 61 -1 q 19 19 19 3 q 25 43 19 38 q 100 53 74 46 q 136 86 126 60 q 146 169 146 113 l 146 726 q 136 810 146 785 q 100 844 126 836 q 25 853 74 851 q 19 875 19 858 q 25 899 19 893 q 119 897 67 897 q 204 896 171 896 l 558 896 q 595 897 585 896 q 624 901 606 899 q 629 897 629 901 q 634 869 631 893 q 642 814 638 846 q 652 749 647 782 q 660 696 657 717 q 617 689 642 689 q 580 771 601 738 q 518 822 558 804 q 404 840 478 840 l 342 840 q 280 824 296 840 q 264 751 264 808 l 264 501 l 393 501 q 478 509 453 501 q 511 538 504 517 q 519 596 518 558 q 542 603 526 603 q 565 596 558 603 q 563 540 564 569 q 563 476 563 511 q 563 411 563 442 q 565 354 564 381 q 542 347 558 347 q 519 354 526 347 q 518 361 519 361 q 517 374 517 361 q 510 405 517 388 q 485 435 504 422 q 424 449 465 449 z "},"G":{"ha":958,"x_min":51,"x_max":925,"o":"m 524 914 q 649 901 601 914 q 734 874 697 889 q 813 851 771 858 q 837 729 829 776 q 844 638 844 682 q 804 629 824 629 l 799 629 q 751 742 781 689 q 663 830 721 796 q 504 864 606 864 q 350 812 424 864 q 231 668 276 760 q 185 454 185 576 q 206 313 185 386 q 270 176 228 239 q 376 75 313 114 q 521 36 439 36 q 640 46 578 36 q 736 89 701 56 l 736 301 q 708 353 736 343 q 622 368 679 364 q 618 378 619 371 q 617 393 617 386 q 618 408 617 400 q 622 418 619 415 q 714 416 668 417 q 794 415 760 415 q 865 416 836 415 q 918 418 893 417 q 925 393 925 411 q 918 368 925 375 q 871 351 888 365 q 854 301 854 338 l 854 140 q 876 101 854 119 q 709 14 806 42 q 489 -14 613 -14 q 258 44 357 -14 q 106 202 160 103 q 51 426 51 301 q 92 632 51 542 q 200 785 132 722 q 352 881 268 847 q 524 914 436 914 z "},"H":{"ha":1011,"x_min":19,"x_max":986,"o":"m 858 169 q 868 86 858 113 q 904 53 878 60 q 979 43 931 46 q 986 19 986 36 q 979 -3 986 4 q 886 -1 933 -1 q 800 0 839 0 q 714 -1 761 0 q 619 -3 667 -1 q 614 19 614 3 q 619 43 614 38 q 694 53 668 46 q 731 86 721 60 q 740 169 740 113 l 740 446 l 265 446 l 265 169 q 275 86 265 113 q 311 53 285 60 q 386 43 338 46 q 392 19 392 38 q 386 -3 392 3 q 292 -1 340 -1 q 207 0 244 0 q 120 -1 168 0 q 26 -3 72 -1 q 19 19 19 4 q 26 43 19 36 q 101 53 75 46 q 138 86 128 60 q 147 169 147 113 l 147 726 q 138 810 147 785 q 101 844 128 836 q 26 853 75 851 q 19 875 19 860 q 26 899 19 892 q 110 897 67 897 q 206 896 154 896 q 303 897 258 896 q 386 899 347 897 q 392 875 392 893 q 386 853 392 858 q 311 844 338 851 q 275 810 285 836 q 265 726 265 785 l 265 504 l 740 504 l 740 726 q 731 810 740 785 q 694 844 721 836 q 619 853 668 851 q 614 875 614 858 q 619 899 614 893 q 713 897 665 897 q 799 896 760 896 q 888 897 839 896 q 979 899 936 897 q 986 875 986 892 q 979 853 986 860 q 904 844 931 851 q 868 810 878 836 q 858 726 858 785 l 858 169 z "},"I":{"ha":411,"x_min":19,"x_max":392,"o":"m 265 169 q 275 86 265 113 q 311 53 285 60 q 386 43 338 46 q 392 19 392 38 q 386 -3 392 3 q 292 -1 339 -1 q 207 0 244 0 q 122 -1 169 0 q 26 -3 74 -1 q 19 19 19 4 q 26 43 19 36 q 101 53 75 46 q 138 86 128 60 q 147 169 147 113 l 147 726 q 138 810 147 785 q 101 844 128 836 q 26 853 75 851 q 19 875 19 860 q 26 899 19 892 q 123 897 75 897 q 206 896 171 896 q 293 897 246 896 q 386 899 340 897 q 392 875 392 893 q 386 853 392 858 q 311 844 338 851 q 275 810 285 836 q 265 726 265 785 l 265 169 z "},"Í":{"ha":482,"x_min":51,"x_max":442,"o":"m 442 1050 l 439 1038 l 176 950 l 158 986 l 381 1132 q 417 1099 393 1129 q 442 1050 439 1068 m 429 0 l 51 0 l 51 40 q 156 68 136 47 q 175 175 175 88 l 175 728 q 156 836 175 815 q 51 863 136 856 l 51 903 l 429 903 l 429 863 q 325 836 344 856 q 306 728 306 815 l 306 175 q 325 68 306 88 q 429 40 344 47 l 429 0 z "},"Î":{"ha":482,"x_min":49,"x_max":433,"o":"m 433 985 l 411 950 q 240 1036 353 974 q 71 950 124 972 l 49 985 q 225 1138 174 1083 l 257 1138 q 433 985 308 1083 m 429 0 l 51 0 l 51 40 q 156 68 136 47 q 175 175 175 88 l 175 728 q 156 836 175 815 q 51 863 136 856 l 51 903 l 429 903 l 429 863 q 325 836 344 856 q 306 728 306 815 l 306 175 q 325 68 306 88 q 429 40 344 47 l 429 0 z "},"Ï":{"ha":482,"x_min":36,"x_max":447,"o":"m 375 1113 l 378 1111 q 428 1090 407 1111 q 447 1038 447 1068 q 426 988 447 1008 q 376 967 406 967 q 326 989 347 967 q 306 1038 306 1010 q 326 1090 306 1068 q 375 1113 346 1111 m 108 1111 q 158 1090 138 1111 q 178 1038 178 1068 q 158 988 178 1008 q 107 967 138 967 q 57 988 78 967 q 36 1038 36 1008 q 57 1090 36 1068 q 108 1111 78 1111 m 429 0 l 53 0 l 53 40 q 157 68 138 47 q 175 175 175 88 l 175 728 q 157 836 175 815 q 53 863 138 856 l 53 903 l 429 903 l 429 863 q 326 836 344 856 q 307 728 307 815 l 307 175 q 326 68 307 88 q 429 40 344 47 l 429 0 z "},"Ì":{"ha":482,"x_min":47,"x_max":429,"o":"m 332 986 l 314 950 l 50 1038 l 47 1049 q 74 1099 51 1067 q 110 1135 96 1129 l 332 986 m 429 0 l 51 0 l 51 40 q 156 68 136 47 q 175 175 175 88 l 175 728 q 156 836 175 815 q 51 863 136 856 l 51 903 l 429 903 l 429 863 q 325 836 344 856 q 306 728 306 815 l 306 175 q 325 68 306 88 q 429 40 344 47 l 429 0 z "},"J":{"ha":461,"x_min":-94,"x_max":428,"o":"m 314 726 l 314 143 q 291 -17 314 44 q 235 -116 268 -79 q 172 -179 203 -153 q 93 -227 129 -215 q 10 -239 57 -239 q -31 -231 -6 -239 q -75 -206 -56 -222 q -94 -164 -94 -189 q -71 -122 -94 -140 q -33 -104 -47 -104 q 5 -115 -7 -104 q 22 -139 17 -126 q 44 -165 29 -154 q 78 -176 58 -176 q 115 -166 94 -176 q 154 -126 136 -156 q 184 -38 172 -96 q 196 113 196 19 l 196 726 q 185 810 196 785 q 146 844 175 836 q 61 853 117 851 q 56 875 56 858 q 61 899 56 893 q 165 897 114 897 q 254 896 217 896 q 338 897 294 896 q 421 899 382 897 q 428 875 428 892 q 421 853 428 860 q 356 844 379 851 q 323 810 332 836 q 314 726 314 785 z "},"K":{"ha":897,"x_min":19,"x_max":878,"o":"m 265 169 q 275 86 265 113 q 311 53 285 60 q 386 43 338 46 q 392 19 392 38 q 386 0 392 6 l 207 0 q 120 -1 167 0 q 26 -3 74 -1 q 19 19 19 4 q 26 43 19 36 q 101 53 75 46 q 138 86 128 60 q 147 169 147 113 l 147 726 q 138 810 147 785 q 101 844 128 836 q 26 853 75 851 q 19 875 19 860 q 26 899 19 892 q 120 897 74 897 q 206 896 167 896 q 291 897 243 896 q 386 899 339 897 q 392 875 392 893 q 386 853 392 858 q 311 844 338 851 q 275 810 285 836 q 265 726 265 785 l 265 482 q 327 499 301 485 q 375 536 353 513 l 604 781 q 625 807 619 796 q 631 825 631 818 q 610 846 631 840 q 565 853 590 851 q 558 875 558 860 q 565 899 558 892 q 644 897 604 897 q 722 896 683 896 q 789 897 756 896 q 854 899 822 897 q 861 875 861 892 q 854 853 861 860 q 770 838 813 850 q 679 775 728 826 l 475 565 q 433 517 440 529 q 426 497 426 504 q 444 463 426 483 l 749 101 q 810 55 781 64 q 871 43 840 46 q 878 19 878 36 q 871 -3 878 4 q 801 -1 836 -1 q 731 0 767 0 q 692 -1 708 0 q 656 -3 676 -1 q 649 6 649 -3 q 633 49 647 22 q 599 101 619 75 l 381 376 q 331 416 360 404 q 265 429 301 428 l 265 169 z "},"L":{"ha":724,"x_min":19,"x_max":704,"o":"m 207 0 q 119 -1 172 0 q 26 -3 67 -1 q 19 19 19 4 q 26 43 19 36 q 101 53 75 46 q 138 86 128 60 q 147 169 147 113 l 147 726 q 138 810 147 785 q 101 844 128 836 q 26 853 75 851 q 19 875 19 860 q 26 899 19 892 q 122 897 75 897 q 206 896 168 896 q 292 897 246 896 q 386 899 339 897 q 392 875 392 893 q 386 853 392 858 q 311 844 338 851 q 275 810 285 836 q 265 726 265 785 l 265 151 q 285 76 265 99 q 344 54 304 54 l 432 54 q 550 79 506 54 q 619 145 594 104 q 658 236 644 186 q 665 237 661 236 q 671 238 668 238 q 704 229 690 238 q 689 113 699 175 q 668 -3 679 50 q 648 -2 668 -3 q 599 -1 628 -1 q 544 -1 571 -1 q 503 0 517 0 l 207 0 z "},"M":{"ha":1161,"x_min":22,"x_max":1139,"o":"m 917 275 l 885 742 l 882 742 l 569 7 q 561 -8 565 -1 q 550 -14 557 -14 q 538 -7 544 -14 q 529 7 532 0 l 242 728 l 239 728 l 186 171 q 184 151 185 161 q 183 132 183 142 q 203 70 183 93 q 278 43 222 47 q 283 19 283 38 q 278 0 283 6 l 147 0 q 91 -1 122 0 q 28 -3 60 -1 q 22 19 22 3 q 28 43 22 38 q 107 77 88 49 q 132 168 126 106 l 188 740 q 190 768 189 756 q 190 790 190 781 q 171 841 190 832 q 93 853 151 850 q 86 875 86 860 q 93 899 86 892 l 294 896 l 579 190 q 590 172 586 172 q 603 192 594 172 l 897 896 l 1079 899 q 1086 875 1086 892 q 1079 853 1086 860 q 1001 835 1019 850 q 982 785 982 821 q 983 770 982 778 q 983 753 983 763 l 1025 168 q 1036 85 1029 111 q 1064 53 1043 60 q 1132 43 1085 46 q 1139 19 1139 36 q 1132 -3 1139 4 q 1055 -1 1097 -1 q 981 0 1013 0 q 910 -1 950 0 q 832 -3 871 -1 q 825 19 825 4 q 832 43 825 36 q 905 55 888 46 q 922 110 922 64 q 922 138 922 115 q 919 190 921 161 q 917 244 918 219 q 917 275 917 268 z "},"N":{"ha":983,"x_min":14,"x_max":967,"o":"m 769 714 q 760 805 769 778 q 726 840 751 832 q 651 853 700 849 q 644 875 644 860 q 651 899 644 892 q 740 897 697 897 q 806 896 783 896 q 874 897 831 896 q 961 899 918 897 q 967 875 967 893 q 961 853 967 858 q 886 839 913 849 q 850 801 860 829 q 840 711 840 774 l 840 29 q 808 -14 840 -14 q 753 19 778 -14 l 268 632 q 221 678 233 678 q 211 662 213 678 q 210 610 210 646 l 210 185 q 219 94 210 122 q 256 57 229 65 q 331 43 282 49 q 336 19 336 38 q 331 0 336 6 l 21 0 q 14 19 14 7 q 21 43 14 36 q 96 58 69 49 q 132 95 122 67 q 142 185 142 124 l 142 764 q 106 821 136 792 q 32 853 76 850 q 25 875 25 860 q 32 899 25 892 l 219 896 l 696 292 q 763 215 756 215 q 771 226 769 215 q 772 257 772 238 l 769 714 z "},"Ñ":{"ha":983,"x_min":14,"x_max":967,"o":"m 407 1108 q 468 1090 443 1108 q 519 1053 493 1072 q 579 1035 544 1035 q 617 1049 603 1035 q 644 1107 631 1064 q 682 1099 667 1108 q 640 999 669 1036 q 561 961 610 961 q 517 976 539 961 q 472 1006 494 992 q 435 1024 454 1017 q 397 1032 415 1032 q 358 1016 371 1032 q 333 965 344 1000 q 296 972 307 961 q 337 1071 311 1033 q 407 1108 363 1108 m 769 714 q 760 805 769 778 q 726 840 751 832 q 651 853 700 849 q 644 875 644 860 q 651 899 644 892 q 740 897 697 897 q 806 896 783 896 q 874 897 831 896 q 961 899 918 897 q 967 875 967 893 q 961 853 967 858 q 886 839 913 849 q 850 801 860 829 q 840 711 840 774 l 840 29 q 808 -14 840 -14 q 753 19 778 -14 l 268 632 q 221 678 233 678 q 211 662 213 678 q 210 610 210 646 l 210 185 q 219 94 210 122 q 256 57 229 65 q 331 43 282 49 q 336 19 336 38 q 331 0 336 6 l 21 0 q 14 19 14 7 q 21 43 14 36 q 96 58 69 49 q 132 95 122 67 q 142 185 142 124 l 142 764 q 106 821 136 792 q 32 853 76 850 q 25 875 25 860 q 32 899 25 892 l 219 896 l 696 292 q 763 215 756 215 q 771 226 769 215 q 772 257 772 238 l 769 714 z "},"O":{"ha":964,"x_min":51,"x_max":925,"o":"m 925 457 q 871 213 925 319 q 718 47 817 107 q 486 -14 619 -14 q 269 40 368 -14 q 111 194 171 94 q 51 431 51 294 q 102 675 51 565 q 248 849 153 785 q 478 914 343 914 q 704 860 603 914 q 865 703 806 806 q 925 457 925 601 m 460 864 q 328 822 392 864 q 225 690 265 781 q 185 454 185 600 q 232 228 185 321 q 354 85 279 135 q 514 36 429 36 q 656 83 593 36 q 756 218 719 129 q 792 431 792 307 q 747 667 792 571 q 626 814 701 764 q 460 864 551 864 z "},"Œ":{"ha":1356,"x_min":63,"x_max":1328,"o":"m 1285 228 l 1328 221 q 1279 0 1306 101 l 850 0 q 707 -6 769 0 q 567 -15 606 -15 q 193 117 322 -15 q 63 440 63 249 q 214 786 63 654 q 594 918 364 917 q 640 917 617 918 q 689 914 663 915 q 729 910 714 911 q 857 903 806 903 l 1246 903 q 1258 704 1246 864 l 1215 699 q 1169 815 1196 781 q 1122 844 1156 836 q 1015 851 1089 851 l 915 851 q 876 846 883 851 q 869 808 869 839 l 869 496 l 1000 496 q 1108 513 1086 496 q 1143 597 1131 529 l 1186 597 l 1186 331 l 1143 331 q 1108 421 1129 404 q 1000 438 1086 438 l 869 438 l 869 188 q 903 68 869 89 q 1043 50 929 50 q 1156 60 1118 50 q 1215 94 1192 68 q 1285 228 1251 136 m 740 150 l 740 761 q 713 842 740 825 q 581 868 664 868 q 314 758 411 868 q 217 457 217 647 q 238 299 217 372 q 301 165 258 225 q 415 69 343 104 q 582 35 488 35 q 692 54 654 35 q 731 88 719 67 q 740 150 740 107 z "},"Ó":{"ha":1042,"x_min":60,"x_max":982,"o":"m 707 1060 l 704 1047 l 442 960 l 424 996 l 646 1142 q 682 1108 658 1139 q 707 1060 704 1078 m 532 924 q 850 794 717 924 q 982 463 982 665 q 847 111 982 243 q 515 -21 713 -21 q 192 113 322 -21 q 60 443 60 244 q 189 782 60 639 q 532 924 318 924 m 501 872 q 299 768 382 872 q 215 479 215 664 q 308 158 215 286 q 544 31 400 31 q 746 133 664 31 q 826 425 826 236 q 735 754 826 636 q 501 872 643 872 z "},"Ô":{"ha":1042,"x_min":60,"x_max":982,"o":"m 713 996 l 690 961 q 519 1047 632 985 q 350 961 403 983 l 328 996 q 504 1149 453 1094 l 536 1149 q 713 996 588 1094 m 532 924 q 850 794 717 924 q 982 463 982 665 q 847 111 982 243 q 515 -21 713 -21 q 192 113 322 -21 q 60 443 60 244 q 189 782 60 639 q 532 924 318 924 m 501 872 q 299 768 382 872 q 215 479 215 664 q 308 158 215 286 q 544 31 400 31 q 746 133 664 31 q 826 425 826 236 q 735 754 826 636 q 501 872 643 872 z "},"Ö":{"ha":1042,"x_min":60,"x_max":982,"o":"m 654 1118 l 657 1118 q 707 1097 686 1118 q 726 1044 726 1075 q 706 994 726 1015 q 656 974 685 974 q 606 996 626 974 q 585 1044 585 1017 q 606 1097 585 1075 q 654 1118 626 1118 m 388 1118 q 438 1097 417 1118 q 457 1044 457 1075 q 438 994 457 1015 q 386 974 417 974 q 336 994 357 974 q 315 1044 315 1015 q 336 1097 315 1075 q 388 1118 357 1118 m 532 924 q 850 794 717 924 q 982 463 982 665 q 847 111 982 243 q 515 -21 713 -21 q 192 113 322 -21 q 60 443 60 244 q 189 782 60 639 q 532 924 318 924 m 501 872 q 299 768 382 872 q 215 479 215 664 q 308 158 215 286 q 544 31 400 31 q 746 133 664 31 q 828 425 828 236 q 736 754 828 635 q 501 872 643 872 z "},"Ò":{"ha":1042,"x_min":60,"x_max":982,"o":"m 621 997 l 603 961 l 339 1049 l 336 1060 q 363 1110 340 1078 q 399 1146 385 1140 l 621 997 m 532 924 q 850 794 717 924 q 982 463 982 665 q 847 111 982 243 q 515 -21 713 -21 q 192 113 322 -21 q 60 443 60 244 q 189 782 60 639 q 532 924 318 924 m 501 872 q 299 768 382 872 q 215 479 215 664 q 308 158 215 286 q 544 31 400 31 q 746 133 664 31 q 826 425 826 236 q 735 754 826 636 q 501 872 643 872 z "},"Ø":{"ha":1046,"x_min":68,"x_max":990,"o":"m 883 936 l 815 832 q 943 672 894 767 q 990 465 990 576 q 856 114 990 247 q 519 -21 721 -21 q 281 47 388 -21 l 203 -64 l 164 -31 l 238 76 q 114 236 158 142 q 68 444 68 331 q 199 781 68 638 q 543 924 329 924 q 771 861 672 924 l 842 965 l 883 936 m 306 175 l 717 782 q 513 872 639 872 q 304 768 389 872 q 218 476 218 664 q 306 175 218 297 m 750 739 l 339 131 q 543 31 415 31 q 763 140 686 31 q 839 425 839 249 q 750 739 839 610 z "},"Õ":{"ha":1042,"x_min":60,"x_max":982,"o":"m 450 1110 q 536 1083 479 1110 q 614 1061 585 1061 q 678 1121 650 1061 l 714 1101 q 597 981 675 981 q 500 1010 565 981 q 438 1029 458 1029 q 369 968 401 1029 l 335 993 q 450 1110 381 1110 m 532 924 q 850 794 717 924 q 982 463 982 665 q 847 111 982 243 q 515 -21 713 -21 q 192 113 322 -21 q 60 443 60 244 q 189 782 60 639 q 532 924 318 924 m 501 872 q 299 768 382 872 q 215 479 215 664 q 308 158 215 286 q 544 31 400 31 q 746 133 664 31 q 826 425 826 236 q 735 754 826 636 q 501 872 643 872 z "},"P":{"ha":732,"x_min":17,"x_max":704,"o":"m 144 726 q 135 810 144 785 q 99 844 125 836 q 24 853 72 851 q 17 875 17 860 q 24 899 17 892 q 115 897 65 897 q 203 896 164 896 q 299 901 244 896 q 393 906 354 906 q 550 882 489 906 q 644 822 611 858 q 691 745 678 785 q 704 675 704 706 q 688 581 704 631 q 635 489 672 532 q 533 419 597 446 q 375 392 469 392 q 263 406 306 392 l 263 169 q 276 87 263 113 q 319 53 289 61 q 404 43 350 46 q 411 19 411 36 q 404 0 411 7 l 204 0 q 119 -1 167 0 q 24 -3 71 -1 q 17 19 17 4 q 24 43 17 36 q 99 53 72 46 q 135 86 125 60 q 144 169 144 113 l 144 726 m 263 769 l 263 446 q 308 441 274 443 q 368 439 342 439 q 522 488 469 439 q 575 650 575 538 q 547 783 575 739 q 476 843 519 828 q 383 858 432 858 q 307 844 333 858 q 272 810 281 831 q 263 769 263 790 z "},"Q":{"ha":976,"x_min":51,"x_max":946,"o":"m 925 457 q 881 233 925 332 q 756 73 836 135 q 568 -7 676 11 q 487 -39 535 -17 q 386 -100 439 -61 q 401 -97 393 -97 q 414 -97 408 -97 q 528 -116 475 -97 q 628 -158 581 -135 q 715 -195 672 -179 q 801 -211 758 -211 q 866 -199 832 -211 q 922 -160 900 -187 l 946 -176 q 858 -262 906 -235 q 746 -290 811 -290 q 617 -267 672 -290 q 513 -215 561 -243 q 433 -175 472 -192 q 349 -158 393 -158 q 328 -162 340 -158 q 300 -176 315 -165 q 273 -206 286 -190 q 247 -240 260 -222 l 193 -212 q 218 -181 204 -194 q 310 -90 254 -136 q 429 -11 365 -44 q 239 58 325 1 q 102 210 153 115 q 51 431 51 306 q 102 675 51 565 q 248 849 153 785 q 478 914 343 914 q 704 860 603 914 q 865 703 806 806 q 925 457 925 601 m 460 864 q 328 822 392 864 q 225 690 265 781 q 185 454 185 600 q 232 228 185 321 q 354 85 279 135 q 514 36 429 36 q 656 83 593 36 q 756 218 719 129 q 792 431 792 307 q 747 667 792 571 q 626 814 701 764 q 460 864 551 864 z "},"R":{"ha":843,"x_min":17,"x_max":818,"o":"m 263 169 q 272 86 263 113 q 308 53 282 60 q 383 43 335 46 q 389 19 389 38 q 383 -3 389 3 q 291 -1 338 -1 q 204 0 244 0 q 117 -1 164 0 q 24 -3 71 -1 q 17 19 17 4 q 24 43 17 36 q 99 53 72 46 q 135 86 125 60 q 144 169 144 113 l 144 726 q 135 810 144 785 q 99 844 125 836 q 24 853 72 851 q 17 875 17 860 q 24 899 17 892 q 119 897 72 897 q 203 896 167 896 q 284 901 240 896 q 376 906 328 906 q 504 896 442 906 q 617 839 567 886 q 690 665 690 769 q 670 569 690 611 q 620 499 650 528 q 559 453 590 471 q 506 428 528 435 l 681 136 q 738 60 708 92 q 814 29 767 29 q 818 10 818 21 q 818 3 818 7 q 815 -4 818 -1 q 789 -12 806 -10 q 757 -14 772 -14 q 649 24 694 -14 q 574 110 604 61 l 425 351 q 400 380 415 368 q 353 398 385 392 q 263 404 321 404 l 263 169 m 378 858 q 304 844 329 858 q 271 810 279 831 q 263 769 263 790 l 263 451 l 329 451 q 449 468 397 451 q 532 531 501 485 q 563 664 563 578 q 534 788 563 746 q 463 844 506 829 q 378 858 421 858 z "},"S":{"ha":654,"x_min":38,"x_max":617,"o":"m 544 879 q 563 785 556 824 q 572 697 569 747 q 542 688 561 688 q 528 689 532 688 q 492 775 514 735 q 430 841 469 815 q 322 867 390 867 q 247 844 282 867 q 190 785 211 821 q 169 711 169 750 q 192 635 169 668 q 249 579 214 603 q 323 539 285 556 q 392 511 361 522 q 500 458 449 490 q 584 378 551 426 q 617 256 617 329 q 582 129 617 189 q 486 32 547 69 q 315 -14 414 -14 q 215 -6 254 -14 q 142 10 175 1 q 65 18 110 18 q 52 80 57 53 q 44 142 47 107 q 38 229 40 176 q 64 236 51 236 q 74 235 69 236 q 83 233 78 235 q 168 83 107 129 q 326 36 229 36 q 455 79 410 36 q 500 207 500 122 q 471 315 500 275 q 399 376 442 354 q 314 414 356 399 q 197 470 253 438 q 106 552 142 503 q 71 674 71 601 q 108 801 71 747 q 205 885 144 856 q 335 914 265 914 q 415 910 386 914 q 460 901 443 907 q 496 889 478 894 q 544 879 514 883 z "},"T":{"ha":826,"x_min":4,"x_max":821,"o":"m 489 172 q 499 88 489 114 q 537 53 508 61 q 621 43 565 46 q 628 19 628 36 q 621 0 628 7 l 428 0 q 335 -1 386 0 q 233 -3 285 -1 q 228 19 228 3 q 233 43 228 38 q 318 53 289 46 q 358 86 347 60 q 368 169 368 113 l 368 704 q 355 805 368 768 q 303 842 342 842 l 235 842 q 119 810 167 842 q 51 694 72 778 q 27 696 39 694 q 4 701 15 697 q 25 803 15 751 q 39 903 35 856 q 44 907 39 907 q 127 903 71 906 q 249 898 183 900 q 368 896 315 896 l 488 896 q 606 898 543 896 q 722 903 669 900 q 799 907 775 906 q 803 903 803 907 q 809 805 804 856 q 821 706 814 754 q 798 700 811 701 q 774 699 785 699 q 707 810 756 779 q 581 842 658 842 l 550 842 q 499 804 513 842 q 486 700 486 767 l 489 172 z "},"Þ":{"ha":747,"x_min":17,"x_max":704,"o":"m 144 726 q 122 992 144 969 q 24 1013 101 1013 q 17 1036 17 1019 q 24 1058 17 1051 q 106 1067 61 1067 q 217 1046 165 1067 q 250 990 250 1033 q 244 954 250 971 l 244 949 q 393 906 244 906 q 544 883 478 906 q 646 819 611 861 q 704 675 704 751 q 636 489 704 574 q 533 419 601 446 q 386 392 464 392 q 263 406 304 392 l 263 169 q 289 -76 263 -54 q 404 -99 315 -99 q 411 -119 411 -106 q 404 -142 411 -135 l 24 -142 q 17 -122 17 -135 q 24 -99 17 -106 q 122 -78 101 -99 q 144 169 144 -56 l 144 726 m 379 439 q 527 494 479 439 q 575 656 575 550 q 522 814 575 772 q 383 858 472 858 q 263 769 263 858 l 263 446 q 304 441 275 443 q 379 439 333 439 z "},"U":{"ha":919,"x_min":8,"x_max":911,"o":"m 239 726 l 239 369 q 242 277 239 325 q 261 185 246 229 q 310 108 276 142 q 383 60 342 78 q 475 43 425 43 q 614 74 563 43 q 690 156 665 106 q 723 266 715 206 q 731 385 731 326 l 731 726 q 720 808 731 783 q 683 840 710 832 q 603 853 656 849 q 597 875 597 858 q 603 899 597 893 l 906 899 q 911 875 911 893 q 906 853 911 858 q 841 840 864 849 q 808 807 818 832 q 799 726 799 782 l 799 410 q 783 240 799 317 q 729 106 768 163 q 622 17 690 49 q 446 -14 553 -14 q 335 -1 392 -14 q 229 49 278 13 q 151 151 181 85 q 121 324 121 218 l 121 726 q 112 810 121 785 q 79 844 103 836 q 14 853 56 851 q 8 875 8 858 q 14 899 8 893 q 97 897 54 897 q 179 896 139 896 q 269 897 219 896 q 367 899 318 897 q 372 875 372 893 q 367 853 372 858 q 286 844 314 851 q 249 810 258 836 q 239 726 239 785 z "},"Ú":{"ha":1021,"x_min":44,"x_max":996,"o":"m 726 1050 l 724 1038 l 461 950 l 443 986 l 665 1132 q 701 1099 678 1129 q 726 1050 724 1068 m 996 903 l 996 863 q 907 840 933 858 q 875 781 879 822 q 867 561 867 703 l 867 440 q 763 78 867 188 q 513 -19 669 -19 q 286 47 375 -19 q 165 378 165 142 l 165 721 q 147 835 165 813 q 44 863 128 856 l 44 903 l 415 903 l 415 863 q 315 836 333 857 q 296 721 296 814 l 296 408 q 361 150 296 240 q 550 60 425 60 q 807 450 807 60 l 807 561 q 796 785 807 715 q 763 842 790 825 q 663 863 735 857 l 663 903 l 996 903 z "},"Û":{"ha":1021,"x_min":44,"x_max":996,"o":"m 722 985 l 700 950 q 529 1036 642 974 q 360 950 413 972 l 338 985 q 514 1138 463 1083 l 546 1138 q 722 985 597 1083 m 996 903 l 996 863 q 907 840 933 858 q 875 781 879 822 q 867 561 867 703 l 867 440 q 763 78 867 188 q 513 -19 669 -19 q 286 47 375 -19 q 165 378 165 142 l 165 721 q 147 835 165 813 q 44 863 128 856 l 44 903 l 415 903 l 415 863 q 315 836 333 857 q 296 721 296 814 l 296 408 q 361 150 296 240 q 550 60 425 60 q 807 450 807 60 l 807 561 q 796 785 807 715 q 763 842 790 825 q 663 863 735 857 l 663 903 l 996 903 z "},"Ü":{"ha":1021,"x_min":44,"x_max":994,"o":"m 658 1113 l 661 1111 q 711 1090 690 1111 q 731 1038 731 1068 q 710 988 731 1008 q 660 967 689 967 q 610 989 631 967 q 589 1038 589 1010 q 610 1090 589 1068 q 658 1113 629 1111 m 392 1111 q 442 1090 421 1111 q 461 1038 461 1068 q 442 988 461 1008 q 390 967 421 967 q 340 988 361 967 q 319 1038 319 1008 q 340 1090 319 1068 q 392 1111 361 1111 m 994 903 l 994 863 q 907 840 933 858 q 875 781 879 822 q 867 561 867 703 l 867 440 q 763 78 867 188 q 511 -19 669 -19 q 286 47 375 -19 q 165 378 165 142 l 165 721 q 147 835 165 813 q 44 863 128 856 l 44 903 l 414 903 l 414 863 q 314 836 332 857 q 296 721 296 814 l 296 408 q 361 150 296 240 q 550 60 425 60 q 807 450 807 60 l 807 561 q 796 785 807 715 q 763 842 790 825 q 663 863 735 857 l 663 903 l 994 903 z "},"Ù":{"ha":1021,"x_min":44,"x_max":996,"o":"m 613 986 l 594 950 l 331 1038 l 328 1049 q 354 1099 332 1067 q 390 1135 376 1129 l 613 986 m 996 903 l 996 863 q 907 840 933 858 q 875 781 879 822 q 867 561 867 703 l 867 440 q 763 78 867 188 q 513 -19 669 -19 q 286 47 375 -19 q 165 378 165 142 l 165 721 q 147 835 165 813 q 44 863 128 856 l 44 903 l 415 903 l 415 863 q 315 836 333 857 q 296 721 296 814 l 296 408 q 361 150 296 240 q 550 60 425 60 q 807 450 807 60 l 807 561 q 796 785 807 715 q 763 842 790 825 q 663 863 735 857 l 663 903 l 996 903 z "},"V":{"ha":908,"x_min":0,"x_max":903,"o":"m 622 853 q 617 875 617 858 q 622 899 617 893 q 708 897 665 897 q 774 896 750 896 q 831 897 797 896 q 896 899 865 897 q 903 875 903 892 q 896 853 903 860 q 828 830 853 849 q 788 784 803 811 q 760 724 774 757 l 472 15 q 439 -17 458 -17 q 407 15 419 -17 l 133 726 q 101 801 115 775 q 67 838 88 826 q 8 853 47 850 q 0 878 0 861 q 7 899 0 892 q 78 897 42 897 q 151 896 114 896 q 233 897 189 896 q 319 899 278 897 q 325 875 325 893 q 319 853 325 858 q 252 838 272 847 q 232 806 232 829 q 237 778 232 794 q 249 742 242 763 l 469 176 l 476 176 l 696 733 q 708 769 703 753 q 713 799 713 785 q 692 836 713 822 q 622 853 672 850 z "},"W":{"ha":1328,"x_min":0,"x_max":1314,"o":"m 1125 785 q 1129 808 1129 797 q 1099 843 1129 836 q 1033 853 1069 850 q 1028 875 1028 858 q 1033 899 1028 893 q 1117 897 1075 897 q 1186 896 1160 896 q 1245 897 1214 896 q 1307 899 1276 897 q 1314 875 1314 892 q 1307 853 1314 860 q 1226 827 1250 850 q 1188 768 1201 804 l 908 19 q 895 -6 903 4 q 876 -17 888 -17 q 858 -7 864 -17 q 844 21 851 3 l 685 482 q 665 521 671 521 q 656 514 660 521 q 642 486 651 507 l 435 21 q 420 -7 428 3 q 399 -17 413 -17 q 381 -6 388 -17 q 368 21 374 4 l 107 772 q 83 826 94 810 q 56 847 72 842 q 8 853 40 851 q 0 875 0 861 q 8 899 0 890 q 70 897 39 897 q 138 896 101 896 q 221 897 178 896 q 299 899 264 897 q 306 875 306 892 q 299 853 306 860 q 247 845 268 851 q 225 815 225 839 q 229 794 225 807 l 432 181 l 439 179 l 618 586 q 631 635 631 617 q 628 655 631 644 q 621 678 625 665 l 589 769 q 553 824 579 797 q 472 853 528 850 q 467 875 467 858 q 472 899 467 893 q 541 897 506 897 q 611 896 576 896 q 697 897 653 896 q 785 899 742 897 q 792 875 792 892 q 785 853 792 860 q 731 844 756 851 q 706 804 706 836 q 713 769 706 793 l 903 183 l 908 182 l 1125 785 z "},"X":{"ha":896,"x_min":3,"x_max":894,"o":"m 747 142 q 797 81 776 101 q 838 53 818 61 q 888 43 858 46 q 894 18 894 36 q 889 -3 894 3 q 823 -1 858 -1 q 747 0 788 0 q 667 -1 706 0 q 589 -3 628 -1 q 583 19 583 3 q 589 43 583 38 q 650 65 650 47 q 642 87 650 74 q 622 118 635 100 l 450 363 q 431 378 439 378 q 410 358 425 378 l 226 101 q 211 69 211 79 q 230 51 211 56 q 281 43 249 46 q 286 19 286 38 q 281 -3 286 3 q 199 -1 239 -1 q 135 0 158 0 q 76 -1 111 0 q 10 -3 42 -1 q 3 19 3 4 q 10 43 3 36 q 93 65 57 47 q 164 129 129 82 l 369 404 q 383 436 383 422 q 378 456 383 447 q 364 478 372 465 l 167 760 q 117 820 138 801 q 75 845 96 839 q 25 853 54 851 q 18 878 18 860 q 24 899 18 893 q 90 897 56 897 q 165 896 125 896 q 246 897 207 896 q 324 899 285 897 q 331 875 331 892 q 324 853 331 860 q 263 831 263 849 q 292 778 263 815 l 444 550 q 461 535 456 535 q 483 551 472 535 l 654 794 q 668 826 668 814 q 650 847 668 842 q 600 853 632 851 q 594 875 594 858 q 600 899 594 893 q 682 897 642 897 q 746 896 722 896 q 805 897 769 896 q 871 899 840 897 q 878 875 878 892 q 871 853 878 860 q 788 831 824 849 q 717 767 753 814 l 526 521 q 515 499 517 508 q 513 479 513 489 q 519 458 513 469 q 535 433 525 447 l 747 142 z "},"Y":{"ha":801,"x_min":0,"x_max":797,"o":"m 468 169 q 478 86 468 113 q 518 53 489 60 q 603 43 547 46 q 608 19 608 38 q 603 -3 608 3 q 501 -1 551 -1 q 410 0 450 0 q 318 -1 369 0 q 215 -3 267 -1 q 208 19 208 4 q 215 43 208 36 q 300 53 271 46 q 340 86 329 60 q 350 169 350 113 l 350 346 q 344 403 350 385 q 321 453 339 422 l 139 760 q 97 819 115 800 q 58 844 78 838 q 8 853 38 851 q 0 878 0 861 q 7 899 0 892 q 74 897 39 897 q 149 896 108 896 q 230 897 190 896 q 307 899 269 897 q 314 875 314 892 q 307 853 314 860 q 254 846 271 851 q 238 825 238 840 q 257 776 238 811 l 418 492 q 435 474 429 474 q 449 489 440 474 l 603 779 q 615 819 615 804 q 598 844 615 838 q 549 853 581 851 q 542 875 542 860 q 549 899 542 892 q 617 897 582 897 q 675 896 651 896 q 730 897 699 896 q 790 899 761 897 q 797 875 797 892 q 790 853 797 860 q 715 833 743 849 q 658 764 688 817 l 492 464 q 472 412 475 433 q 468 358 468 390 l 468 169 z "},"Ý":{"ha":886,"x_min":22,"x_max":868,"o":"m 663 1050 l 660 1038 l 399 950 l 381 985 l 601 1132 q 638 1099 614 1129 q 663 1050 660 1068 m 868 903 l 868 863 q 771 835 799 854 q 703 751 743 815 q 529 453 614 611 q 507 364 507 408 l 507 176 q 529 68 507 88 q 644 40 550 47 l 644 0 l 242 0 l 242 40 q 356 68 335 47 q 376 176 376 89 l 376 356 q 350 438 376 389 l 175 744 q 108 838 133 817 q 22 863 83 857 l 22 903 l 365 903 l 365 863 q 285 838 296 854 q 281 825 281 832 q 296 786 281 810 q 478 461 297 785 q 639 772 597 678 q 654 822 654 804 q 650 839 654 832 q 558 863 636 854 l 558 903 l 868 903 z "},"Z":{"ha":819,"x_min":57,"x_max":803,"o":"m 765 0 l 83 0 q 57 21 57 0 q 68 53 57 38 q 165 195 111 117 q 280 359 219 274 q 401 527 340 444 q 515 681 461 610 q 608 804 568 753 q 619 829 619 819 q 606 842 619 842 l 313 836 q 192 798 235 835 q 126 689 149 761 q 106 691 115 689 q 85 696 96 693 q 102 795 93 739 q 115 907 111 851 q 188 903 142 906 q 285 898 235 900 q 367 896 335 896 l 674 896 q 734 897 706 896 q 775 899 763 899 q 793 883 793 899 q 788 860 793 872 q 760 821 782 849 q 653 679 711 757 q 535 519 594 601 q 419 357 475 436 q 316 211 363 278 q 239 100 269 144 q 228 72 228 81 q 260 53 228 53 l 263 53 l 531 58 q 649 83 607 60 q 715 147 690 107 q 760 236 739 188 q 785 234 774 236 q 803 229 796 232 q 781 117 790 175 q 765 0 771 58 z "},"a":{"ha":644,"x_min":33,"x_max":617,"o":"m 164 521 q 169 493 164 499 q 175 468 175 488 q 158 438 175 454 q 108 421 140 421 q 61 471 61 421 q 94 546 61 511 q 180 603 128 581 q 289 625 232 625 q 389 608 340 625 q 469 540 438 590 q 500 390 500 489 l 500 186 q 506 103 500 139 q 542 68 511 68 q 569 76 554 68 q 592 90 585 85 q 610 74 604 83 q 617 53 615 65 q 559 17 594 32 q 483 1 524 1 q 415 26 432 1 q 392 82 399 50 l 389 82 l 361 60 q 280 13 315 25 q 208 1 244 1 q 85 34 136 1 q 33 151 33 67 q 99 275 33 222 q 264 353 164 328 l 383 382 q 389 388 386 383 q 392 399 392 392 q 373 516 392 478 q 328 567 354 554 q 278 579 301 579 q 201 567 239 579 q 164 521 164 554 m 392 339 l 281 310 q 177 247 204 290 q 150 157 150 204 q 174 92 150 125 q 250 58 199 58 q 313 78 279 58 q 372 119 346 97 q 386 134 381 126 q 392 156 392 142 l 392 339 z "},"á":{"ha":617,"x_min":51,"x_max":608,"o":"m 285 683 l 247 703 q 278 778 258 728 q 315 872 297 826 l 336 924 q 396 935 347 929 q 443 939 426 939 q 456 938 451 939 l 461 924 l 285 683 m 608 56 l 485 -17 q 417 11 444 -17 q 382 71 393 35 q 360 56 378 68 q 333 38 340 42 q 310 21 325 32 q 285 6 293 10 q 263 -4 275 1 q 240 -14 250 -11 q 222 -17 231 -17 q 100 36 149 -17 q 51 154 51 88 q 163 290 51 251 q 379 382 346 354 l 379 408 q 350 522 379 481 q 268 563 319 563 q 208 536 231 563 q 168 443 185 508 q 124 408 158 408 q 81 428 101 408 q 58 469 58 446 q 104 528 58 494 q 201 585 140 554 q 315 625 263 614 q 433 588 386 625 q 497 414 497 535 l 497 161 q 546 79 497 79 q 594 93 571 79 l 608 56 m 379 115 l 379 333 q 346 317 367 326 q 297 294 324 306 q 263 278 271 282 q 201 235 221 257 q 182 176 182 213 q 213 99 182 126 q 278 71 242 71 q 379 115 332 71 z "},"â":{"ha":617,"x_min":51,"x_max":608,"o":"m 453 706 l 418 681 q 293 814 369 724 q 168 681 217 724 l 133 706 q 275 935 207 808 l 313 935 q 453 706 376 813 m 608 56 l 485 -17 q 417 11 444 -17 q 382 71 393 35 q 360 56 378 68 q 333 38 340 42 q 310 21 325 32 q 285 6 293 10 q 263 -4 275 1 q 240 -14 250 -11 q 222 -17 231 -17 q 100 36 149 -17 q 51 154 51 88 q 163 290 51 251 q 379 382 346 354 l 379 408 q 350 522 379 481 q 268 563 319 563 q 208 536 231 563 q 168 443 185 508 q 124 408 158 408 q 81 428 101 408 q 58 469 58 446 q 104 528 58 494 q 201 585 140 554 q 315 625 263 614 q 433 588 386 625 q 497 414 497 535 l 497 161 q 546 79 497 79 q 594 93 571 79 l 608 56 m 379 115 l 379 333 q 346 317 367 326 q 297 294 324 306 q 263 278 271 282 q 201 235 221 257 q 182 176 182 213 q 213 99 182 126 q 278 71 242 71 q 379 115 332 71 z "},"´":{"ha":267,"x_min":0,"x_max":267,"o":"m 7 717 q 1 724 1 717 q 1 726 1 725 q 1 729 0 728 l 165 1025 l 257 1025 q 267 1015 267 1025 q 265 1011 267 1013 l 53 717 l 7 717 z "},"́":{"ha":1,"x_min":-354,"x_max":-99,"o":"m -290 742 q -326 721 -303 721 q -336 722 -332 721 q -350 734 -346 725 q -354 754 -354 743 q -351 771 -354 764 l -231 1043 q -200 1063 -221 1063 l -121 1063 q -106 1054 -112 1063 q -103 1039 -99 1046 l -290 742 z "},"ä":{"ha":617,"x_min":53,"x_max":610,"o":"m 172 742 q 124 764 144 742 q 101 814 101 785 q 124 865 101 844 q 174 886 144 886 q 224 865 203 886 q 244 814 244 844 q 224 764 244 785 q 172 742 203 742 m 415 742 q 367 764 388 742 q 344 814 344 785 q 367 865 344 844 q 417 886 388 886 q 467 865 446 886 q 486 814 486 844 q 465 764 486 785 q 415 742 444 742 m 610 56 l 486 -17 q 417 11 444 -17 q 383 71 396 32 q 222 -17 257 -17 q 101 35 149 -17 q 53 154 53 86 q 164 290 53 251 q 381 382 350 357 l 381 408 q 350 522 381 482 q 268 563 319 563 q 208 536 232 563 q 168 443 185 508 q 125 408 158 408 q 82 428 103 408 q 60 469 60 446 q 104 528 60 494 q 317 625 211 603 q 435 588 386 625 q 499 414 499 535 l 499 161 q 546 79 499 79 q 596 93 572 79 l 610 56 m 381 115 l 381 333 q 347 317 368 326 q 299 294 325 306 q 264 278 272 282 q 201 235 221 257 q 182 176 182 213 q 213 99 182 126 q 279 71 243 71 q 381 115 333 71 z "},"æ":{"ha":932,"x_min":53,"x_max":900,"o":"m 392 383 l 392 417 q 358 522 392 481 q 275 563 324 563 q 211 532 235 563 q 174 443 192 510 q 132 407 164 407 q 89 426 113 407 q 64 467 64 446 q 108 528 64 496 q 322 625 214 600 q 426 594 385 625 q 482 524 465 569 q 683 625 572 622 q 836 561 772 625 q 900 413 899 496 q 893 379 900 389 q 867 364 886 368 q 503 340 817 350 q 503 335 503 338 q 564 149 503 213 q 715 82 626 82 q 868 150 794 82 l 893 119 q 774 15 839 46 q 663 -17 708 -17 q 439 106 513 -17 l 392 68 q 224 -17 278 -17 q 101 35 149 -17 q 53 151 53 86 q 161 290 53 250 q 392 383 354 357 m 650 572 q 561 526 601 572 q 511 397 519 479 l 740 401 q 771 433 771 401 q 739 532 771 490 q 650 572 706 572 m 283 75 q 418 147 363 75 q 390 333 390 206 q 357 318 378 328 q 307 297 335 308 q 263 278 279 285 q 201 239 219 260 q 182 181 182 217 q 213 103 182 131 q 283 75 243 75 z "},"А":{"ha":724,"x_min":28,"x_max":694,"o":"m 310 332 q 278 251 310 281 q 203 219 246 222 l 203 167 q 224 110 203 140 q 285 58 244 81 q 300 25 300 49 q 295 8 300 15 q 278 0 290 0 l 50 0 q 33 8 39 0 q 28 24 28 15 q 43 56 28 46 q 126 167 126 110 l 126 233 q 73 274 93 247 q 53 333 53 300 q 72 397 53 372 q 118 436 90 422 q 108 481 108 453 q 120 538 108 508 q 156 582 132 567 q 213 621 190 606 q 256 651 235 636 q 306 690 276 667 q 390 768 357 732 q 454 867 424 804 l 454 883 l 379 883 l 379 939 l 694 939 l 694 883 l 619 883 l 619 56 l 694 56 l 694 0 l 379 0 l 379 56 l 454 56 l 454 621 q 427 575 442 599 q 397 532 413 551 q 283 431 349 471 q 273 425 278 428 q 261 419 268 422 q 310 332 310 386 m 368 594 q 406 650 389 622 q 438 708 424 678 q 403 670 422 689 q 358 628 383 651 q 299 577 333 606 q 242 531 265 549 q 218 501 218 514 q 236 489 218 489 q 257 493 249 489 q 315 537 282 506 q 368 594 349 568 z "},"Б":{"ha":760,"x_min":31,"x_max":729,"o":"m 335 883 l 269 883 l 269 608 q 344 579 301 596 q 427 546 386 563 q 494 519 468 529 q 521 508 521 508 q 631 489 571 489 l 701 489 l 701 433 l 668 433 l 668 56 l 729 56 l 729 0 l 31 0 l 31 56 l 106 56 l 106 883 l 31 883 l 31 939 l 582 939 q 611 918 611 939 q 590 888 611 899 q 564 851 581 883 q 532 776 547 819 q 511 696 517 733 q 493 683 510 683 q 472 697 475 683 q 452 778 465 744 q 407 854 439 811 q 377 875 397 867 q 335 883 357 883 m 500 456 q 477 465 500 456 q 418 490 454 475 q 342 520 382 504 q 269 549 303 536 l 269 56 l 504 56 l 504 454 q 500 456 501 454 z "},"В":{"ha":749,"x_min":31,"x_max":714,"o":"m 688 383 l 653 383 l 653 56 l 714 56 l 714 0 l 31 0 l 31 56 l 106 56 l 106 704 q 147 826 106 771 q 253 913 188 881 q 392 944 319 944 q 585 886 528 944 q 643 733 643 828 q 631 652 643 690 q 587 590 619 614 q 492 567 554 567 q 422 579 451 567 q 378 608 392 592 l 306 486 q 368 472 338 478 q 433 460 399 465 q 551 444 494 449 q 688 439 607 439 l 688 383 m 504 724 q 478 836 504 789 q 392 883 453 883 q 302 846 335 883 q 269 744 269 808 l 269 535 l 349 668 q 372 682 357 682 q 399 667 389 682 q 419 642 408 653 q 449 631 431 631 q 494 660 485 631 q 504 724 504 690 m 489 394 q 378 413 431 401 q 276 438 325 424 l 269 425 l 269 56 l 489 56 l 489 394 z "},"Г":{"ha":681,"x_min":31,"x_max":661,"o":"m 422 883 l 269 883 l 269 56 l 344 56 l 344 0 l 31 0 l 31 56 l 106 56 l 106 883 l 31 883 l 31 939 l 644 939 q 661 919 661 939 q 646 890 661 899 q 633 874 638 886 q 626 854 629 861 q 613 787 618 824 q 606 718 608 750 q 590 706 604 706 q 569 718 575 706 q 525 794 549 763 q 471 861 501 826 q 450 877 463 871 q 422 883 438 883 z "},"Д":{"ha":792,"x_min":22,"x_max":772,"o":"m 490 676 q 456 629 481 649 q 399 610 431 610 q 332 638 360 610 q 304 704 304 665 q 332 771 304 743 q 399 799 360 799 q 417 797 408 799 q 436 792 426 796 q 474 770 454 783 q 511 740 494 757 l 511 883 l 436 883 l 436 939 l 750 939 l 750 883 l 675 883 l 675 56 l 742 56 q 765 46 758 56 q 772 24 772 36 q 763 -7 772 7 q 731 -75 736 -42 q 726 -138 726 -108 q 715 -194 726 -168 q 694 -210 708 -210 q 672 -193 676 -210 q 658 -139 665 -171 q 643 -75 651 -107 q 622 -22 635 -43 q 593 0 610 0 l 207 0 q 179 -22 190 0 q 162 -75 168 -43 q 150 -139 156 -107 q 138 -193 144 -171 q 115 -210 133 -210 q 94 -194 101 -210 q 81 -137 83 -168 q 69 -74 78 -107 q 33 -7 61 -42 q 22 24 22 7 q 30 46 22 36 q 54 56 38 56 l 153 56 q 148 92 150 72 q 146 132 146 111 q 181 290 146 222 q 272 413 215 358 q 394 521 329 468 q 461 579 431 550 q 493 651 492 608 q 492 665 493 658 q 490 676 492 671 m 297 56 l 511 56 l 511 546 q 476 510 496 528 q 438 474 457 493 q 328 326 368 406 q 288 139 288 246 q 297 56 288 90 z "},"Е":{"ha":750,"x_min":56,"x_max":713,"o":"m 135 256 q 92 353 110 308 q 65 444 75 397 q 56 551 56 490 q 97 749 56 658 q 215 895 139 840 q 394 950 290 950 q 555 918 492 950 q 649 838 618 886 q 679 738 679 789 l 713 738 l 713 682 l 481 682 l 481 738 l 528 738 q 517 805 528 768 q 478 869 507 842 q 393 896 449 896 q 306 869 342 896 q 250 799 271 843 q 220 702 229 754 q 211 597 211 650 q 217 526 211 558 q 233 463 224 493 q 325 568 268 529 q 458 607 382 607 q 631 538 578 607 q 685 367 685 469 l 525 367 q 525 372 525 369 q 499 484 525 435 q 413 533 472 533 q 351 510 381 533 q 298 451 322 488 q 257 376 274 415 q 281 226 275 300 q 286 94 286 151 l 286 63 q 401 90 350 63 q 483 160 451 118 q 519 243 514 203 l 678 243 q 547 64 661 131 q 208 -3 432 -3 q 208 3 208 0 q 186 135 208 76 q 135 256 164 194 z "},"Ж":{"ha":1147,"x_min":31,"x_max":1117,"o":"m 125 722 q 106 728 115 721 q 97 746 97 736 q 97 771 97 760 q 91 836 97 806 q 68 897 85 867 q 67 906 67 900 q 74 924 67 914 q 92 936 82 935 q 126 939 108 939 q 208 926 169 939 q 275 894 247 913 q 374 775 332 857 q 403 718 388 750 q 433 658 418 686 q 460 617 449 631 q 475 601 467 608 q 492 588 483 593 l 492 883 l 417 883 l 417 939 l 731 939 l 731 883 l 656 883 l 656 588 q 672 601 664 593 q 688 617 681 608 q 715 658 700 631 q 745 718 729 686 q 774 775 761 750 q 872 894 815 857 q 939 926 900 913 q 1021 939 978 939 q 1056 936 1039 939 q 1073 924 1065 935 q 1081 906 1081 914 q 1079 897 1081 900 q 1056 836 1063 867 q 1050 771 1050 806 q 1050 746 1050 760 q 1042 728 1050 736 q 1022 722 1033 721 q 951 749 975 733 q 893 792 928 765 q 865 794 878 803 q 849 783 854 788 q 838 771 843 779 q 818 742 832 763 q 787 685 803 717 q 757 624 771 653 q 731 581 743 596 q 706 556 719 567 q 841 478 779 532 q 948 352 903 424 q 1017 203 993 281 q 1042 56 1042 126 l 1117 56 l 1117 0 l 786 0 l 786 56 l 861 56 q 847 203 861 126 q 805 347 832 279 q 740 460 778 414 q 656 518 703 507 l 656 56 l 731 56 l 731 0 l 417 0 l 417 56 l 492 56 l 492 518 q 406 460 444 507 q 342 347 368 414 q 301 203 315 279 q 286 56 286 126 l 361 56 l 361 0 l 31 0 l 31 56 l 106 56 q 130 203 106 126 q 199 352 154 281 q 305 478 243 424 q 440 556 367 532 q 428 568 435 563 q 417 581 422 574 q 391 624 406 596 q 361 685 376 653 q 329 742 346 717 q 310 771 317 763 q 299 783 304 779 q 282 794 294 788 q 254 792 271 803 q 196 749 219 765 q 125 722 172 733 z "},"З":{"ha":926,"x_min":47,"x_max":875,"o":"m 239 471 q 277 522 254 496 q 324 572 300 549 q 364 604 349 594 q 379 608 372 610 q 396 604 386 607 q 465 581 422 599 q 546 544 508 563 q 583 556 564 551 q 619 561 603 560 q 660 618 639 585 q 689 669 681 651 q 698 703 696 685 q 700 738 700 721 q 670 825 700 789 q 592 880 640 861 q 486 899 543 899 q 391 881 433 899 q 313 836 349 863 q 307 831 311 835 q 301 824 303 826 q 279 763 290 800 q 260 689 268 725 q 222 686 243 688 q 178 685 200 685 q 85 689 126 685 q 111 784 97 740 q 158 869 125 828 q 172 883 163 875 q 190 896 182 892 q 317 938 247 922 q 472 953 388 953 q 593 945 531 953 q 710 917 656 938 q 799 860 765 897 q 832 767 832 824 q 821 703 832 739 q 792 640 810 668 q 762 597 781 622 q 725 549 743 572 q 694 511 707 525 q 756 458 714 497 q 835 371 797 419 q 865 311 854 344 q 875 242 875 278 q 806 47 875 108 q 599 -14 738 -14 q 503 -9 544 -14 q 410 10 461 -4 q 320 31 364 22 q 219 40 276 40 q 158 29 183 40 q 104 -4 132 18 q 89 -10 99 -10 q 61 1 75 -10 q 47 25 47 13 q 66 88 47 57 q 106 144 85 118 q 117 154 111 153 q 210 178 163 168 q 297 189 257 189 q 308 189 303 189 q 317 187 314 189 q 324 182 319 185 q 381 139 357 163 q 427 93 404 115 q 480 56 450 71 q 554 42 510 42 q 678 86 643 42 q 714 200 714 131 q 706 260 714 232 q 675 314 699 288 q 616 381 649 344 q 550 440 583 417 q 477 390 515 414 q 406 351 439 367 q 375 351 390 344 q 304 394 340 368 q 239 446 268 419 q 239 471 229 456 z "},"И":{"ha":753,"x_min":31,"x_max":722,"o":"m 344 0 l 31 0 l 31 56 l 106 56 l 106 883 l 31 883 l 31 939 l 344 939 l 344 883 l 269 883 l 269 472 l 483 578 l 483 883 l 408 883 l 408 939 l 722 939 l 722 883 l 647 883 l 647 56 l 722 56 l 722 0 l 408 0 l 408 56 l 483 56 l 483 515 l 269 410 l 269 56 l 344 56 l 344 0 z "},"Й":{"ha":753,"x_min":31,"x_max":722,"o":"m 276 1063 q 265 1129 265 1094 q 278 1199 265 1168 q 356 1306 308 1269 q 374 1306 363 1310 q 383 1296 386 1303 q 366 1253 375 1274 q 346 1200 357 1232 q 340 1167 340 1183 q 358 1115 340 1136 q 410 1093 375 1093 q 476 1119 450 1093 q 521 1179 503 1144 q 546 1237 536 1210 q 567 1285 556 1264 q 583 1289 571 1292 q 597 1279 596 1286 q 599 1254 599 1267 q 581 1150 599 1204 q 501 1036 558 1082 q 383 990 444 990 q 315 1012 342 990 q 276 1063 288 1033 m 344 0 l 31 0 l 31 56 l 106 56 l 106 883 l 31 883 l 31 939 l 344 939 l 344 883 l 269 883 l 269 472 l 483 578 l 483 883 l 408 883 l 408 939 l 722 939 l 722 883 l 647 883 l 647 56 l 722 56 l 722 0 l 408 0 l 408 56 l 483 56 l 483 515 l 269 410 l 269 56 l 344 56 l 344 0 z "},"К":{"ha":772,"x_min":31,"x_max":740,"o":"m 639 319 q 671 208 663 260 q 679 94 679 156 l 679 56 l 740 56 l 740 0 l 442 0 l 442 56 l 503 56 l 503 114 q 497 234 503 176 q 458 357 490 292 q 396 437 433 410 q 301 465 358 464 l 256 465 l 256 56 l 317 56 l 317 0 l 31 0 l 31 56 l 92 56 l 92 883 l 31 883 l 31 939 l 317 939 l 317 883 l 256 883 l 256 519 l 300 519 q 382 553 357 519 q 425 638 407 586 q 453 744 444 690 q 461 838 461 797 l 461 883 l 400 883 l 400 939 l 686 939 l 686 883 l 625 883 l 625 850 q 610 735 625 790 q 558 622 596 679 q 500 552 532 583 q 431 500 468 521 q 552 438 496 482 q 639 319 608 394 z "},"Л":{"ha":746,"x_min":31,"x_max":715,"o":"m 272 56 l 333 56 l 333 0 l 31 0 l 31 56 l 92 56 q 120 221 92 147 q 190 356 149 294 q 244 424 218 396 q 297 478 269 451 q 356 540 325 506 q 430 633 397 588 q 476 735 463 679 l 476 883 l 401 883 l 401 939 l 715 939 l 715 883 l 640 883 l 640 56 l 715 56 l 715 0 l 401 0 l 401 56 l 476 56 l 476 585 q 448 540 464 563 q 417 492 432 518 q 370 406 389 442 q 329 315 351 369 q 297 233 310 269 q 278 157 285 196 q 272 67 272 118 q 272 56 272 61 z "},"М":{"ha":1164,"x_min":31,"x_max":1133,"o":"m 272 56 l 333 56 l 333 0 l 31 0 l 31 56 l 92 56 q 110 198 92 126 q 175 342 128 269 q 238 424 207 390 q 301 486 268 457 q 375 549 335 515 q 442 605 407 576 q 501 657 476 633 l 501 883 l 426 883 l 426 939 l 740 939 l 740 883 l 665 883 l 665 368 l 894 597 l 894 883 l 819 883 l 819 939 l 1133 939 l 1133 883 l 1058 883 l 1058 56 l 1133 56 l 1133 0 l 819 0 l 819 56 l 894 56 l 894 519 l 665 290 l 665 56 l 740 56 l 740 0 l 426 0 l 426 56 l 501 56 l 501 574 q 463 537 483 557 q 422 497 442 517 q 351 413 379 454 q 304 310 324 372 q 277 173 282 238 q 272 56 272 108 z "},"Н":{"ha":753,"x_min":31,"x_max":722,"o":"m 344 0 l 31 0 l 31 56 l 106 56 l 106 883 l 31 883 l 31 939 l 344 939 l 344 883 l 269 883 l 269 550 l 483 444 l 483 883 l 408 883 l 408 939 l 722 939 l 722 883 l 647 883 l 647 56 l 722 56 l 722 0 l 408 0 l 408 56 l 483 56 l 483 382 l 269 488 l 269 56 l 344 56 l 344 0 z "},"О":{"ha":819,"x_min":64,"x_max":764,"o":"m 521 947 q 538 882 526 917 q 572 822 550 847 q 629 756 597 793 q 692 673 661 719 q 744 569 724 626 q 764 442 764 511 q 734 290 764 360 q 655 166 704 221 q 546 72 606 111 q 426 13 486 33 q 317 -7 367 -7 q 297 46 311 19 q 260 99 283 72 q 158 224 203 164 q 89 350 114 283 q 64 497 64 417 q 105 662 64 582 q 213 806 146 742 q 361 909 281 871 q 521 947 442 947 m 360 57 q 471 90 425 57 q 546 178 517 124 q 589 298 575 232 q 603 429 603 364 q 588 565 603 506 q 551 677 574 625 q 501 782 528 729 q 480 831 488 810 q 467 883 472 853 q 338 833 390 883 q 260 699 286 782 q 233 514 233 615 q 245 401 233 450 q 278 305 257 353 q 324 192 299 257 q 360 57 351 118 z "},"П":{"ha":753,"x_min":31,"x_max":722,"o":"m 722 939 l 722 883 l 647 883 l 647 56 l 722 56 l 722 0 l 408 0 l 408 56 l 483 56 l 483 883 l 269 883 l 269 56 l 344 56 l 344 0 l 31 0 l 31 56 l 106 56 l 106 883 l 31 883 l 31 939 l 722 939 z "},"Р":{"ha":786,"x_min":31,"x_max":740,"o":"m 344 56 l 344 0 l 31 0 l 31 56 l 106 56 l 106 676 q 149 816 106 756 q 268 910 193 876 q 439 944 343 944 q 668 882 596 944 q 740 700 740 819 q 698 522 740 590 q 565 454 656 454 q 496 467 522 454 q 455 497 469 479 q 431 526 440 514 l 269 297 l 269 56 l 344 56 m 269 744 l 269 393 l 406 586 q 429 600 414 600 q 456 585 446 600 q 485 546 467 569 q 531 522 503 522 q 582 565 567 522 q 597 672 597 607 l 597 717 q 573 815 597 779 q 512 867 549 851 q 439 883 475 883 q 320 846 371 883 q 269 744 269 808 z "},"С":{"ha":796,"x_min":49,"x_max":753,"o":"m 374 889 q 295 849 332 889 q 235 739 258 808 q 213 579 213 669 q 234 410 213 492 q 272 256 256 329 q 290 154 283 204 q 296 56 296 104 q 424 85 374 56 q 503 162 474 115 q 545 260 533 208 q 557 358 557 313 l 486 358 l 486 414 l 751 414 l 751 358 l 710 358 q 672 216 697 282 q 593 101 646 150 q 451 24 540 51 q 222 -3 363 -3 q 216 64 219 18 q 189 153 213 110 q 139 241 164 201 q 93 319 114 281 q 60 406 72 358 q 49 518 49 453 q 77 676 49 599 q 156 815 106 753 q 270 915 206 878 q 407 951 335 951 q 508 928 460 951 q 594 868 556 906 q 657 788 633 831 q 686 706 681 746 l 753 706 l 753 650 l 472 650 l 472 706 l 528 706 q 501 790 525 747 q 442 860 476 832 q 374 889 407 889 z "},"Т":{"ha":869,"x_min":13,"x_max":865,"o":"m 188 849 q 157 785 175 822 q 131 722 139 747 q 110 710 126 710 q 89 722 93 710 q 60 803 75 771 q 21 878 44 835 q 13 910 13 893 q 18 930 13 921 q 38 939 24 939 l 831 939 q 858 930 850 939 q 865 908 865 921 q 857 882 865 894 q 808 795 829 843 q 774 699 786 747 q 754 685 769 685 q 733 699 738 685 q 708 773 724 736 q 679 850 693 810 q 667 872 675 861 q 646 883 660 883 l 511 883 l 511 56 l 586 56 l 586 0 l 272 0 l 272 56 l 347 56 l 347 883 l 226 883 q 203 873 213 883 q 188 849 194 863 z "},"Ф":{"ha":1011,"x_min":35,"x_max":979,"o":"m 664 0 l 350 0 l 350 56 l 425 56 l 425 183 q 376 156 407 171 q 307 142 346 142 q 178 166 240 142 q 75 250 115 190 q 35 413 35 310 q 61 515 35 471 q 130 594 88 560 q 221 657 172 628 q 314 713 269 686 q 377 753 347 732 q 425 792 407 774 l 425 883 l 364 883 l 364 939 l 650 939 l 650 883 l 589 883 l 589 792 q 637 753 607 774 q 700 713 667 732 q 793 657 744 686 q 884 594 842 628 q 953 515 926 560 q 979 413 979 471 q 939 250 979 310 q 837 166 899 190 q 707 142 775 142 q 637 156 668 142 q 589 183 606 171 l 589 56 l 664 56 l 664 0 m 663 651 q 621 690 640 671 q 589 728 601 710 l 589 239 q 637 212 614 221 q 700 203 660 203 q 784 242 757 203 q 811 379 811 281 q 792 487 811 442 q 740 571 774 532 q 663 651 707 610 m 314 203 q 377 212 354 203 q 425 239 400 221 l 425 728 q 392 690 411 710 q 351 651 372 671 q 274 571 308 610 q 222 487 240 532 q 203 379 203 442 q 231 242 203 281 q 314 203 258 203 z "},"Х":{"ha":725,"x_min":26,"x_max":714,"o":"m 499 761 l 410 575 l 619 56 l 694 56 l 694 0 l 381 0 l 381 56 l 456 56 l 321 388 l 164 56 l 239 56 l 239 0 l 26 0 l 26 56 l 101 56 l 293 458 l 122 883 l 47 883 l 47 939 l 361 939 l 361 883 l 286 883 l 382 646 l 482 856 q 515 898 492 875 q 564 926 539 921 q 628 938 588 933 q 686 944 668 943 q 706 938 697 946 q 711 918 714 929 q 692 830 697 875 q 686 735 686 785 q 678 715 686 722 q 660 714 671 708 q 613 744 632 728 q 563 783 593 761 q 542 790 553 790 q 499 761 514 790 z "},"Ц":{"ha":763,"x_min":31,"x_max":732,"o":"m 586 0 l 31 0 l 31 56 l 111 56 l 111 883 l 36 883 l 36 939 l 350 939 l 350 883 l 275 883 l 275 56 l 489 56 l 489 883 l 414 883 l 414 939 l 728 939 l 728 883 l 653 883 l 653 56 l 732 56 l 732 -174 l 464 -362 l 399 -362 l 169 -240 l 92 -307 q 72 -314 83 -314 q 47 -303 58 -314 q 35 -279 35 -292 q 42 -264 35 -271 l 196 -111 l 286 -111 l 535 -244 l 586 -208 l 586 0 z "},"Ч":{"ha":739,"x_min":31,"x_max":708,"o":"m 317 883 l 256 883 l 256 494 q 297 488 276 492 q 340 479 318 483 q 406 461 375 471 q 469 440 436 451 l 469 883 l 408 883 l 408 939 l 694 939 l 694 883 l 633 883 l 633 56 l 708 56 l 708 0 l 394 0 l 394 56 l 469 56 l 469 379 q 399 405 432 394 q 328 425 367 415 q 215 444 269 439 q 92 449 160 449 l 92 883 l 31 883 l 31 939 l 317 939 l 317 883 z "},"Ш":{"ha":1208,"x_min":31,"x_max":1178,"o":"m 939 56 l 939 883 l 864 883 l 864 939 l 1178 939 l 1178 883 l 1103 883 l 1103 56 l 1178 56 l 1178 0 l 31 0 l 31 56 l 106 56 l 106 883 l 31 883 l 31 939 l 344 939 l 344 883 l 269 883 l 269 56 l 522 56 l 522 883 l 447 883 l 447 939 l 761 939 l 761 883 l 686 883 l 686 56 l 939 56 z "},"Щ":{"ha":1208,"x_min":31,"x_max":1178,"o":"m 686 -42 q 713 -119 686 -78 q 774 -181 739 -161 q 777 -191 778 -182 q 774 -203 776 -200 q 719 -243 751 -217 q 658 -301 688 -269 q 614 -365 629 -333 q 604 -371 613 -371 q 593 -365 596 -371 q 549 -301 578 -333 q 490 -243 521 -269 q 435 -203 458 -217 q 431 -191 432 -200 q 435 -181 431 -182 q 497 -119 471 -161 q 522 -42 522 -78 l 522 0 l 31 0 l 31 56 l 106 56 l 106 883 l 31 883 l 31 939 l 344 939 l 344 883 l 269 883 l 269 56 l 522 56 l 522 883 l 447 883 l 447 939 l 761 939 l 761 883 l 686 883 l 686 56 l 939 56 l 939 883 l 864 883 l 864 939 l 1178 939 l 1178 883 l 1103 883 l 1103 56 l 1178 56 l 1178 0 l 686 0 l 686 -42 z "},"Ъ":{"ha":760,"x_min":42,"x_max":696,"o":"m 56 886 q 46 906 50 894 q 42 926 42 918 q 53 939 42 939 l 656 939 l 656 883 l 594 883 l 407 433 l 601 433 l 601 378 l 557 378 l 696 56 l 696 0 l 72 0 l 72 56 l 415 883 l 271 883 q 210 781 242 843 q 163 657 179 719 q 151 647 161 647 q 139 657 142 647 q 105 782 125 725 q 56 886 85 839 m 517 56 l 382 369 l 251 56 l 517 56 z "},"Ы":{"ha":1089,"x_min":31,"x_max":1058,"o":"m 269 883 l 269 508 q 326 496 297 501 q 386 485 354 490 q 503 469 447 474 q 640 464 560 464 l 640 408 l 606 408 l 606 56 l 667 56 l 667 0 l 31 0 l 31 56 l 106 56 l 106 883 l 31 883 l 31 939 l 344 939 l 344 883 l 269 883 m 1058 0 l 744 0 l 744 56 l 819 56 l 819 883 l 758 883 l 758 939 l 1044 939 l 1044 883 l 983 883 l 983 56 l 1058 56 l 1058 0 m 376 429 q 269 451 318 439 l 269 56 l 442 56 l 442 419 q 409 424 425 422 q 376 429 393 426 z "},"Ь":{"ha":750,"x_min":31,"x_max":719,"o":"m 269 883 l 269 524 q 354 501 317 510 q 439 485 392 492 q 556 469 500 474 q 693 464 613 464 l 693 408 l 658 408 l 658 56 l 719 56 l 719 0 l 31 0 l 31 56 l 106 56 l 106 883 l 31 883 l 31 939 l 344 939 l 344 883 l 269 883 m 429 429 q 347 445 383 438 q 269 465 311 453 l 269 56 l 494 56 l 494 419 q 462 424 478 422 q 429 429 446 426 z "},"Ю":{"ha":1099,"x_min":31,"x_max":1058,"o":"m 344 0 l 31 0 l 31 56 l 106 56 l 106 883 l 31 883 l 31 939 l 344 939 l 344 883 l 269 883 l 269 474 l 404 542 q 450 681 417 613 q 529 805 483 749 q 626 898 575 861 q 722 943 676 935 q 761 888 735 915 q 810 840 788 860 q 872 783 835 819 q 949 702 910 747 q 1017 607 988 657 q 1054 507 1046 557 q 1058 450 1058 479 q 1026 294 1058 368 q 942 158 994 219 q 826 52 889 96 q 703 -12 763 8 q 668 34 693 10 q 617 79 643 58 q 460 257 522 153 q 399 475 399 361 l 269 411 l 269 56 l 344 56 l 344 0 m 914 417 q 888 557 914 494 q 825 672 863 619 q 750 771 788 724 q 717 820 732 793 q 693 874 701 847 q 615 792 646 833 q 568 693 583 751 q 553 542 553 635 q 588 356 553 446 q 679 185 624 267 q 716 126 700 154 q 739 68 732 99 q 865 208 815 114 q 914 417 914 301 z "},"Є":{"ha":750,"x_min":56,"x_max":713,"o":"m 135 256 q 92 353 110 308 q 65 444 75 397 q 56 551 56 490 q 97 749 56 658 q 215 895 139 840 q 394 950 290 950 q 555 918 492 950 q 649 838 618 886 q 679 738 679 789 l 713 738 l 713 682 l 481 682 l 481 738 l 528 738 q 517 805 528 768 q 478 869 507 842 q 393 896 449 896 q 306 869 342 896 q 250 799 271 843 q 220 702 229 754 q 211 597 211 650 q 217 526 211 558 q 233 463 224 493 q 325 568 268 529 q 458 607 382 607 q 631 538 578 607 q 685 367 685 469 l 525 367 q 525 372 525 369 q 499 484 525 435 q 413 533 472 533 q 351 510 381 533 q 298 451 322 488 q 257 376 274 415 q 281 226 275 300 q 286 94 286 151 l 286 63 q 401 90 350 63 q 483 160 451 118 q 519 243 514 203 l 678 243 q 547 64 661 131 q 208 -3 432 -3 q 208 3 208 0 q 186 135 208 76 q 135 256 164 194 z "},"Ѕ":{"ha":778,"x_min":35,"x_max":719,"o":"m 554 601 l 381 439 q 411 446 397 446 q 565 422 494 446 q 677 349 635 399 q 719 218 719 299 q 655 45 719 101 q 494 -11 590 -11 q 354 6 422 -11 q 222 47 286 22 q 207 50 214 50 q 169 24 182 50 q 145 -9 161 6 q 106 -24 129 -24 q 56 -6 76 -24 q 35 44 35 13 q 58 101 35 79 q 114 124 81 124 q 175 116 149 124 q 232 96 201 108 q 309 70 272 81 q 388 60 346 60 q 502 101 465 60 q 539 207 539 142 q 504 342 539 293 q 397 392 469 392 q 317 364 358 392 q 243 311 275 336 l 231 300 q 211 292 222 292 q 191 301 200 292 q 182 321 182 310 q 192 342 182 332 l 400 535 q 365 531 383 532 q 325 531 347 531 q 219 554 269 531 q 137 622 168 578 q 106 726 106 665 q 144 845 106 796 q 246 921 183 894 q 376 947 308 947 q 444 936 411 947 q 504 910 478 925 q 540 883 531 894 l 540 907 q 551 928 540 921 q 576 935 563 935 q 600 928 589 935 q 611 907 611 921 l 611 772 q 601 749 611 757 q 576 742 590 742 q 551 749 563 742 q 540 772 540 757 q 499 858 531 818 q 414 897 467 897 q 306 855 346 897 q 267 736 267 813 q 300 629 267 672 q 393 586 333 586 q 449 597 422 586 q 493 622 475 608 l 515 643 q 535 651 524 651 q 555 642 546 651 q 564 622 564 633 q 554 601 564 611 z "},"І":{"ha":375,"x_min":31,"x_max":344,"o":"m 344 0 l 31 0 l 31 56 l 106 56 l 106 883 l 31 883 l 31 939 l 344 939 l 344 883 l 269 883 l 269 56 l 344 56 l 344 0 z "},"Ї":{"ha":375,"x_min":11,"x_max":344,"o":"m 188 1199 q 190 1211 186 1206 q 200 1217 193 1217 l 264 1217 q 274 1210 269 1217 q 279 1199 278 1204 l 319 1047 q 317 1035 322 1042 q 304 1029 311 1029 l 246 1029 q 235 1035 240 1029 q 228 1047 229 1042 l 188 1199 m 13 1199 q 15 1211 11 1206 q 25 1217 18 1217 l 86 1217 q 97 1210 92 1217 q 104 1199 103 1204 l 144 1047 q 142 1035 147 1042 q 129 1029 136 1029 l 71 1029 q 60 1035 65 1029 q 53 1047 54 1042 l 13 1199 m 344 0 l 31 0 l 31 56 l 106 56 l 106 883 l 31 883 l 31 939 l 344 939 l 344 883 l 269 883 l 269 56 l 344 56 l 344 0 z "},"Ј":{"ha":674,"x_min":36,"x_max":632,"o":"m 403 883 l 329 883 l 329 939 l 632 939 l 632 883 l 563 883 l 563 314 q 560 240 563 272 q 556 186 558 208 q 510 92 547 139 q 404 21 472 42 q 265 0 336 0 q 98 37 160 0 q 36 149 36 74 q 68 238 36 193 q 164 281 99 281 q 230 265 196 281 q 279 222 264 250 q 256 228 267 228 q 231 229 246 229 q 172 204 190 229 q 153 142 153 179 q 185 65 153 99 q 276 32 217 32 q 382 89 358 32 q 403 239 403 146 l 403 883 z "},"а":{"ha":565,"x_min":47,"x_max":504,"o":"m 413 607 q 426 599 422 607 q 431 582 431 592 q 432 510 431 560 q 438 398 433 460 q 450 276 443 336 q 472 149 458 208 q 501 50 485 90 q 504 36 504 44 q 498 12 504 24 q 482 0 492 0 l 379 0 q 363 8 369 0 q 354 24 357 15 q 341 77 349 38 q 325 163 333 117 q 256 76 290 113 q 185 19 222 39 q 149 6 172 13 q 104 0 126 0 q 60 10 76 0 q 50 26 53 14 q 47 51 47 39 q 50 81 47 68 q 76 151 64 125 q 103 201 88 178 q 138 258 118 225 q 185 325 161 299 q 233 393 210 351 q 262 452 251 425 q 279 510 272 479 q 278 549 278 531 q 279 582 278 568 q 285 599 279 590 q 300 607 292 607 l 413 607 m 158 135 q 172 121 158 121 q 210 142 189 121 q 249 185 232 164 q 308 279 288 232 q 301 337 306 304 q 294 379 297 369 q 254 309 275 340 q 206 236 233 278 q 174 183 190 214 q 158 135 158 153 z "},"б":{"ha":614,"x_min":82,"x_max":544,"o":"m 472 617 q 481 617 476 617 q 489 617 485 617 q 511 615 501 617 q 521 603 521 613 q 511 565 521 582 q 480 503 492 531 q 457 440 468 475 q 448 422 454 431 q 435 414 442 414 q 423 424 428 414 q 411 444 418 433 q 378 508 394 476 q 347 558 363 540 l 240 556 q 238 506 239 542 q 235 422 236 471 q 233 322 235 374 q 286 340 256 329 q 346 356 317 351 q 382 342 368 360 q 426 280 407 311 q 468 208 446 249 q 508 137 492 167 q 542 63 524 107 q 544 54 543 58 q 544 46 544 50 q 534 15 544 29 q 507 0 524 0 l 117 0 q 91 15 100 0 q 82 46 82 29 l 97 582 q 106 600 97 593 q 124 607 114 607 l 393 614 q 431 615 407 614 q 472 617 454 617 m 232 269 q 230 172 231 217 q 228 99 229 126 q 228 71 228 71 q 246 56 228 56 l 378 56 q 384 60 382 56 q 385 65 386 64 q 378 81 385 65 q 363 117 372 96 q 343 153 353 138 q 304 213 325 185 q 264 251 283 242 q 232 269 247 263 z "},"в":{"ha":578,"x_min":89,"x_max":532,"o":"m 529 26 q 528 10 532 21 q 511 0 525 0 l 113 0 q 89 22 89 0 l 111 582 q 120 601 113 596 q 136 607 128 607 l 406 607 q 420 599 417 607 q 418 579 424 590 l 294 340 l 390 340 q 414 325 407 340 l 529 26 m 343 551 l 263 551 q 246 535 246 551 l 239 350 l 343 551 m 368 68 l 283 286 l 267 286 l 233 224 l 226 56 l 361 56 q 368 60 365 56 q 368 68 371 64 z "},"г":{"ha":526,"x_min":89,"x_max":482,"o":"m 474 565 q 440 508 451 535 q 418 449 428 481 q 410 429 415 439 q 392 419 406 419 q 374 430 382 419 q 361 451 367 440 q 333 508 346 483 q 306 551 319 533 l 242 551 q 232 546 236 551 q 228 533 228 540 l 228 22 q 224 7 228 14 q 213 0 221 0 l 106 0 q 93 7 97 0 q 89 22 89 14 l 89 581 q 92 598 89 589 q 104 607 96 607 l 463 607 q 480 592 478 607 q 474 565 482 576 z "},"д":{"ha":696,"x_min":42,"x_max":654,"o":"m 444 489 q 458 331 444 414 q 492 176 471 249 q 542 56 514 103 l 633 56 q 649 47 644 56 q 654 28 654 39 q 644 -4 654 10 q 613 -56 625 -31 q 590 -108 600 -82 q 571 -162 579 -139 q 556 -211 563 -185 q 533 -233 549 -233 q 513 -206 515 -233 q 507 -99 506 -144 q 499 0 508 -53 l 181 0 q 165 -104 172 -49 q 158 -200 158 -160 q 151 -222 158 -212 q 136 -231 144 -231 q 114 -208 121 -231 q 102 -162 107 -189 q 90 -108 97 -135 q 72 -60 83 -82 q 50 -14 61 -39 q 42 21 42 6 q 78 56 42 56 l 190 56 q 226 156 203 104 q 274 257 250 207 q 313 351 299 307 q 302 447 306 401 q 296 544 299 492 q 291 559 293 551 q 289 579 289 567 q 296 598 289 589 q 313 606 303 607 q 365 601 343 601 q 394 603 379 601 q 426 607 408 604 q 442 599 435 608 q 450 579 449 590 q 451 559 451 568 q 446 539 450 550 q 444 489 444 515 m 397 56 q 364 139 381 92 q 333 240 347 186 q 290 154 311 208 q 264 56 269 100 l 397 56 z "},"е":{"ha":408,"x_min":69,"x_max":339,"o":"m 318 613 q 332 609 329 614 q 336 596 335 604 q 338 573 338 586 q 339 544 339 560 q 339 524 339 535 q 336 504 339 514 q 333 493 335 496 q 319 489 331 490 q 230 453 265 482 q 194 386 194 425 q 194 385 194 386 l 194 358 q 249 378 222 367 q 306 392 276 390 q 326 386 324 393 q 329 371 328 379 q 331 356 331 365 q 331 335 331 346 q 331 305 331 319 q 329 281 331 290 q 326 263 328 268 q 311 256 324 258 q 251 238 283 250 q 196 211 219 226 q 198 163 197 185 q 200 132 199 142 q 248 149 224 138 q 294 168 272 161 q 304 169 299 169 q 317 144 317 169 l 317 131 q 299 74 317 106 q 234 20 281 43 q 104 -3 188 -3 q 75 18 75 -3 q 77 75 76 49 q 78 126 78 101 q 75 242 78 186 q 69 374 72 297 l 69 385 q 103 506 69 458 q 192 581 136 554 q 318 613 249 607 z "},"ж":{"ha":883,"x_min":54,"x_max":833,"o":"m 524 43 q 521 15 524 29 q 504 0 518 0 l 389 0 q 368 19 374 0 q 363 64 363 38 q 367 125 363 93 q 371 172 371 157 q 372 254 372 215 q 372 332 372 293 q 231 194 292 265 q 203 121 203 161 q 217 69 203 96 q 232 17 232 43 q 213 0 232 0 l 71 0 q 57 6 60 0 q 54 25 54 13 q 60 76 54 49 q 76 122 65 104 q 210 287 133 213 q 372 419 288 361 l 372 428 q 310 485 343 457 q 247 529 276 514 q 234 531 242 532 q 219 531 226 531 q 219 511 219 522 q 222 438 219 479 q 225 367 225 396 q 225 357 225 361 q 210 342 225 342 l 124 342 q 107 349 115 342 q 99 363 99 356 q 99 390 99 376 q 92 477 99 432 q 86 561 86 522 q 103 593 86 579 q 138 607 119 607 l 229 607 q 248 608 239 607 q 263 606 257 608 q 319 569 290 592 q 372 522 347 546 l 376 589 q 381 601 376 596 q 392 607 385 607 l 524 607 q 536 601 531 607 q 542 588 542 594 q 543 553 543 569 q 542 518 543 535 q 585 539 564 529 q 629 558 607 549 q 699 592 668 575 q 767 608 729 608 q 802 601 782 608 q 822 575 822 593 q 818 561 822 569 q 806 535 810 546 q 797 506 801 525 q 794 475 794 493 q 790 442 794 457 q 771 428 786 428 q 765 428 768 428 q 757 429 761 429 q 728 444 744 429 q 699 468 713 460 q 674 478 688 475 q 647 481 660 481 q 614 475 626 481 q 576 460 596 468 q 538 440 557 451 q 536 425 536 435 q 687 313 618 376 q 794 176 756 250 q 824 96 815 138 q 833 22 833 54 q 819 0 833 0 l 669 0 q 653 19 653 0 q 655 49 653 31 q 661 82 657 68 q 664 106 664 90 q 650 179 664 143 q 608 251 638 213 q 525 326 578 290 q 519 254 522 292 q 517 178 517 217 q 517 158 517 168 q 520 99 517 125 q 524 43 524 74 z "},"з":{"ha":625,"x_min":39,"x_max":569,"o":"m 372 -117 q 434 -103 408 -117 q 460 -44 460 -90 q 454 -16 460 -29 q 444 14 449 -3 q 440 41 440 29 q 435 67 440 53 q 407 116 425 97 q 368 151 389 135 q 313 117 340 133 q 263 86 286 101 q 243 86 256 82 q 188 119 213 101 q 142 167 164 138 q 135 189 135 178 q 140 208 135 199 q 191 272 164 250 q 253 315 218 294 q 271 315 260 319 q 369 271 319 299 q 428 325 403 294 q 454 410 454 356 q 435 468 454 440 q 387 513 417 496 q 324 529 357 529 q 259 513 289 529 q 214 468 229 497 q 210 453 210 461 q 210 443 210 447 q 211 435 211 439 q 175 396 211 396 q 123 403 154 396 q 69 421 92 411 q 53 450 53 428 q 57 468 53 460 q 153 581 89 553 q 301 610 218 610 q 419 594 361 610 q 517 535 478 578 q 556 414 556 493 q 526 303 556 351 q 453 215 497 254 q 537 116 504 171 q 569 0 569 61 q 534 -97 569 -54 q 442 -165 499 -140 q 325 -190 386 -190 q 261 -183 285 -190 q 204 -157 238 -175 q 169 -130 186 -147 q 131 -112 153 -112 q 100 -123 113 -112 q 64 -142 88 -133 q 61 -142 63 -142 q 47 -133 54 -142 q 39 -114 39 -124 q 43 -103 39 -107 q 118 -51 76 -71 q 197 -26 160 -31 q 204 -26 200 -26 q 247 -40 226 -26 q 286 -71 267 -53 q 326 -103 306 -89 q 372 -117 347 -117 z "},"и":{"ha":629,"x_min":81,"x_max":551,"o":"m 222 149 q 224 90 222 114 q 226 36 226 67 q 223 11 226 22 q 208 0 219 0 l 104 0 q 90 8 96 0 q 83 22 83 15 q 81 129 81 65 q 83 284 81 201 q 90 446 86 367 q 97 588 93 525 q 102 601 97 594 q 114 607 107 607 l 219 607 q 235 598 228 607 q 243 578 243 589 q 237 462 243 525 q 228 336 231 399 l 393 414 q 397 507 394 463 q 400 589 399 551 q 405 601 400 596 q 417 607 410 607 l 522 607 q 538 598 531 607 q 546 578 546 589 q 546 575 546 576 q 540 450 542 518 q 538 314 538 382 q 540 177 538 242 q 547 69 543 113 q 549 53 547 61 q 551 36 551 44 q 544 13 551 25 q 528 0 538 0 l 418 0 q 403 8 410 0 q 397 22 397 15 q 394 130 394 68 q 393 260 393 192 q 393 351 393 306 l 225 272 q 223 208 224 239 q 222 149 222 176 z "},"й":{"ha":629,"x_min":81,"x_max":551,"o":"m 408 907 q 408 919 408 914 q 407 931 407 925 q 417 960 407 951 q 439 969 426 969 q 466 958 453 969 q 482 925 479 947 q 483 882 483 903 q 440 724 483 786 q 306 661 397 661 q 209 705 239 661 q 179 807 179 749 q 221 950 179 886 q 258 971 235 971 q 280 964 271 971 q 289 943 289 957 q 282 918 289 932 q 268 856 268 889 q 282 802 268 825 q 324 779 296 779 q 372 800 353 779 q 399 851 390 821 q 408 907 408 881 m 222 149 q 224 90 222 114 q 226 36 226 67 q 223 11 226 22 q 208 0 219 0 l 104 0 q 90 8 96 0 q 83 22 83 15 q 81 129 81 65 q 83 284 81 201 q 90 446 86 367 q 97 588 93 525 q 102 601 97 594 q 114 607 107 607 l 219 607 q 235 598 228 607 q 243 578 243 589 q 237 462 243 525 q 228 336 231 399 l 393 414 q 397 507 394 463 q 400 589 399 551 q 405 601 400 596 q 417 607 410 607 l 522 607 q 538 598 531 607 q 546 578 546 589 q 546 575 546 576 q 540 450 542 518 q 538 314 538 382 q 540 177 538 242 q 547 69 543 113 q 549 53 547 61 q 551 36 551 44 q 544 13 551 25 q 528 0 538 0 l 418 0 q 403 8 410 0 q 397 22 397 15 q 394 130 394 68 q 393 260 393 192 q 393 351 393 306 l 225 272 q 223 208 224 239 q 222 149 222 176 z "},"к":{"ha":614,"x_min":83,"x_max":568,"o":"m 313 356 l 382 543 q 402 568 386 551 q 447 599 418 585 q 514 613 475 613 q 547 606 532 613 q 565 583 561 600 q 568 556 568 568 q 556 508 568 528 q 518 489 543 489 q 483 494 500 489 q 446 500 467 500 q 428 492 436 500 q 417 475 419 485 l 376 369 q 372 338 372 357 q 376 310 372 322 q 386 299 379 299 l 461 299 q 477 290 472 299 q 483 275 482 282 l 551 31 q 550 10 554 21 q 535 0 546 0 l 429 0 q 410 10 417 0 q 401 32 404 19 l 360 228 q 348 251 357 243 q 329 269 339 260 q 306 321 306 293 q 313 356 306 336 m 239 36 q 232 13 239 25 q 215 0 225 0 l 107 0 q 92 8 99 0 q 86 22 86 15 q 84 77 85 47 q 83 142 83 107 q 85 293 83 213 q 91 451 88 374 q 97 589 94 529 q 102 601 97 596 q 114 607 107 607 l 228 607 q 244 598 236 607 q 251 578 251 589 q 247 447 251 518 q 236 303 242 375 q 231 169 231 231 q 231 115 231 140 q 235 69 232 90 q 237 53 235 61 q 239 36 239 44 z "},"л":{"ha":581,"x_min":36,"x_max":529,"o":"m 397 607 q 416 600 408 607 q 425 583 424 593 q 449 413 435 506 q 483 224 464 319 q 528 40 503 128 q 529 25 529 33 q 526 8 529 15 q 515 0 524 0 l 400 0 q 379 14 386 0 q 369 42 372 28 q 344 213 358 133 q 315 365 331 293 q 261 263 292 307 q 206 167 231 218 q 197 135 199 151 q 194 104 194 118 q 195 85 194 94 q 196 71 196 76 q 202 51 197 60 q 207 31 207 43 q 201 10 207 19 q 183 0 194 0 l 63 0 q 44 10 51 0 q 36 29 36 19 q 65 107 38 61 q 125 196 92 153 q 190 275 156 236 q 252 358 224 314 q 294 458 281 401 l 282 508 q 272 531 281 519 q 264 558 264 543 q 270 590 264 574 q 297 607 276 607 l 397 607 z "},"м":{"ha":951,"x_min":49,"x_max":899,"o":"m 551 40 q 553 25 553 33 q 550 8 553 15 q 539 0 547 0 l 421 0 q 400 14 407 0 q 390 42 393 28 q 369 188 381 128 q 347 299 358 249 q 318 407 335 350 q 308 378 314 393 q 293 343 301 363 q 251 252 269 290 q 218 163 233 214 q 210 108 210 136 q 217 61 210 83 q 226 45 219 50 q 233 29 233 40 q 226 9 233 18 q 207 0 218 0 l 69 0 q 53 13 58 0 q 49 36 49 25 q 62 113 49 81 q 101 181 75 146 q 155 244 132 218 q 199 299 178 271 q 242 369 219 328 q 272 439 261 406 q 288 506 282 472 q 278 537 282 522 q 275 558 275 551 q 281 590 275 574 q 308 607 288 607 l 414 607 q 433 600 425 607 q 442 583 440 593 q 469 405 451 503 q 508 208 486 307 l 636 536 q 634 550 635 543 q 633 563 633 557 q 633 569 633 567 q 638 594 633 581 q 661 607 643 607 l 747 607 q 766 600 758 607 q 775 583 774 593 q 800 413 783 507 q 842 222 817 318 q 897 40 867 125 q 899 26 899 35 q 896 8 899 17 q 885 0 893 0 l 765 0 q 746 11 751 0 q 736 36 740 22 q 692 222 714 122 q 654 417 669 322 l 533 108 q 542 74 538 90 q 551 40 546 57 z "},"н":{"ha":636,"x_min":89,"x_max":550,"o":"m 550 36 q 543 13 550 25 q 526 0 536 0 l 426 0 q 413 8 418 0 q 406 22 407 15 q 400 127 401 67 q 399 254 399 188 l 231 332 q 229 233 229 282 q 231 143 229 185 q 235 69 232 101 q 236 54 235 63 q 238 38 238 46 q 233 12 238 24 q 215 0 229 0 l 113 0 q 98 8 104 0 q 92 22 92 15 q 90 103 90 58 q 89 200 89 149 q 92 404 89 299 q 99 589 94 510 q 103 601 99 596 q 115 607 108 607 l 219 607 q 235 598 228 607 q 243 578 243 589 q 239 490 243 536 q 233 394 235 443 l 399 317 q 402 462 400 390 q 408 589 404 533 q 413 601 408 596 q 425 607 418 607 l 525 607 q 541 598 533 607 q 549 578 549 589 q 549 575 549 576 q 542 430 544 510 q 540 275 540 350 q 542 160 540 214 q 546 69 543 107 q 548 53 546 61 q 550 36 550 44 z "},"о":{"ha":614,"x_min":38,"x_max":574,"o":"m 269 614 q 414 569 344 606 q 528 467 483 532 q 574 311 574 403 q 564 236 574 274 q 533 168 554 199 q 344 -10 447 39 q 207 35 268 4 q 96 129 146 65 q 38 292 38 206 q 83 443 38 367 q 167 543 119 503 q 269 614 214 583 m 376 129 q 448 163 421 129 q 475 239 475 197 q 454 322 475 279 q 401 397 433 364 q 324 457 368 432 q 239 482 281 482 q 165 450 194 482 q 136 375 136 418 q 159 292 136 335 q 214 217 182 250 q 291 156 247 182 q 376 129 335 129 z "},"п":{"ha":640,"x_min":88,"x_max":561,"o":"m 561 36 q 554 13 561 25 q 538 0 547 0 l 438 0 q 424 8 429 0 q 417 22 418 15 q 410 152 413 76 q 408 308 408 228 q 410 435 408 372 q 414 551 411 497 l 239 551 q 231 390 235 478 q 228 225 228 303 q 229 139 228 179 q 233 69 231 99 q 235 56 233 64 q 236 38 236 47 q 232 12 236 24 q 214 0 228 0 l 111 0 q 97 8 103 0 q 90 22 90 15 q 88 81 89 49 q 88 151 88 114 q 90 300 88 221 q 94 454 92 379 q 101 589 97 529 q 106 601 101 596 q 118 607 111 607 l 533 607 q 549 598 542 607 q 557 578 557 589 q 553 453 557 521 q 550 317 550 385 q 552 179 550 244 q 557 69 554 114 q 559 53 557 61 q 561 36 561 44 z "},"р":{"ha":517,"x_min":69,"x_max":449,"o":"m 190 -6 q 214 -153 201 -67 q 226 -344 226 -239 q 204 -487 226 -422 q 132 -592 182 -551 q 114 -597 124 -597 q 91 -590 101 -597 q 81 -569 81 -582 q 92 -451 81 -508 q 103 -319 103 -393 q 98 -165 103 -235 q 86 -29 93 -94 q 74 106 79 36 q 69 261 69 176 q 100 442 69 363 q 188 566 131 521 q 329 611 246 611 q 383 606 357 611 q 415 575 410 600 q 427 503 421 550 q 439 402 433 456 q 447 301 444 349 q 449 278 449 290 q 440 190 449 236 q 416 103 432 143 q 376 46 400 64 q 303 9 350 24 q 190 -6 256 -6 m 171 103 q 301 144 261 114 q 352 222 342 175 q 363 328 363 269 q 357 413 363 371 q 344 478 351 456 q 331 478 338 478 q 203 431 247 478 q 158 256 158 383 q 162 176 158 213 q 171 103 165 139 z "},"с":{"ha":407,"x_min":69,"x_max":338,"o":"m 313 613 q 335 597 333 614 q 337 572 336 588 q 338 540 338 557 l 338 518 q 335 492 338 504 q 322 478 333 481 q 232 429 265 463 q 199 354 199 396 q 199 351 199 353 q 199 328 199 351 q 199 272 199 306 q 201 208 200 239 q 203 163 201 178 q 260 182 226 168 q 315 201 294 196 q 318 202 317 201 q 321 203 319 203 q 333 188 331 203 q 336 147 336 172 q 313 88 336 124 q 242 25 290 53 q 117 -3 194 -3 q 88 8 103 -3 q 74 32 74 19 l 74 96 q 73 185 74 144 q 71 269 72 225 q 69 374 69 314 q 135 546 71 489 q 313 613 199 603 z "},"т":{"ha":878,"x_min":54,"x_max":842,"o":"m 58 565 q 54 586 54 575 q 71 607 54 607 l 826 607 q 842 588 842 607 q 838 565 842 576 q 815 506 824 535 q 796 449 806 476 q 786 429 793 439 q 765 419 779 419 q 748 430 756 419 q 735 451 740 440 q 706 508 719 483 q 679 551 693 533 l 565 551 q 556 546 560 551 q 551 533 551 540 l 551 22 q 547 7 551 14 q 535 0 543 0 l 411 0 q 397 7 403 0 q 392 22 392 14 l 392 533 q 388 546 392 540 q 378 551 385 551 l 218 551 q 206 538 206 551 l 206 292 q 203 281 206 288 q 197 274 201 275 q 132 247 157 261 q 88 222 107 233 q 77 226 82 219 q 72 238 72 232 l 72 511 q 69 538 72 528 q 58 565 65 547 z "},"ф":{"ha":849,"x_min":39,"x_max":810,"o":"m 521 864 q 512 749 515 807 q 506 635 508 692 q 544 565 524 592 q 604 501 565 538 q 704 411 657 453 q 781 322 751 369 q 810 203 810 274 q 785 100 810 147 q 713 24 760 53 q 604 -4 667 -4 q 538 3 569 -4 q 479 19 506 10 q 469 -208 475 -92 q 457 -447 464 -324 q 443 -478 456 -468 q 417 -489 431 -489 q 391 -479 403 -489 q 379 -449 379 -469 q 371 17 372 -197 q 310 1 344 6 q 236 -4 276 -4 q 135 26 181 -4 q 65 105 90 56 q 39 211 39 154 q 71 324 39 279 q 152 408 103 369 q 251 492 201 446 q 316 553 289 526 q 364 617 343 579 q 361 720 363 669 q 357 822 360 771 q 348 847 356 836 q 326 861 340 858 q 311 875 317 864 q 306 897 306 886 q 321 922 306 921 q 435 936 379 928 q 554 967 490 944 q 558 967 556 967 q 574 955 567 967 q 581 932 581 943 q 574 914 581 919 q 541 894 558 904 q 521 864 524 883 m 499 521 q 490 305 493 414 q 482 83 486 196 q 525 85 503 81 q 636 133 594 94 q 678 235 678 171 q 648 356 678 310 q 561 454 618 403 q 526 488 542 472 q 499 521 511 503 m 371 78 q 369 299 369 192 q 367 510 369 407 q 310 454 343 481 q 213 353 246 401 q 179 228 179 306 q 220 120 179 167 q 324 74 261 74 q 371 78 350 74 z "},"х":{"ha":667,"x_min":49,"x_max":619,"o":"m 576 460 q 571 441 576 444 q 553 438 565 438 q 549 438 551 438 q 544 438 547 438 q 512 454 529 438 q 468 471 494 471 q 432 451 446 471 q 411 411 418 432 l 350 217 l 579 -419 q 581 -425 581 -422 q 572 -442 581 -435 q 554 -449 564 -449 l 460 -449 q 441 -440 449 -449 q 429 -421 433 -431 l 279 -6 l 104 -565 q 74 -597 94 -597 q 56 -588 64 -597 q 49 -562 49 -579 q 53 -537 49 -551 l 247 83 l 69 579 q 75 598 67 589 q 93 607 83 607 l 186 607 q 207 599 197 607 q 219 582 217 592 l 317 308 l 356 429 q 395 517 369 474 q 460 587 421 560 q 558 614 500 614 q 600 603 581 614 q 619 575 619 593 q 605 550 619 565 q 582 514 590 535 q 577 494 578 504 q 576 474 576 483 q 576 466 576 469 q 576 460 576 463 z "},"ц":{"ha":693,"x_min":88,"x_max":665,"o":"m 494 0 l 111 0 q 97 8 103 0 q 90 22 90 15 q 88 129 88 65 q 90 284 88 201 q 97 446 93 367 q 104 588 100 525 q 109 601 104 594 q 121 607 114 607 l 224 607 q 240 598 232 607 q 247 578 247 589 q 242 440 247 515 q 232 288 238 364 q 226 150 226 213 q 229 68 226 101 q 230 62 229 65 q 231 56 231 58 l 397 56 q 396 171 396 106 q 397 315 396 240 q 401 462 399 390 q 407 589 404 533 q 412 601 407 596 q 424 607 417 607 l 526 607 q 542 598 535 607 q 550 578 550 589 q 544 428 550 510 q 539 267 539 346 q 541 157 539 208 q 547 69 543 106 q 550 56 547 64 l 636 56 q 660 44 654 56 q 665 19 665 32 q 664 1 665 10 q 628 -172 644 -92 q 599 -331 611 -253 q 579 -494 588 -408 q 569 -516 578 -508 q 549 -524 560 -524 q 533 -517 540 -524 q 525 -493 525 -510 l 525 -60 q 517 -20 525 -40 q 494 0 508 0 z "},"ч":{"ha":557,"x_min":49,"x_max":481,"o":"m 481 36 q 474 13 481 25 q 457 0 467 0 l 349 0 q 334 8 340 0 q 328 22 328 15 q 325 112 326 61 q 324 219 324 163 q 324 285 324 251 q 325 353 325 319 q 297 351 313 351 q 206 360 249 351 q 94 427 140 371 q 49 569 49 483 q 49 589 49 579 q 52 601 49 594 q 65 607 56 607 l 182 607 q 193 602 190 607 q 196 592 196 597 q 210 512 196 551 q 253 447 224 472 q 326 421 282 421 q 330 510 328 468 q 333 589 332 553 q 338 601 333 596 q 350 607 343 607 l 453 607 q 469 598 461 607 q 476 578 476 589 q 472 444 476 517 q 468 299 468 371 q 470 170 468 231 q 476 69 472 110 q 478 53 476 61 q 481 36 481 44 z "},"ш":{"ha":928,"x_min":88,"x_max":850,"o":"m 850 36 q 843 13 850 25 q 826 0 836 0 l 113 0 q 99 8 104 0 q 92 22 93 15 q 88 92 89 53 q 88 174 88 131 q 90 316 88 242 q 94 461 92 390 q 100 589 97 532 q 105 601 100 596 q 117 607 110 607 l 219 607 q 235 598 228 607 q 243 578 243 589 q 238 428 243 510 q 232 267 232 346 q 234 157 232 208 q 240 69 236 106 q 243 56 240 64 l 393 56 q 391 152 392 99 q 390 263 390 206 q 392 435 390 349 q 397 589 393 522 q 402 601 397 596 q 414 607 407 607 l 517 607 q 533 598 525 607 q 540 578 540 589 q 535 428 540 510 q 529 267 529 346 q 531 157 529 208 q 538 69 533 106 q 538 63 538 67 q 539 56 538 58 l 696 56 q 694 117 694 83 q 693 185 693 150 q 695 325 693 253 q 700 465 697 397 q 706 589 703 533 q 710 601 706 596 q 722 607 715 607 l 825 607 q 841 598 833 607 q 849 578 849 589 q 843 428 849 510 q 838 267 838 346 q 840 157 838 208 q 846 69 842 106 q 848 53 846 61 q 850 36 850 44 z "},"щ":{"ha":928,"x_min":88,"x_max":850,"o":"m 850 36 q 843 13 850 25 q 826 0 836 0 l 540 0 q 541 -47 540 -22 q 542 -100 542 -72 q 536 -275 542 -179 q 514 -475 531 -371 q 489 -538 507 -517 q 440 -568 471 -560 q 432 -569 436 -569 q 406 -559 418 -569 q 393 -531 393 -549 q 399 -507 393 -519 q 413 -478 406 -492 q 425 -439 419 -465 q 429 -406 428 -422 q 431 -375 431 -390 q 429 -337 431 -356 q 426 -301 428 -319 q 410 -135 418 -210 q 399 0 403 -60 l 113 0 q 99 8 104 0 q 92 22 93 15 q 88 92 89 53 q 88 174 88 131 q 90 316 88 242 q 94 461 92 390 q 100 589 97 532 q 105 601 100 596 q 117 607 110 607 l 219 607 q 235 598 228 607 q 243 578 243 589 q 238 428 243 510 q 232 267 232 346 q 234 157 232 208 q 240 69 236 106 q 243 56 240 64 l 393 56 q 391 161 392 103 q 390 282 390 219 q 392 445 390 364 q 397 589 393 526 q 402 601 397 596 q 414 607 407 607 l 517 607 q 533 598 525 607 q 540 578 540 589 q 537 465 540 525 q 533 344 533 406 q 535 184 533 261 q 540 56 538 107 l 696 56 q 694 117 694 83 q 693 185 693 150 q 695 325 693 253 q 700 465 697 397 q 706 589 703 533 q 710 601 706 596 q 722 607 715 607 l 825 607 q 841 598 833 607 q 849 578 849 589 q 843 428 849 510 q 838 267 838 346 q 840 157 838 208 q 846 69 842 106 q 848 53 846 61 q 850 36 850 44 z "},"ъ":{"ha":619,"x_min":43,"x_max":569,"o":"m 375 279 l 436 279 q 451 273 446 279 q 458 257 456 267 l 536 29 q 538 25 538 26 q 528 8 538 15 q 510 0 519 0 l 81 0 q 67 18 67 0 q 76 49 67 35 l 392 551 l 218 551 l 218 360 q 210 344 218 350 q 193 338 203 338 l 101 338 q 84 347 92 338 q 76 365 76 356 q 81 457 78 418 q 85 531 85 496 q 74 549 85 543 q 53 562 64 556 q 43 579 43 568 q 50 599 43 590 q 69 607 57 607 l 547 607 q 563 598 557 607 q 564 581 569 589 l 375 279 m 336 217 l 235 56 l 392 56 l 336 217 z "},"ы":{"ha":797,"x_min":72,"x_max":731,"o":"m 226 335 q 263 347 246 340 q 303 361 279 353 q 324 369 314 365 q 343 372 333 372 q 364 361 357 372 q 462 199 417 285 q 542 32 507 114 q 543 22 543 26 q 518 0 543 0 l 96 0 q 72 21 72 0 l 94 529 q 99 551 96 542 q 110 568 101 560 q 150 599 133 590 q 210 614 167 608 q 218 614 214 614 q 247 608 232 614 q 261 589 261 603 q 247 474 261 542 q 226 335 233 407 m 731 38 q 723 13 731 26 q 706 0 715 0 l 597 0 q 583 8 589 0 q 576 22 578 15 q 567 138 571 71 q 562 278 564 204 q 560 425 560 353 q 561 512 560 469 q 564 589 563 554 q 569 601 564 596 q 581 607 574 607 l 683 607 q 699 598 692 607 q 707 578 707 589 q 706 517 707 549 q 704 453 704 486 q 707 311 704 383 q 715 176 710 239 q 725 69 719 113 q 728 53 726 61 q 731 38 731 46 m 221 267 q 213 155 215 210 q 207 56 210 100 l 364 56 q 368 60 368 56 q 367 69 368 65 q 340 133 361 96 q 289 206 319 169 q 221 267 258 243 z "},"ь":{"ha":558,"x_min":69,"x_max":508,"o":"m 224 303 q 251 310 238 306 q 283 319 265 314 q 306 327 294 324 q 328 331 318 331 q 351 319 344 331 q 438 177 404 243 q 507 29 472 111 q 508 19 508 24 q 483 0 508 0 l 106 0 q 82 3 94 0 q 69 18 69 6 q 77 165 72 88 q 88 319 82 243 q 101 463 94 396 q 114 579 108 531 q 125 599 115 592 q 147 607 135 607 l 246 607 q 263 603 256 607 q 265 581 269 599 q 243 455 254 529 q 224 303 232 381 m 217 242 q 208 143 211 190 q 201 56 204 96 l 333 56 q 338 60 338 56 q 336 69 338 65 q 295 157 325 107 q 217 242 265 207 z "},"ю":{"ha":703,"x_min":79,"x_max":639,"o":"m 235 36 q 228 13 235 25 q 211 0 221 0 l 103 0 q 88 8 94 0 q 82 22 82 15 q 80 77 81 47 q 79 142 79 107 q 81 293 79 213 q 87 451 83 374 q 93 589 90 529 q 98 601 93 596 q 110 607 103 607 l 214 607 q 230 598 222 607 q 238 578 238 589 q 233 472 238 529 q 228 356 229 415 l 338 356 q 388 507 347 439 q 476 608 429 575 q 497 613 483 613 q 519 608 511 613 q 586 539 560 586 q 626 431 613 492 q 639 306 639 371 q 606 121 639 206 q 506 -6 574 36 q 481 -11 496 -11 q 460 -6 465 -11 q 372 122 406 47 q 335 296 338 196 l 226 296 q 227 169 226 229 q 231 69 228 110 q 233 53 231 61 q 235 36 235 44 m 490 422 q 447 363 457 396 q 436 289 436 329 q 448 219 436 251 q 494 163 460 186 q 538 216 526 181 q 550 288 550 251 q 537 363 550 328 q 490 422 524 399 z "},"є":{"ha":644,"x_min":76,"x_max":572,"o":"m 82 128 q 76 232 76 188 q 87 348 76 297 q 118 460 97 399 q 217 556 169 517 q 333 611 264 594 q 348 615 342 614 q 361 611 354 615 q 447 578 404 590 q 542 556 490 565 q 563 542 554 553 q 572 522 572 532 q 568 511 572 515 q 518 469 543 478 q 461 453 493 461 q 435 449 446 449 q 414 453 425 449 q 340 486 372 467 q 275 511 307 506 q 247 472 261 497 q 225 431 232 446 q 218 322 218 381 q 221 239 218 285 q 259 255 240 246 q 301 276 278 264 q 347 305 326 290 q 388 335 367 319 q 406 341 394 340 q 424 335 417 342 q 483 263 456 301 q 550 183 511 224 q 558 167 557 178 q 550 153 560 156 q 501 135 529 146 q 453 113 472 125 q 415 117 432 100 q 365 165 389 144 q 329 199 340 186 q 301 203 317 211 q 266 185 286 196 q 226 164 246 174 q 241 39 232 96 q 276 -71 250 -18 q 326 -56 301 -65 q 368 -31 350 -46 q 440 -36 408 -35 q 510 -39 471 -37 q 530 -49 521 -39 q 532 -69 539 -58 q 473 -138 513 -104 q 392 -196 433 -172 q 325 -225 351 -219 q 315 -226 318 -226 q 307 -225 313 -226 q 191 -140 239 -194 q 116 -17 143 -86 q 82 128 89 53 z "},"ѕ":{"ha":786,"x_min":60,"x_max":724,"o":"m 436 51 q 536 94 496 51 q 576 193 576 136 q 538 272 576 242 q 454 308 500 301 q 442 308 446 311 q 347 267 396 290 q 238 228 299 243 q 218 228 228 226 q 107 303 146 247 q 68 421 68 360 q 99 522 68 478 q 178 592 129 567 q 283 617 228 617 q 355 607 324 617 q 417 582 386 597 q 436 581 428 578 q 488 601 461 592 q 536 617 514 610 q 547 618 540 618 q 564 613 554 618 q 584 601 571 608 q 597 586 597 593 q 596 583 597 585 q 542 524 571 550 q 482 479 513 499 q 472 477 478 476 q 464 479 467 478 q 422 517 439 500 q 387 546 406 535 q 338 557 368 557 q 282 539 308 557 q 239 494 256 521 q 222 442 222 468 q 242 378 222 404 q 296 333 261 351 q 302 333 300 332 q 308 333 304 333 q 378 351 347 338 q 440 383 410 365 q 508 410 471 400 q 519 412 515 413 q 529 410 524 411 q 668 331 613 390 q 724 189 724 272 q 700 88 724 126 q 636 30 676 50 q 547 2 596 10 q 449 -6 499 -6 q 365 3 397 -6 q 303 21 333 13 q 226 29 272 29 q 158 17 186 29 q 89 -11 131 6 q 86 -11 88 -11 q 69 -2 78 -11 q 60 15 60 7 q 74 54 60 36 q 94 83 88 72 q 103 92 97 89 q 155 122 124 107 q 221 147 186 138 q 227 148 224 149 q 233 147 231 147 q 274 136 256 144 q 321 108 293 128 q 375 70 350 89 q 436 51 400 51 z "},"і":{"ha":319,"x_min":89,"x_max":243,"o":"m 239 575 q 234 438 236 515 q 232 286 232 361 q 234 165 232 222 q 239 69 236 108 q 241 53 239 61 q 243 36 243 44 q 239 18 243 26 q 231 6 235 13 q 219 0 226 0 l 114 0 q 99 8 106 0 q 93 22 93 15 q 90 128 90 67 q 89 256 89 189 q 90 433 89 344 q 96 589 92 521 q 101 601 96 596 q 113 607 106 607 l 215 607 q 233 597 225 607 q 239 575 240 588 z "},"ї":{"ha":319,"x_min":-1,"x_max":310,"o":"m 175 865 q 177 878 174 872 q 188 883 181 883 l 251 883 q 261 877 257 883 q 267 865 265 871 l 307 714 q 304 702 310 708 q 292 696 299 696 l 233 696 q 222 702 228 696 q 215 714 217 708 l 175 865 m 0 865 q 2 878 -1 872 q 13 883 6 883 l 74 883 q 85 877 79 883 q 92 865 90 871 l 132 714 q 129 702 135 708 q 117 696 124 696 l 58 696 q 47 702 53 696 q 40 714 42 708 l 0 865 m 243 36 q 236 13 243 25 q 219 0 229 0 l 114 0 q 99 8 106 0 q 93 22 93 15 q 90 128 90 67 q 89 256 89 189 q 90 433 89 344 q 96 589 92 521 q 101 601 96 596 q 113 607 106 607 l 215 607 q 231 598 224 607 q 239 578 239 589 q 235 440 239 517 q 232 286 232 363 q 234 165 232 222 q 239 69 236 108 q 241 53 239 61 q 243 36 243 44 z "},"à":{"ha":617,"x_min":51,"x_max":608,"o":"m 354 699 l 315 681 l 150 901 l 154 914 q 208 929 165 921 q 263 935 244 935 q 268 935 265 935 l 354 699 m 608 56 l 485 -17 q 417 11 444 -17 q 382 71 393 35 q 360 56 378 68 q 333 38 340 42 q 310 21 325 32 q 285 6 293 10 q 263 -4 275 1 q 240 -14 250 -11 q 222 -17 231 -17 q 100 36 149 -17 q 51 154 51 88 q 163 290 51 251 q 379 382 346 354 l 379 408 q 350 522 379 481 q 268 563 319 563 q 208 536 231 563 q 168 443 185 508 q 124 408 158 408 q 81 428 101 408 q 58 469 58 446 q 104 528 58 494 q 201 585 140 554 q 315 625 263 614 q 433 588 386 625 q 497 414 497 535 l 497 161 q 546 79 497 79 q 594 93 571 79 l 608 56 m 379 115 l 379 333 q 346 317 367 326 q 297 294 324 306 q 263 278 271 282 q 201 235 221 257 q 182 176 182 213 q 213 99 182 126 q 278 71 242 71 q 379 115 332 71 z "},"&":{"ha":756,"x_min":11,"x_max":714,"o":"m 414 407 q 456 436 431 426 l 701 436 l 714 415 q 688 389 701 400 q 660 367 675 378 q 564 389 617 386 q 578 351 575 371 q 582 301 582 331 q 562 208 582 251 q 517 133 542 165 q 553 99 536 115 q 586 71 571 83 q 617 51 600 58 q 656 44 633 44 q 689 49 671 44 l 694 25 q 649 7 669 15 q 613 -7 629 -1 q 567 -17 582 -17 q 525 6 553 -17 q 492 32 510 17 q 454 67 474 47 q 363 8 415 33 q 243 -17 310 -17 q 28 104 79 -17 q 11 196 11 144 q 24 265 11 235 q 54 322 38 296 q 110 388 78 358 q 178 444 142 418 q 153 515 164 478 q 143 596 143 553 q 176 717 143 667 q 256 790 208 767 q 322 806 289 806 q 418 769 388 806 q 449 669 449 732 q 413 560 449 611 q 310 468 378 511 q 291 456 300 463 q 272 442 282 449 q 367 297 313 365 q 479 169 421 229 q 505 219 494 192 q 515 279 515 247 q 499 342 515 315 q 458 383 482 369 q 426 392 442 392 l 414 407 m 372 650 q 353 718 372 690 q 293 746 333 746 q 232 708 250 746 q 214 628 214 671 q 224 554 214 589 q 249 489 235 519 q 306 526 281 507 q 349 572 331 546 q 366 608 360 590 q 372 650 372 626 m 418 101 q 301 238 358 165 q 203 390 244 310 q 133 316 164 357 q 101 207 101 275 q 130 110 101 149 q 201 57 158 72 q 231 49 215 51 q 260 47 246 47 q 350 63 311 47 q 418 101 389 79 z "},"å":{"ha":617,"x_min":51,"x_max":608,"o":"m 296 693 q 208 726 246 693 q 171 813 171 760 q 210 899 171 865 q 297 931 247 931 q 383 899 346 931 q 421 813 421 865 q 383 726 421 760 q 296 693 344 693 m 297 738 q 342 758 325 738 q 358 813 358 779 q 342 865 358 844 q 296 885 325 885 q 253 864 269 885 q 235 813 235 843 q 253 760 235 781 q 297 738 271 738 m 608 56 l 485 -17 q 417 11 444 -17 q 382 71 393 35 q 360 56 378 68 q 333 38 340 42 q 310 21 325 32 q 285 6 293 10 q 263 -4 275 1 q 240 -14 250 -11 q 222 -17 231 -17 q 100 36 149 -17 q 51 154 51 88 q 163 290 51 251 q 379 382 346 354 l 379 408 q 350 522 379 481 q 268 563 319 563 q 208 536 231 563 q 168 443 185 508 q 124 408 158 408 q 81 428 101 408 q 58 469 58 446 q 104 528 58 494 q 201 585 140 554 q 315 625 263 614 q 433 588 386 625 q 497 414 497 535 l 497 161 q 546 79 497 79 q 594 93 571 79 l 608 56 m 379 115 l 379 333 q 346 317 367 326 q 297 294 324 306 q 263 278 271 282 q 201 235 221 257 q 182 176 182 213 q 213 99 182 126 q 278 71 242 71 q 379 115 332 71 z "},"^":{"ha":625,"x_min":108,"x_max":517,"o":"m 311 824 l 169 481 l 108 481 l 283 903 l 342 903 l 517 481 l 456 481 l 311 824 z "},"~":{"ha":694,"x_min":31,"x_max":572,"o":"m 31 208 q 65 294 39 253 q 128 360 90 335 q 208 386 165 386 q 259 374 232 386 q 311 342 286 361 q 365 308 340 321 q 411 294 389 294 q 484 316 440 294 q 550 389 528 338 q 572 381 567 389 q 519 270 551 306 q 454 224 486 235 q 406 214 422 214 q 354 227 383 214 q 300 258 325 240 q 250 290 275 278 q 200 303 225 303 q 120 276 163 303 q 53 203 78 249 q 42 203 47 203 q 31 208 36 204 z "},"*":{"ha":538,"x_min":29,"x_max":522,"o":"m 522 749 l 389 701 l 453 572 l 324 635 l 275 501 l 228 635 l 101 572 l 163 701 l 29 749 l 160 796 l 99 924 l 228 861 l 275 994 l 324 861 l 453 924 l 389 796 l 522 749 m 403 749 l 333 772 l 367 839 l 299 807 l 275 875 l 251 807 l 185 838 l 215 772 l 149 749 l 217 724 l 185 657 l 251 689 l 275 621 l 299 689 l 367 657 l 333 724 l 403 749 z "},"@":{"ha":1279,"x_min":161,"x_max":1124,"o":"m 568 199 q 503 222 531 199 q 461 281 476 244 q 446 356 446 317 q 525 593 446 481 q 718 706 603 706 q 775 692 751 706 q 796 669 785 683 q 818 633 807 656 l 832 686 l 928 686 l 838 333 q 835 319 836 325 q 835 308 835 313 q 889 244 835 244 q 1013 329 957 244 q 1068 518 1068 414 q 950 785 1068 675 q 669 896 832 896 q 386 767 494 896 q 278 449 278 636 q 392 151 278 267 q 683 35 507 35 q 956 101 808 35 l 972 60 q 881 23 921 38 q 808 0 840 8 q 742 -14 776 -8 q 671 -19 707 -19 q 308 117 457 -19 q 161 453 161 251 q 308 797 161 654 q 668 939 458 939 q 992 822 863 939 q 1124 532 1124 704 q 1047 297 1124 396 q 868 200 971 200 q 783 228 818 200 q 742 300 747 256 q 568 199 665 199 m 544 378 q 565 295 544 331 q 628 260 585 260 q 744 364 694 260 q 794 564 794 468 q 780 622 794 600 q 733 644 765 644 q 611 567 675 644 q 544 378 544 492 z "},"ã":{"ha":617,"x_min":51,"x_max":608,"o":"m 150 721 l 113 744 q 228 874 154 874 q 310 846 256 874 q 385 819 363 819 q 446 883 417 819 l 482 864 q 369 733 443 733 q 278 765 339 733 q 213 788 242 788 q 150 721 178 788 m 608 56 l 485 -17 q 417 11 444 -17 q 382 71 393 35 q 360 56 378 68 q 333 38 340 42 q 310 21 325 32 q 285 6 293 10 q 263 -4 275 1 q 240 -14 250 -11 q 222 -17 231 -17 q 100 36 149 -17 q 51 154 51 88 q 163 290 51 251 q 379 382 346 354 l 379 408 q 350 522 379 481 q 268 563 319 563 q 208 536 231 563 q 168 443 185 508 q 124 408 158 408 q 81 428 101 408 q 58 469 58 446 q 104 528 58 494 q 201 585 140 554 q 315 625 263 614 q 433 588 386 625 q 497 414 497 535 l 497 161 q 546 79 497 79 q 594 93 571 79 l 608 56 m 379 115 l 379 333 q 346 317 367 326 q 297 294 324 306 q 263 278 271 282 q 201 235 221 257 q 182 176 182 213 q 213 99 182 126 q 278 71 242 71 q 379 115 332 71 z "},"b":{"ha":654,"x_min":10,"x_max":633,"o":"m 232 561 q 303 607 264 590 q 388 624 343 624 q 505 590 449 624 q 597 496 561 557 q 633 350 633 435 q 606 202 633 267 q 533 92 578 138 q 433 24 488 47 q 326 0 379 0 q 258 7 289 0 q 204 35 228 14 q 186 43 192 43 q 165 31 178 43 q 149 13 158 21 q 133 -3 140 4 q 115 1 121 -3 q 103 14 108 6 q 107 51 106 29 q 108 113 108 72 l 108 790 q 101 872 108 849 q 75 899 94 894 q 19 904 56 903 q 12 918 14 908 q 10 936 10 928 q 11 946 10 943 q 78 955 39 949 q 153 969 117 961 q 206 983 189 976 q 224 969 224 983 q 221 931 224 969 q 218 824 218 892 l 218 568 q 232 561 218 549 m 242 518 q 218 460 218 499 l 218 113 q 263 67 239 86 q 318 47 286 47 q 428 84 385 47 q 492 183 471 121 q 514 325 514 246 q 493 447 514 393 q 438 531 472 500 q 360 563 403 563 q 299 552 329 563 q 242 518 269 542 z "},"\\":{"ha":563,"x_min":-21,"x_max":583,"o":"m 583 -390 l 501 -390 l -21 1067 l 61 1067 l 583 -390 z "},"|":{"ha":224,"x_min":75,"x_max":153,"o":"m 153 -425 l 75 -450 l 75 1433 l 153 1460 l 153 -425 z "},"{":{"ha":444,"x_min":21,"x_max":411,"o":"m 160 78 q 29 476 160 476 l 21 476 l 21 504 l 29 504 q 160 906 160 504 q 411 1322 160 1322 l 411 1294 q 250 953 250 1294 l 250 897 q 138 490 250 561 q 250 78 250 406 l 250 24 q 411 -308 250 -308 l 411 -336 q 160 78 160 -336 z "},"}":{"ha":419,"x_min":8,"x_max":399,"o":"m 8 -336 l 8 -308 q 169 24 169 -308 l 169 78 q 282 490 169 406 q 169 897 169 561 l 169 953 q 8 1294 169 1294 l 8 1322 q 260 906 260 1322 q 390 504 260 504 l 399 504 l 399 476 l 390 476 q 260 78 260 476 q 8 -336 260 -336 z "},"[":{"ha":422,"x_min":78,"x_max":422,"o":"m 422 -333 l 78 -333 l 78 1111 l 422 1111 l 422 1056 l 192 1056 l 192 -278 l 422 -278 l 422 -333 z "},"]":{"ha":422,"x_min":0,"x_max":344,"o":"m 0 1111 l 344 1111 l 344 -333 l 0 -333 l 0 -278 l 231 -278 l 231 1056 l 0 1056 l 0 1111 z "},"¦":{"ha":367,"x_min":138,"x_max":231,"o":"m 231 451 l 138 451 l 138 938 l 231 938 l 231 451 m 231 -243 l 138 -243 l 138 243 l 231 243 l 231 -243 z "},"•":{"ha":414,"x_min":28,"x_max":386,"o":"m 28 307 q 52 398 28 357 q 117 463 76 439 q 208 488 158 488 q 299 463 258 488 q 363 398 339 439 q 386 307 386 357 q 363 216 386 257 q 299 151 339 175 q 208 126 258 126 q 117 151 158 126 q 52 216 76 175 q 28 307 28 257 z "},"c":{"ha":565,"x_min":44,"x_max":547,"o":"m 547 140 q 439 28 496 56 q 319 0 382 0 q 117 84 189 0 q 44 303 44 168 q 87 474 44 401 q 195 585 129 546 q 331 624 261 624 q 486 586 431 624 q 542 492 542 549 q 519 445 542 460 q 475 431 496 431 q 438 442 453 431 q 422 481 422 453 q 403 547 422 517 q 322 578 385 578 q 209 513 254 578 q 164 333 164 449 q 190 193 164 253 q 258 101 215 133 q 350 68 300 68 q 517 160 446 68 q 547 140 539 160 z "},"ç":{"ha":594,"x_min":51,"x_max":553,"o":"m 317 -133 q 284 -135 297 -133 q 254 -142 271 -136 l 246 -133 l 296 -12 q 115 81 179 -1 q 51 289 51 163 q 94 460 51 388 q 202 571 136 532 q 336 610 268 610 q 492 572 436 610 q 549 478 549 535 q 526 431 549 446 q 481 417 503 417 q 444 428 458 417 q 428 467 431 439 q 417 514 425 492 q 390 550 410 536 q 329 564 371 564 q 216 499 261 564 q 171 319 171 435 q 197 179 171 239 q 265 87 222 119 q 357 54 307 54 q 445 77 401 54 q 524 146 489 100 q 553 126 546 143 q 453 18 506 47 q 343 -14 400 -11 l 314 -93 q 350 -89 331 -89 q 420 -112 392 -89 q 449 -175 449 -135 q 406 -249 449 -219 q 300 -278 364 -278 q 245 -272 267 -278 q 197 -254 224 -265 q 211 -218 197 -232 q 255 -233 239 -228 q 292 -237 271 -237 q 343 -223 324 -237 q 363 -182 363 -208 q 351 -147 363 -160 q 317 -133 340 -133 z "},"¸":{"ha":556,"x_min":196,"x_max":374,"o":"m 343 1 l 313 -36 q 301 -65 300 -54 q 319 -93 303 -76 q 374 -189 374 -147 q 331 -269 374 -232 q 213 -329 288 -307 l 196 -293 q 279 -210 279 -257 q 249 -157 279 -187 q 218 -114 221 -132 q 217 -108 217 -111 q 235 -68 217 -92 l 288 1 l 343 1 z "},"¢":{"ha":671,"x_min":69,"x_max":607,"o":"m 583 307 l 607 274 q 510 183 565 219 q 401 138 454 146 l 401 1 l 351 1 l 351 135 q 149 221 228 138 q 69 415 69 304 q 106 558 69 492 q 200 669 140 625 q 351 739 267 719 l 351 854 l 401 854 l 401 744 q 425 746 411 746 q 565 710 513 746 q 585 674 585 696 q 568 632 585 651 q 533 613 550 613 q 513 625 525 613 q 401 685 460 678 l 401 228 q 404 228 403 228 q 583 307 500 228 m 351 233 l 351 686 q 239 629 289 683 q 188 472 188 575 q 238 307 188 365 q 351 233 286 249 z "},"ˆ":{"ha":417,"x_min":40,"x_max":378,"o":"m 235 1006 q 303 933 265 968 q 378 871 340 899 q 369 853 374 861 q 356 842 364 846 q 278 881 314 861 q 208 926 242 900 q 134 879 169 899 q 60 842 99 860 q 40 871 44 851 q 113 935 78 900 q 181 1006 147 971 q 207 1014 194 1014 q 235 1006 218 1014 z "},":":{"ha":283,"x_min":42,"x_max":247,"o":"m 50 494 q 50 515 42 506 l 132 617 q 143 622 136 622 q 154 617 150 622 l 240 510 q 240 490 247 500 l 158 388 q 147 382 154 382 q 136 388 140 382 l 50 494 m 50 114 q 50 135 42 125 l 132 236 q 143 242 136 242 q 154 236 150 242 l 240 129 q 240 110 247 119 l 158 7 q 147 1 154 1 q 136 7 140 1 l 50 114 z "},",":{"ha":424,"x_min":40,"x_max":388,"o":"m 64 22 q 46 35 51 22 q 40 57 40 47 q 58 126 40 90 q 103 194 75 163 q 166 244 132 225 q 232 264 200 264 q 318 231 283 264 q 370 150 353 199 q 388 50 388 101 q 365 -65 388 -7 q 303 -173 342 -124 q 219 -254 265 -222 q 205 -263 213 -260 q 190 -267 197 -267 q 168 -244 168 -267 q 172 -227 168 -236 q 179 -212 175 -218 q 236 -117 214 -162 q 258 -14 258 -71 q 241 74 258 36 q 181 113 224 113 q 130 92 153 113 q 96 44 107 71 q 83 30 92 38 q 64 22 74 22 z "},"©":{"ha":974,"x_min":68,"x_max":906,"o":"m 489 871 q 786 749 667 871 q 906 447 906 625 q 786 149 906 271 q 488 26 667 26 q 189 149 308 26 q 68 447 68 271 q 189 749 68 625 q 489 871 310 871 m 486 822 q 235 715 335 822 q 135 449 135 608 q 236 183 135 290 q 488 75 336 75 q 739 183 639 75 q 839 449 839 290 q 739 715 839 608 q 486 822 639 822 m 667 365 l 699 358 q 663 233 664 236 q 517 207 588 207 q 322 278 390 207 q 253 444 253 349 q 332 624 253 557 q 522 690 410 690 q 668 665 613 690 q 672 632 669 650 q 678 588 674 614 q 683 540 681 561 l 651 535 q 514 650 615 650 q 400 596 442 650 q 358 454 358 540 q 404 307 358 364 q 518 249 450 249 q 667 365 617 249 z "},"¤":{"ha":694,"x_min":-31,"x_max":725,"o":"m -31 150 l 106 283 q 49 458 49 365 q 106 633 49 553 l -31 769 l 39 836 l 172 703 q 349 757 258 757 q 522 703 446 757 l 658 836 l 725 769 l 592 633 q 646 460 646 553 q 592 283 646 369 l 725 150 l 658 81 l 522 217 q 349 160 442 160 q 172 217 258 160 l 39 81 l -31 150 m 551 460 q 524 563 551 515 q 452 639 497 610 q 351 668 407 668 q 247 640 294 668 q 171 564 199 611 q 143 458 143 517 q 171 355 143 403 q 246 278 199 307 q 349 249 293 249 q 451 277 406 249 q 524 354 497 306 q 551 460 551 403 z "},"d":{"ha":704,"x_min":43,"x_max":686,"o":"m 454 86 q 361 22 403 44 q 279 0 319 0 q 151 38 204 0 q 71 144 99 76 q 43 296 43 211 q 69 435 43 374 q 139 540 94 496 q 230 602 181 581 q 347 624 279 624 q 394 618 371 624 q 435 606 418 613 q 456 600 453 600 q 468 613 468 600 l 468 790 q 462 869 468 846 q 438 899 456 893 q 389 904 421 904 l 379 904 q 369 935 369 914 q 370 941 369 938 q 371 946 371 944 q 438 952 399 946 q 513 967 476 958 q 565 983 549 976 q 583 969 583 983 q 581 931 583 969 q 578 824 578 892 l 578 194 q 595 118 578 143 q 679 93 613 93 q 686 74 686 86 q 679 56 686 63 q 577 34 615 49 q 515 0 539 19 q 503 -3 511 -3 q 489 0 494 -3 q 483 28 489 0 q 474 82 476 56 q 467 90 474 89 q 454 86 460 90 m 468 186 l 468 450 q 464 495 468 482 q 444 525 460 508 q 397 562 424 549 q 332 575 369 575 q 273 565 311 575 q 203 506 235 554 q 175 440 188 483 q 163 321 163 396 q 185 178 163 235 q 243 93 208 121 q 315 65 278 65 q 446 132 369 65 q 465 156 461 144 q 468 186 468 167 z "},"†":{"ha":701,"x_min":50,"x_max":653,"o":"m 425 790 l 653 790 l 653 663 l 425 663 l 425 0 l 286 0 l 286 663 l 50 663 l 50 790 l 286 790 l 286 1069 l 425 1069 l 425 790 z "},"°":{"ha":556,"x_min":79,"x_max":476,"o":"m 79 740 q 106 840 79 796 q 178 912 133 885 q 278 939 224 939 q 378 912 333 939 q 450 840 424 885 q 476 739 476 794 q 449 639 476 683 q 376 568 422 594 q 275 542 331 542 q 177 569 222 542 q 106 642 132 596 q 79 740 79 688 m 422 740 q 403 815 422 781 q 351 870 383 849 q 278 892 318 892 q 206 871 239 892 q 153 815 172 850 q 133 740 133 781 q 153 667 133 701 q 205 610 172 632 q 276 589 238 589 q 350 610 317 589 q 403 665 383 631 q 422 740 422 700 z "},"¨":{"ha":556,"x_min":85,"x_max":469,"o":"m 156 743 q 106 765 126 743 q 85 815 85 786 q 106 867 85 846 q 157 888 126 888 q 207 867 186 888 q 226 815 226 846 q 206 765 226 786 q 156 743 185 743 m 399 743 q 349 765 369 743 q 328 815 328 786 q 349 867 328 846 q 400 888 369 888 q 450 867 429 888 q 469 815 469 846 q 449 765 469 786 q 399 743 428 743 z "},"÷":{"ha":804,"x_min":71,"x_max":736,"o":"m 404 490 q 357 511 378 490 q 335 561 335 532 q 357 611 335 589 q 406 632 378 632 q 457 611 435 632 q 478 561 478 589 q 457 511 478 531 q 404 490 435 490 m 736 317 l 71 317 l 71 389 l 736 389 l 736 317 m 406 215 q 454 194 432 215 q 475 144 475 174 q 453 96 475 117 q 404 74 431 74 q 354 96 375 74 q 332 144 332 117 q 353 196 332 175 q 406 215 374 215 z "},"$":{"ha":694,"x_min":61,"x_max":635,"o":"m 319 0 q 215 7 257 0 q 138 30 174 14 q 61 71 103 46 l 61 251 l 82 251 q 157 97 104 154 q 319 39 210 39 l 319 431 q 128 567 183 507 q 72 711 72 628 q 106 824 72 781 q 195 892 139 868 q 319 922 251 915 l 319 1010 l 367 1010 l 367 922 q 590 849 525 903 l 590 694 l 569 694 q 504 827 551 781 q 367 885 457 874 l 367 543 q 443 499 401 522 q 517 453 485 475 q 547 432 538 440 q 565 414 557 424 q 589 386 574 404 q 615 346 608 364 q 628 296 622 328 q 633 267 632 282 q 635 236 635 251 q 619 145 635 185 q 569 78 604 106 q 485 31 536 50 q 367 0 433 11 l 367 -121 l 319 -121 l 319 0 m 319 565 l 319 885 q 175 742 175 856 q 203 658 175 694 q 247 617 218 640 q 319 565 276 594 m 367 407 l 367 39 q 525 203 525 71 q 494 306 525 269 q 367 407 463 347 z "},"ı":{"ha":379,"x_min":44,"x_max":358,"o":"m 358 0 l 44 0 l 44 38 q 125 63 110 44 q 140 153 140 81 l 140 428 q 128 513 140 496 q 56 539 115 529 l 56 572 q 263 626 178 593 l 263 153 q 278 63 263 81 q 358 38 292 44 l 358 0 z "},"e":{"ha":608,"x_min":49,"x_max":563,"o":"m 326 0 q 120 82 192 0 q 49 294 49 164 q 74 435 49 374 q 142 537 100 496 q 232 599 183 578 q 326 621 281 621 q 474 585 424 621 q 542 493 524 549 q 561 379 561 438 q 535 356 561 356 l 165 358 q 177 251 165 299 q 210 168 189 203 q 283 92 242 115 q 361 68 324 68 q 458 86 422 68 q 533 143 494 104 q 563 121 557 142 q 463 33 521 67 q 326 0 406 0 m 169 406 l 421 410 q 442 429 442 410 q 424 519 442 488 q 379 563 406 551 q 326 575 353 575 q 292 570 314 575 q 245 549 269 565 q 200 499 221 533 q 169 406 179 464 z "},"é":{"ha":608,"x_min":49,"x_max":563,"o":"m 375 932 q 394 935 383 935 q 424 931 401 935 q 471 903 447 926 l 475 888 l 315 736 q 290 715 300 721 q 274 710 281 710 q 260 715 267 710 q 254 728 254 721 q 258 746 254 739 q 269 767 261 753 l 375 932 m 326 0 q 120 82 192 0 q 49 294 49 164 q 74 435 49 374 q 142 537 100 496 q 232 599 183 578 q 326 621 281 621 q 474 585 424 621 q 542 493 524 549 q 561 379 561 438 q 535 356 561 356 l 165 358 q 177 251 165 299 q 210 168 189 203 q 283 92 242 115 q 361 68 324 68 q 458 86 422 68 q 533 143 494 104 q 563 121 557 142 q 463 33 521 67 q 326 0 406 0 m 169 406 l 421 410 q 442 429 442 410 q 424 519 442 488 q 379 563 406 551 q 326 575 353 575 q 292 570 314 575 q 245 549 269 565 q 200 499 221 533 q 169 406 179 464 z "},"ê":{"ha":608,"x_min":49,"x_max":563,"o":"m 346 917 q 418 816 376 868 q 497 722 460 764 q 483 708 492 715 q 465 699 475 701 q 322 814 385 750 q 253 751 289 781 q 178 699 218 722 q 147 722 160 703 q 228 817 185 764 q 301 917 271 869 q 314 919 308 918 q 325 919 319 919 q 335 919 331 919 q 346 917 340 918 m 326 0 q 120 82 192 0 q 49 294 49 164 q 74 435 49 374 q 142 537 100 496 q 232 599 183 578 q 326 621 281 621 q 474 585 424 621 q 542 493 524 549 q 561 379 561 438 q 535 356 561 356 l 165 358 q 177 251 165 299 q 210 168 189 203 q 283 92 242 115 q 361 68 324 68 q 458 86 422 68 q 533 143 494 104 q 563 121 557 142 q 463 33 521 67 q 326 0 406 0 m 169 406 l 421 410 q 442 429 442 410 q 424 519 442 488 q 379 563 406 551 q 326 575 353 575 q 292 570 314 575 q 245 549 269 565 q 200 499 221 533 q 169 406 179 464 z "},"ë":{"ha":608,"x_min":49,"x_max":563,"o":"m 138 799 q 157 846 138 826 q 203 865 176 865 q 249 846 231 865 q 268 799 268 826 q 249 753 268 772 q 203 733 231 733 q 157 753 176 733 q 138 799 138 772 m 372 799 q 392 846 372 826 q 438 865 411 865 q 484 846 465 865 q 503 799 503 826 q 484 753 503 772 q 438 733 465 733 q 392 753 411 733 q 372 799 372 772 m 326 0 q 120 82 192 0 q 49 294 49 164 q 74 435 49 374 q 142 537 100 496 q 232 599 183 578 q 326 621 281 621 q 474 585 424 621 q 542 493 524 549 q 561 379 561 438 q 535 356 561 356 l 165 358 q 177 251 165 299 q 210 168 189 203 q 283 92 242 115 q 361 68 324 68 q 458 86 422 68 q 533 143 494 104 q 563 121 557 142 q 463 33 521 67 q 326 0 406 0 m 169 406 l 421 410 q 442 429 442 410 q 424 519 442 488 q 379 563 406 551 q 326 575 353 575 q 292 570 314 575 q 245 549 269 565 q 200 499 221 533 q 169 406 179 464 z "},"è":{"ha":608,"x_min":49,"x_max":563,"o":"m 292 932 l 389 757 q 396 739 394 747 q 397 724 397 731 q 391 713 397 718 q 376 708 385 708 q 336 736 365 708 l 178 888 l 181 903 q 213 922 189 910 q 271 935 236 935 q 292 932 281 935 m 326 0 q 120 82 192 0 q 49 294 49 164 q 74 435 49 374 q 142 537 100 496 q 232 599 183 578 q 326 621 281 621 q 474 585 424 621 q 542 493 524 549 q 561 379 561 438 q 535 356 561 356 l 165 358 q 177 251 165 299 q 210 168 189 203 q 283 92 242 115 q 361 68 324 68 q 458 86 422 68 q 533 143 494 104 q 563 121 557 142 q 463 33 521 67 q 326 0 406 0 m 169 406 l 421 410 q 442 429 442 410 q 424 519 442 488 q 379 563 406 551 q 326 575 353 575 q 292 570 314 575 q 245 549 269 565 q 200 499 221 533 q 169 406 179 464 z "},"…":{"ha":908,"x_min":47,"x_max":860,"o":"m 663 74 q 692 143 663 114 q 761 172 722 172 q 831 143 801 172 q 860 74 860 114 q 831 5 860 35 q 761 -25 801 -25 q 692 5 722 -25 q 663 74 663 35 m 354 74 q 384 143 354 114 q 453 172 414 172 q 522 143 493 172 q 551 74 551 114 q 522 5 551 35 q 453 -25 493 -25 q 384 5 414 -25 q 354 74 354 35 m 47 74 q 77 143 47 114 q 146 172 107 172 q 215 143 186 172 q 244 74 244 114 q 215 5 244 35 q 146 -25 186 -25 q 77 5 107 -25 q 47 74 47 35 z "},"—":{"ha":890,"x_min":42,"x_max":858,"o":"m 858 229 l 42 229 l 42 326 l 858 326 l 858 229 z "},"–":{"ha":646,"x_min":35,"x_max":606,"o":"m 606 229 l 35 229 l 35 326 l 606 326 l 606 229 z "},"=":{"ha":522,"x_min":19,"x_max":503,"o":"m 458 682 q 494 662 486 682 q 503 614 503 642 q 494 567 503 586 q 458 549 486 549 l 64 549 q 28 567 38 549 q 19 614 19 586 q 28 662 19 642 q 64 682 38 682 l 458 682 m 457 415 q 493 395 485 415 q 501 347 501 375 q 493 301 501 319 q 457 282 485 282 l 64 282 q 28 301 36 282 q 19 347 19 319 q 28 395 19 375 q 64 415 36 415 l 457 415 z "},"ð":{"ha":706,"x_min":50,"x_max":653,"o":"m 629 917 l 468 832 q 653 372 653 640 q 564 82 653 181 q 344 -17 474 -17 q 131 78 213 -17 q 50 288 50 171 q 50 292 50 290 q 149 536 51 447 q 361 625 246 625 l 363 625 q 483 594 426 625 q 388 788 458 703 l 186 679 l 164 725 l 351 824 q 113 943 243 926 q 110 967 106 951 q 122 986 113 981 q 426 868 288 976 l 604 961 l 629 917 m 354 578 q 238 511 282 578 q 192 331 192 443 q 240 115 192 197 q 368 32 288 32 q 518 325 517 32 q 518 335 518 331 q 478 524 518 483 q 354 578 428 578 z "},"!":{"ha":260,"x_min":29,"x_max":229,"o":"m 161 313 q 143 297 158 297 q 133 303 138 297 q 126 314 128 308 q 107 463 118 382 q 83 630 96 544 q 58 797 71 715 q 33 944 44 878 q 39 963 32 954 q 56 972 46 972 l 189 969 q 211 947 211 969 q 203 742 210 853 q 185 520 196 631 q 161 313 175 410 m 129 194 q 199 165 169 194 q 229 94 229 135 q 199 25 229 54 q 129 -4 169 -4 q 59 25 89 -4 q 29 94 29 54 q 59 165 29 135 q 129 194 89 194 z "},"¡":{"ha":385,"x_min":108,"x_max":276,"o":"m 194 624 q 253 600 229 624 q 276 538 276 575 q 253 476 276 500 q 193 451 229 451 q 132 476 156 451 q 108 538 108 500 q 132 600 108 576 q 194 624 156 624 m 192 -315 q 111 -269 111 -315 q 121 -162 111 -260 q 167 328 138 -35 q 194 338 172 338 q 219 328 215 338 q 263 -162 251 -74 q 274 -269 274 -251 q 192 -315 274 -315 z "},"f":{"ha":539,"x_min":24,"x_max":542,"o":"m 236 169 q 242 87 236 113 q 274 53 249 61 q 353 43 299 46 q 360 19 360 36 q 353 -3 360 4 q 270 -1 317 -1 q 182 0 224 0 q 103 -1 140 0 q 29 -3 65 -1 q 24 19 24 3 q 29 43 24 38 q 88 53 67 46 q 118 87 110 61 q 126 169 126 113 l 126 542 l 31 542 q 24 550 24 542 l 24 568 q 31 586 24 576 q 56 596 38 596 l 126 596 l 126 651 q 164 831 126 760 q 258 935 201 901 q 372 969 314 969 q 442 965 413 969 q 497 940 471 960 q 542 869 542 907 q 522 831 542 849 q 485 813 503 813 q 450 826 463 813 q 429 857 438 839 q 397 908 415 893 q 346 922 378 922 q 298 905 324 922 q 254 835 272 888 q 236 675 236 782 l 236 596 l 386 596 q 397 588 397 596 l 397 560 q 386 546 397 550 q 365 542 375 542 l 236 542 l 236 169 z "},"‒":{"ha":646,"x_min":35,"x_max":606,"o":"m 606 229 l 35 229 l 35 326 l 606 326 l 606 229 z "},"⁄":{"ha":563,"x_min":-74,"x_max":585,"o":"m 8 -393 l -74 -393 l 503 1401 l 585 1401 l 8 -393 z "},"g":{"ha":699,"x_min":44,"x_max":669,"o":"m 261 78 q 328 81 286 78 q 392 85 369 85 q 456 83 418 85 q 531 71 493 81 q 594 39 568 61 q 656 -74 656 -10 q 622 -174 656 -129 q 531 -250 588 -219 q 405 -297 474 -281 q 267 -314 336 -314 q 162 -299 213 -314 q 78 -250 111 -285 q 44 -156 44 -215 q 74 -66 44 -111 q 158 13 103 -21 q 113 54 132 26 q 94 119 94 82 q 110 195 94 156 q 156 260 126 235 q 105 324 126 288 q 83 415 83 360 q 117 526 83 479 q 205 600 150 574 q 322 626 260 626 q 419 611 383 626 q 467 588 454 596 q 537 641 494 624 q 606 658 579 658 q 651 644 633 658 q 669 607 669 629 q 653 570 669 586 q 617 554 638 554 q 594 563 607 554 q 578 579 582 571 q 550 596 567 596 q 520 585 538 596 q 494 563 503 574 q 541 499 526 532 q 556 418 556 467 q 522 303 556 350 q 435 231 489 256 q 319 206 381 206 q 194 235 244 206 q 169 154 169 200 q 200 94 169 110 q 261 78 231 78 m 444 404 q 410 537 444 490 q 308 583 375 583 q 197 436 197 583 q 206 349 197 392 q 242 277 214 306 q 328 249 269 249 q 380 260 353 249 q 426 306 407 272 q 444 404 444 340 m 183 3 q 148 -62 154 -33 q 142 -128 142 -92 q 160 -188 142 -162 q 206 -231 179 -214 q 262 -255 233 -247 q 308 -262 290 -262 q 434 -245 371 -262 q 539 -194 497 -228 q 581 -110 581 -160 q 565 -64 581 -82 q 508 -24 550 -46 q 437 -3 479 -7 q 342 0 394 0 q 300 -2 328 0 q 239 -4 272 -4 q 183 3 211 -4 z "},"ß":{"ha":764,"x_min":39,"x_max":726,"o":"m 140 608 l 140 625 q 158 744 140 693 q 276 915 186 842 q 453 988 356 979 q 614 929 553 985 q 676 778 675 874 q 661 722 676 744 q 522 538 522 618 q 539 489 522 514 q 568 450 554 463 q 617 403 581 436 q 726 218 726 308 q 640 53 726 124 q 468 -18 553 -18 q 392 0 422 -18 q 363 42 363 19 q 364 49 363 44 q 390 86 368 69 q 419 88 407 99 q 522 46 472 46 q 586 72 557 46 q 614 153 614 99 q 592 229 614 194 q 524 304 569 263 q 408 479 408 404 q 431 550 408 517 q 504 640 451 583 q 561 700 557 693 q 571 747 571 713 q 571 751 571 750 q 526 874 571 819 q 410 928 479 928 q 332 899 363 928 q 286 814 300 869 q 268 700 272 757 q 263 560 263 642 l 263 144 q 275 63 263 81 q 333 39 286 44 l 333 0 l 43 0 l 43 39 q 125 63 108 44 q 140 143 140 79 l 140 546 l 44 546 l 39 563 l 76 608 l 140 608 z "},"`":{"ha":272,"x_min":1,"x_max":256,"o":"m 204 703 l 1 993 q 1 996 1 993 q 6 999 1 999 l 100 999 l 254 714 q 256 710 256 713 q 250 703 256 703 l 204 703 z "},"̀":{"ha":1,"x_min":-432,"x_max":-164,"o":"m -167 756 q -164 742 -164 750 q -170 720 -164 731 q -186 707 -176 710 q -199 706 -192 706 q -237 724 -225 706 l -428 1021 q -425 1036 -432 1028 q -410 1044 -418 1044 l -331 1044 q -300 1025 -310 1044 l -167 756 z "},">":{"ha":833,"x_min":56,"x_max":810,"o":"m 56 117 l 643 411 l 56 706 l 56 789 l 810 411 l 56 35 l 56 117 z "},"«":{"ha":708,"x_min":67,"x_max":690,"o":"m 690 -7 l 610 -7 l 354 303 l 610 607 l 690 607 l 533 303 l 690 -7 m 396 -7 l 318 -7 l 67 303 l 318 607 l 396 607 l 238 303 l 396 -7 z "},"»":{"ha":708,"x_min":18,"x_max":642,"o":"m 18 607 l 99 607 l 354 300 l 99 -7 l 18 -7 l 175 300 l 18 607 m 313 607 l 390 607 l 642 300 l 390 -7 l 313 -7 l 471 300 l 313 607 z "},"‹":{"ha":365,"x_min":57,"x_max":310,"o":"m 310 74 l 276 51 q 57 308 144 224 q 276 565 151 403 l 310 543 l 183 308 l 310 74 z "},"›":{"ha":367,"x_min":57,"x_max":311,"o":"m 57 543 l 90 565 q 311 308 218 404 q 90 51 210 204 l 57 74 l 185 308 l 57 543 z "},"h":{"ha":739,"x_min":21,"x_max":733,"o":"m 233 397 l 233 169 q 240 87 233 113 q 264 53 246 61 q 317 43 282 46 q 324 19 324 36 q 317 -3 324 4 q 253 -1 288 -1 q 179 0 219 0 q 99 -1 138 0 q 26 -3 61 -1 q 21 19 21 3 q 26 43 21 38 q 88 53 67 46 q 116 87 108 61 q 124 169 124 113 l 124 776 q 117 858 124 835 q 90 885 110 881 q 35 890 71 889 q 25 921 25 900 q 26 927 25 924 q 26 932 26 931 q 93 941 54 935 q 168 955 132 947 q 221 969 204 963 q 239 956 239 969 q 236 917 239 956 q 233 810 233 878 l 233 497 q 238 488 233 483 q 246 497 243 493 q 370 589 310 568 q 482 610 431 610 q 549 598 518 610 q 597 563 579 586 q 628 482 622 531 q 635 376 635 433 l 635 169 q 642 87 635 113 q 669 54 649 61 q 728 43 689 47 q 733 19 733 38 q 728 -3 733 3 q 658 -1 693 -1 q 581 0 622 0 q 503 -1 539 0 q 439 -3 468 -1 q 433 19 433 6 q 439 43 433 35 q 494 54 475 47 q 519 87 513 61 q 525 169 525 113 l 525 381 q 522 440 525 413 q 508 488 519 467 q 477 523 497 511 q 435 535 457 535 q 346 515 394 535 q 257 456 297 494 q 241 433 249 446 q 233 397 233 419 z "},"-":{"ha":500,"x_min":38,"x_max":463,"o":"m 463 229 l 38 229 l 38 326 l 463 326 l 463 229 z "},"i":{"ha":393,"x_min":36,"x_max":358,"o":"m 125 832 q 149 878 125 857 q 197 899 172 899 q 245 875 226 899 q 264 826 264 851 q 242 782 264 804 q 192 760 221 760 q 146 783 167 760 q 125 832 125 806 m 253 169 q 260 87 253 113 q 288 53 267 61 q 353 43 310 46 q 358 19 358 35 q 353 -3 358 6 q 278 -1 318 -1 q 197 0 239 0 q 117 -1 156 0 q 42 -3 78 -1 q 36 19 36 6 q 42 43 36 35 q 106 54 85 47 q 135 87 128 61 q 142 169 142 113 l 142 440 q 135 499 142 481 q 110 526 129 518 q 53 536 90 533 q 50 556 51 543 q 50 574 49 568 q 165 593 121 583 q 239 614 210 603 q 258 604 258 614 q 257 579 258 604 q 254 517 256 554 q 253 446 253 481 l 253 169 z "},"í":{"ha":379,"x_min":44,"x_max":358,"o":"m 178 683 l 140 703 q 171 778 151 728 q 208 872 190 826 l 229 924 q 289 935 240 929 q 336 939 319 939 q 349 938 344 939 l 354 924 l 178 683 m 358 0 l 44 0 l 44 38 q 125 63 110 44 q 140 153 140 81 l 140 428 q 128 513 140 496 q 56 539 115 529 l 56 572 q 263 626 178 593 l 263 153 q 278 63 263 81 q 358 38 292 44 l 358 0 z "},"î":{"ha":379,"x_min":28,"x_max":358,"o":"m 347 706 l 313 681 q 188 814 264 724 q 63 681 111 724 l 28 706 q 169 935 101 808 l 207 935 q 347 706 271 813 m 358 0 l 44 0 l 44 38 q 125 63 110 44 q 140 153 140 81 l 140 428 q 128 513 140 496 q 56 539 115 529 l 56 572 q 263 626 178 593 l 263 153 q 278 63 263 81 q 358 38 292 44 l 358 0 z "},"ï":{"ha":379,"x_min":-7,"x_max":379,"o":"m 64 742 q 15 764 36 742 q -7 813 -7 785 q 15 865 -7 843 q 65 886 36 886 q 117 865 96 886 q 136 813 136 844 q 115 763 136 783 q 64 742 94 742 m 308 742 q 258 764 279 742 q 238 813 238 785 q 258 865 238 843 q 310 886 279 886 q 360 865 339 886 q 379 813 379 843 q 358 763 379 783 q 308 742 338 742 m 358 0 l 44 0 l 44 38 q 125 63 110 44 q 140 153 140 81 l 140 428 q 128 513 140 496 q 54 539 114 529 l 54 572 q 263 626 179 594 l 263 153 q 278 63 263 81 q 358 38 292 44 l 358 0 z "},"ì":{"ha":379,"x_min":35,"x_max":358,"o":"m 239 699 l 200 681 l 35 901 l 39 914 q 93 929 50 921 q 147 935 129 935 q 153 935 150 935 l 239 699 m 358 0 l 44 0 l 44 38 q 125 63 110 44 q 140 153 140 81 l 140 428 q 128 513 140 496 q 56 539 115 529 l 56 572 q 263 626 178 593 l 263 153 q 278 63 263 81 q 358 38 292 44 l 358 0 z "},"j":{"ha":343,"x_min":-76,"x_max":267,"o":"m 128 865 q 151 911 128 890 q 200 932 175 932 q 247 908 228 932 q 267 860 267 885 q 245 815 267 838 q 194 793 224 793 q 149 816 169 793 q 128 865 128 839 m 147 472 q 140 531 147 513 q 114 558 133 550 q 57 568 94 565 q 54 588 56 575 q 54 607 53 601 q 171 626 126 617 q 244 647 215 636 q 263 638 263 647 q 261 613 263 638 q 258 551 260 588 q 257 479 257 514 l 257 186 q 244 -26 257 56 q 209 -156 232 -108 q 153 -229 186 -203 q 68 -269 114 -261 q 0 -276 22 -276 q -48 -262 -19 -276 q -76 -217 -76 -247 q -60 -181 -76 -197 q -32 -164 -43 -164 q 6 -176 -8 -164 q 29 -200 19 -189 q 72 -215 44 -215 q 123 -165 107 -215 q 143 -33 139 -114 q 147 139 147 47 l 147 472 z "},"k":{"ha":731,"x_min":22,"x_max":708,"o":"m 122 169 l 122 776 q 116 856 122 832 q 92 885 110 879 q 43 890 75 890 l 33 890 q 24 921 24 900 q 24 927 24 924 q 25 932 25 931 q 92 938 53 932 q 167 953 131 944 q 219 969 203 963 q 238 956 238 969 q 235 917 238 956 q 232 810 232 878 l 232 325 q 326 368 276 329 q 384 419 354 388 q 438 482 414 451 q 449 499 443 489 q 456 521 456 510 q 445 542 456 532 q 406 553 435 553 q 400 575 400 558 q 406 599 400 593 q 466 597 429 599 q 542 596 503 596 q 609 597 579 596 q 663 599 639 599 q 669 575 669 592 q 663 553 669 560 q 585 539 621 553 q 517 492 549 525 l 394 365 q 389 351 389 360 q 399 332 389 342 l 582 101 q 638 57 610 67 q 701 43 667 47 q 708 19 708 36 q 701 -3 708 4 q 650 -1 681 -3 q 588 0 619 0 q 544 -1 567 0 q 501 -3 522 -3 q 496 4 496 -3 q 482 38 496 15 q 438 101 468 60 l 336 238 q 292 282 313 268 q 232 290 271 290 l 232 169 q 238 87 232 113 q 260 53 244 61 q 304 43 276 46 q 311 19 311 36 q 304 -3 311 4 q 247 -1 281 -1 q 178 0 214 0 q 100 -1 136 0 q 29 -3 64 -1 q 22 19 22 4 q 29 43 22 36 q 88 53 68 46 q 115 87 108 61 q 122 169 122 113 z "},"l":{"ha":369,"x_min":24,"x_max":346,"o":"m 131 169 l 131 776 q 125 852 131 829 q 101 881 119 875 q 42 890 82 888 q 34 903 36 894 q 32 921 32 913 q 33 932 32 929 q 100 941 61 935 q 174 955 139 947 q 228 969 210 963 q 244 956 244 969 q 242 917 244 956 q 239 810 239 878 l 239 169 q 247 86 239 113 q 276 53 254 60 q 339 43 297 46 q 346 19 346 38 q 339 -3 346 3 q 267 -1 306 -1 q 186 0 228 0 q 106 -1 144 0 q 31 -3 67 -1 q 24 19 24 3 q 31 43 24 38 q 94 53 72 46 q 123 86 115 60 q 131 169 131 113 z "},"<":{"ha":849,"x_min":56,"x_max":810,"o":"m 810 706 l 224 411 l 810 118 l 810 35 l 56 411 l 810 789 l 810 706 z "},"¬":{"ha":647,"x_min":35,"x_max":611,"o":"m 611 92 l 528 92 l 528 231 l 35 229 l 35 326 l 611 326 l 611 92 z "},"ſ":{"ha":422,"x_min":24,"x_max":542,"o":"m 236 675 l 236 169 q 242 85 236 113 q 274 51 249 58 q 353 43 299 43 q 360 19 360 36 q 353 0 360 7 l 29 0 q 24 19 24 6 q 29 43 24 38 q 88 51 67 43 q 118 85 110 58 q 126 169 126 113 l 126 542 l 31 542 q 24 550 24 542 l 24 568 q 31 588 24 576 q 56 599 38 599 l 126 599 l 126 651 q 164 831 126 760 q 258 935 201 901 q 372 969 314 969 q 442 965 413 969 q 497 940 471 960 q 542 869 542 907 q 522 831 542 849 q 485 813 503 813 q 450 826 463 813 q 429 857 438 839 q 397 908 415 893 q 346 922 378 922 q 298 905 324 922 q 254 835 272 888 q 236 675 236 782 z "},"m":{"ha":1101,"x_min":19,"x_max":1074,"o":"m 226 497 q 232 488 226 485 q 243 497 238 492 q 340 578 286 546 q 454 610 394 610 q 546 580 508 610 q 593 507 583 550 q 601 501 596 499 q 608 507 606 504 q 723 587 663 564 q 838 610 783 610 q 929 581 899 610 q 970 501 960 551 q 981 389 981 451 l 981 169 q 987 85 981 113 q 1013 51 993 58 q 1069 43 1032 43 q 1074 19 1074 38 q 1069 -3 1074 4 q 1004 -1 1040 -3 q 926 0 968 0 q 848 -1 885 0 q 785 -3 811 -3 q 779 19 779 3 q 785 43 779 38 q 840 51 821 43 q 865 85 858 58 q 871 169 871 113 l 871 414 q 849 509 871 483 q 788 535 828 535 q 701 518 747 535 q 604 446 654 501 q 605 419 604 433 q 606 390 606 406 l 606 169 q 612 85 606 113 q 635 51 618 58 q 688 43 653 43 q 692 19 692 38 q 688 -3 692 4 q 627 -1 661 -3 q 551 0 593 0 q 473 -1 510 0 q 410 -3 436 -1 q 404 19 404 3 q 410 43 404 38 q 466 53 447 46 q 490 87 485 61 q 496 169 496 113 l 496 411 q 470 508 496 481 q 404 535 444 535 q 254 456 336 535 q 238 433 246 446 q 231 397 231 419 l 231 169 q 238 87 231 113 q 263 54 244 61 q 315 43 281 47 q 322 19 322 36 q 315 -3 322 4 q 251 -1 285 -1 q 176 0 218 0 q 97 -1 135 0 q 26 -3 58 -1 q 19 19 19 4 q 26 43 19 36 q 85 53 65 46 q 113 87 106 61 q 121 169 121 113 l 121 440 q 114 499 121 481 q 88 525 107 518 q 31 535 68 532 q 28 555 29 542 q 28 574 26 568 q 135 593 100 583 q 199 614 169 603 q 210 610 207 614 q 215 603 214 607 q 222 560 219 592 q 226 497 225 528 z "},"¯":{"ha":556,"x_min":122,"x_max":435,"o":"m 435 760 l 122 760 l 122 840 l 435 840 l 435 760 z "},"−":{"ha":500,"x_min":38,"x_max":463,"o":"m 463 229 l 38 229 l 38 326 l 463 326 l 463 229 z "},"µ":{"ha":718,"x_min":94,"x_max":714,"o":"m 699 78 l 714 42 q 660 1 694 18 q 589 -17 625 -17 q 515 13 546 -17 q 478 89 485 40 l 475 89 q 294 -17 382 -17 q 182 42 222 -17 l 176 42 l 176 19 q 176 8 176 14 q 193 -172 176 -64 q 226 -336 211 -290 l 208 -353 q 153 -333 185 -351 q 101 -299 119 -317 q 99 64 99 -289 l 99 464 q 94 599 99 549 l 217 625 q 221 476 221 592 l 221 239 q 258 113 221 151 q 344 74 294 74 q 474 142 418 74 l 474 599 l 596 625 l 596 161 q 651 65 596 65 q 699 78 676 65 z "},"×":{"ha":804,"x_min":82,"x_max":724,"o":"m 724 68 l 669 13 l 401 286 l 135 13 l 82 68 l 347 342 l 82 614 l 135 669 l 401 397 l 669 671 l 724 617 l 456 342 l 724 68 z "},"n":{"ha":786,"x_min":42,"x_max":746,"o":"m 267 497 q 385 589 328 568 q 494 610 443 610 q 561 598 531 610 q 610 563 592 586 q 640 482 633 531 q 647 376 647 433 l 647 169 q 654 87 647 113 q 681 54 661 61 q 740 43 701 47 q 746 19 746 38 q 740 -3 746 3 q 672 -1 710 -1 q 593 0 635 0 q 517 -1 551 0 q 451 -3 483 -1 q 446 19 446 3 q 451 43 446 38 q 506 54 488 47 q 531 87 525 61 q 538 169 538 113 l 538 381 q 535 440 538 413 q 521 488 532 467 q 488 523 508 511 q 447 535 468 535 q 363 515 407 535 q 278 456 318 494 q 262 433 269 446 q 254 397 254 419 l 254 169 q 260 87 254 113 q 285 54 267 61 q 339 43 304 47 q 344 19 344 38 q 339 -3 344 3 q 275 -1 308 -1 q 200 0 242 0 q 119 -1 158 0 q 47 -3 79 -1 q 42 19 42 3 q 47 43 42 38 q 110 54 89 47 q 138 87 131 61 q 144 169 144 113 l 144 440 q 138 499 144 481 q 111 525 131 518 q 54 535 92 532 q 51 555 53 542 q 51 574 50 568 q 158 593 124 583 q 222 614 193 603 q 234 610 231 614 q 239 603 238 607 q 247 558 244 592 q 250 497 249 525 q 256 489 250 488 q 267 497 261 490 z "}," ":{"ha":417,"x_min":0,"x_max":0,"o":""},"ñ":{"ha":786,"x_min":42,"x_max":746,"o":"m 308 869 q 369 851 344 869 q 420 815 394 833 q 481 796 446 796 q 518 810 504 796 q 546 868 532 825 q 583 860 568 869 q 541 760 571 797 q 463 722 511 722 q 418 738 440 722 q 374 767 396 753 q 336 785 356 778 q 299 793 317 793 q 259 777 272 793 q 235 726 246 761 q 197 733 208 722 q 238 832 213 794 q 308 869 264 869 m 267 497 q 385 589 328 568 q 494 610 443 610 q 561 598 531 610 q 610 563 592 586 q 640 482 633 531 q 647 376 647 433 l 647 169 q 654 87 647 113 q 681 54 661 61 q 740 43 701 47 q 746 19 746 38 q 740 -3 746 3 q 672 -1 710 -1 q 593 0 635 0 q 517 -1 551 0 q 451 -3 483 -1 q 446 19 446 3 q 451 43 446 38 q 506 54 488 47 q 531 87 525 61 q 538 169 538 113 l 538 381 q 535 440 538 413 q 521 488 532 467 q 488 523 508 511 q 447 535 468 535 q 363 515 407 535 q 278 456 318 494 q 262 433 269 446 q 254 397 254 419 l 254 169 q 260 87 254 113 q 285 54 267 61 q 339 43 304 47 q 344 19 344 38 q 339 -3 344 3 q 275 -1 308 -1 q 200 0 242 0 q 119 -1 158 0 q 47 -3 79 -1 q 42 19 42 3 q 47 43 42 38 q 110 54 89 47 q 138 87 131 61 q 144 169 144 113 l 144 440 q 138 499 144 481 q 111 525 131 518 q 54 535 92 532 q 51 555 53 542 q 51 574 50 568 q 158 593 124 583 q 222 614 193 603 q 234 610 231 614 q 239 603 238 607 q 247 558 244 592 q 250 497 249 525 q 256 489 250 488 q 267 497 261 490 z "},"#":{"ha":724,"x_min":7,"x_max":689,"o":"m 654 376 l 654 300 l 503 300 l 460 0 l 379 0 l 422 300 l 236 300 l 190 0 l 110 0 l 156 300 l 7 300 l 7 376 l 168 376 l 197 563 l 44 563 l 44 639 l 208 639 l 251 919 l 332 919 l 289 639 l 474 639 l 515 919 l 596 919 l 554 639 l 689 639 l 689 563 l 543 563 l 515 376 l 654 376 m 463 563 l 278 563 l 249 376 l 435 376 l 463 563 z "},"o":{"ha":676,"x_min":63,"x_max":649,"o":"m 649 311 q 614 156 649 226 q 513 42 579 85 q 354 0 447 0 q 191 45 256 0 q 94 159 126 90 q 63 299 63 228 q 99 463 63 389 q 201 580 135 536 q 357 624 267 624 q 492 596 436 624 q 583 522 549 568 q 633 420 617 475 q 649 311 649 365 m 336 575 q 240 539 274 575 q 194 447 207 503 q 182 331 182 392 q 192 242 182 290 q 224 149 201 193 q 283 77 246 106 q 374 49 319 49 q 443 67 407 49 q 504 132 479 85 q 529 267 529 179 q 478 496 529 417 q 336 575 426 575 z "},"ó":{"ha":713,"x_min":50,"x_max":663,"o":"m 344 683 l 307 703 q 338 778 318 728 q 375 872 357 826 l 396 924 q 456 935 407 929 q 503 939 486 939 q 515 938 511 939 l 521 924 l 344 683 m 361 625 q 576 535 490 625 q 663 314 663 443 q 569 71 663 157 q 358 -17 476 -17 q 135 75 218 -17 q 50 290 50 167 q 101 478 50 399 q 222 592 153 557 q 361 625 290 625 m 342 578 q 236 514 279 578 q 192 336 192 450 q 242 117 192 203 q 374 31 292 31 q 521 282 521 31 q 474 496 521 413 q 342 578 426 578 z "},"ô":{"ha":713,"x_min":50,"x_max":663,"o":"m 515 706 l 481 681 q 356 814 432 724 q 231 681 279 724 l 196 706 q 338 935 269 808 l 375 935 q 515 706 439 813 m 361 625 q 576 535 490 625 q 663 314 663 443 q 569 71 663 157 q 358 -17 476 -17 q 135 75 218 -17 q 50 290 50 167 q 101 478 50 399 q 222 592 153 557 q 361 625 290 625 m 342 578 q 236 514 279 578 q 192 336 192 450 q 242 117 192 203 q 374 31 292 31 q 521 282 521 31 q 474 496 521 413 q 342 578 426 578 z "},"ö":{"ha":713,"x_min":50,"x_max":663,"o":"m 233 742 q 185 764 206 742 q 164 814 164 785 q 185 865 164 844 q 235 886 206 886 q 286 865 265 886 q 306 814 306 844 q 285 764 306 785 q 233 742 264 742 m 476 742 q 428 764 449 742 q 407 814 407 785 q 428 865 407 844 q 478 886 449 886 q 529 865 508 886 q 549 814 549 844 q 528 764 549 785 q 476 742 507 742 m 360 625 q 576 535 489 625 q 663 314 663 443 q 569 71 663 158 q 358 -17 476 -17 q 135 75 218 -17 q 50 290 50 167 q 101 478 50 399 q 221 592 153 557 q 360 625 289 625 m 342 578 q 236 514 279 578 q 192 336 192 450 q 242 117 192 203 q 374 31 292 31 q 521 282 521 31 q 474 496 521 413 q 342 578 426 578 z "},"œ":{"ha":1069,"x_min":49,"x_max":1035,"o":"m 354 625 q 489 589 428 625 q 586 490 550 553 q 689 588 625 549 q 818 625 753 625 q 972 561 908 625 q 1035 413 1035 497 q 1029 379 1035 388 q 1004 365 1022 369 q 635 342 936 351 q 635 336 635 339 q 696 149 635 213 q 849 82 757 82 q 1003 150 925 82 l 1025 119 q 910 15 972 46 q 799 -17 846 -17 q 574 101 649 -17 q 472 14 532 43 q 350 -17 411 -17 q 132 78 214 -17 q 49 292 49 171 q 79 439 49 372 q 156 544 108 506 q 254 604 201 583 q 354 625 306 625 m 339 576 q 235 513 278 576 q 192 336 192 447 q 240 117 192 201 q 371 32 289 32 q 475 94 433 32 q 517 288 517 156 q 471 497 517 418 q 339 576 424 576 m 783 572 q 693 526 735 572 q 642 397 651 479 q 715 399 668 397 q 803 400 763 399 q 878 401 842 400 q 907 433 907 401 q 874 532 907 492 q 783 572 839 572 z "},"ò":{"ha":713,"x_min":50,"x_max":663,"o":"m 410 699 l 371 681 l 206 901 l 210 914 q 264 929 221 921 q 318 935 300 935 q 324 935 321 935 l 410 699 m 361 625 q 576 535 490 625 q 663 314 663 443 q 569 71 663 157 q 358 -17 476 -17 q 135 75 218 -17 q 50 290 50 167 q 101 478 50 399 q 222 592 153 557 q 361 625 290 625 m 342 578 q 236 514 279 578 q 192 336 192 450 q 242 117 192 203 q 374 31 292 31 q 521 282 521 31 q 474 496 521 413 q 342 578 426 578 z "},"․":{"ha":300,"x_min":47,"x_max":244,"o":"m 47 74 q 77 143 47 114 q 146 172 107 172 q 215 143 186 172 q 244 74 244 114 q 215 5 244 35 q 146 -25 186 -25 q 77 5 107 -25 q 47 74 47 35 z "},"½":{"ha":1065,"x_min":99,"x_max":982,"o":"m 821 875 l 257 -40 l 213 -6 l 772 908 l 821 875 m 378 385 l 100 385 l 100 418 q 174 438 157 422 q 190 501 190 451 l 190 743 q 182 793 190 783 q 139 806 174 803 l 99 808 l 99 842 q 289 882 194 853 l 289 501 q 306 439 289 451 q 378 418 321 425 l 378 385 m 951 136 l 982 126 q 949 0 960 51 l 608 0 l 608 32 q 682 93 656 69 q 753 160 708 115 q 819 244 797 203 q 842 324 842 286 q 817 399 842 372 q 751 424 792 424 q 635 349 690 424 l 610 374 l 656 436 q 792 499 704 499 q 901 458 856 499 q 947 349 946 418 q 915 256 947 300 q 800 140 882 211 l 729 79 l 731 76 l 857 76 q 915 88 897 76 q 951 136 932 97 z "},"¼":{"ha":1064,"x_min":108,"x_max":958,"o":"m 840 875 l 276 -40 l 232 -6 l 793 908 l 840 875 m 388 385 l 110 385 l 110 418 q 183 438 167 422 q 200 501 200 451 l 200 743 q 193 793 200 783 q 149 806 185 803 l 108 808 l 108 842 q 300 882 206 853 l 299 501 q 315 439 299 451 q 388 418 331 425 l 388 385 m 958 138 l 878 138 l 878 100 q 892 49 878 60 q 953 32 906 36 l 953 0 l 697 0 l 697 32 q 771 49 754 36 q 786 100 786 60 l 786 138 l 563 138 l 563 171 q 819 499 714 372 l 878 499 l 878 190 l 958 192 l 958 138 m 786 192 l 786 392 l 782 392 q 636 192 717 308 l 786 192 z "},"ª":{"ha":431,"x_min":44,"x_max":415,"o":"m 415 419 l 325 374 q 260 428 276 375 q 154 374 176 374 q 76 407 108 374 q 44 481 44 439 q 113 565 44 540 q 157 582 117 567 q 221 607 197 596 q 257 626 243 617 l 257 642 q 239 696 257 675 q 190 715 221 715 q 126 642 147 715 q 96 619 119 619 q 65 632 81 619 q 50 661 50 644 q 79 700 50 679 q 218 760 142 747 q 311 729 278 760 q 343 636 343 697 l 343 486 q 372 439 343 439 q 406 447 388 439 l 415 419 m 257 461 l 257 588 q 218 569 249 582 q 178 551 188 557 q 138 497 138 531 q 156 453 138 468 q 197 436 174 436 q 257 461 229 436 z "},"º":{"ha":474,"x_min":36,"x_max":433,"o":"m 239 760 q 379 706 324 760 q 433 572 433 650 q 372 428 432 481 q 236 374 313 374 q 90 431 144 374 q 36 563 36 488 q 101 707 38 654 q 239 760 164 760 m 225 721 q 167 685 192 721 q 142 582 142 649 q 171 461 142 508 q 243 414 200 414 q 329 551 328 414 q 329 558 329 556 q 303 674 329 629 q 225 721 274 721 z "},"ø":{"ha":717,"x_min":50,"x_max":667,"o":"m 603 632 l 554 560 q 667 315 667 467 q 574 72 667 160 q 361 -17 481 -17 q 200 25 275 -17 l 147 -50 l 111 -19 l 163 53 q 79 161 108 97 q 50 292 50 224 q 81 439 50 372 q 157 544 110 504 q 258 604 204 583 q 364 625 313 625 q 515 585 446 625 l 565 658 l 603 632 m 224 144 l 467 514 q 349 578 424 578 q 233 511 281 578 q 185 325 185 444 q 224 144 185 218 m 494 469 l 253 100 q 375 29 296 29 q 489 94 443 29 q 533 296 533 158 q 494 469 533 396 z "},"õ":{"ha":713,"x_min":50,"x_max":663,"o":"m 207 721 l 171 744 q 286 874 213 874 q 368 846 314 874 q 443 819 421 819 q 504 883 475 819 l 540 864 q 428 733 501 733 q 336 765 394 733 q 271 788 297 788 q 207 721 235 788 m 361 625 q 576 535 490 625 q 663 314 663 443 q 569 71 663 157 q 358 -17 476 -17 q 135 75 218 -17 q 50 290 50 167 q 101 478 50 399 q 222 592 153 557 q 361 625 290 625 m 342 578 q 236 514 279 578 q 192 336 192 450 q 242 117 192 203 q 374 31 292 31 q 521 282 521 31 q 474 496 521 413 q 342 578 426 578 z "},"p":{"ha":693,"x_min":7,"x_max":668,"o":"m 668 339 q 631 167 668 243 q 525 45 593 90 q 363 0 457 0 q 242 21 294 0 q 227 25 232 25 q 222 11 222 25 l 222 -139 q 230 -222 222 -196 q 263 -255 238 -247 q 336 -265 288 -262 q 343 -289 343 -272 q 336 -311 343 -304 q 256 -309 301 -310 q 168 -308 210 -308 q 88 -309 126 -308 q 13 -311 49 -310 q 7 -289 7 -306 q 13 -265 7 -271 q 76 -256 56 -262 q 105 -222 97 -249 q 113 -139 113 -196 l 113 454 q 106 513 113 494 q 79 539 99 532 q 22 549 60 546 q 19 569 21 556 q 19 588 18 582 q 126 607 92 597 q 190 628 161 617 q 202 624 199 628 q 207 617 206 621 q 215 581 213 606 q 218 525 217 557 q 224 514 219 515 q 233 519 228 513 q 326 594 275 565 q 424 624 376 624 q 549 583 494 624 q 636 478 604 543 q 668 339 668 413 m 244 474 q 228 447 233 458 q 222 413 222 435 l 222 160 q 228 109 222 122 q 256 76 235 96 q 306 53 275 60 q 354 47 336 47 q 451 71 413 47 q 510 133 489 94 q 541 215 532 171 q 550 303 550 260 q 527 440 550 382 q 467 528 504 497 q 385 560 429 560 q 313 533 354 560 q 244 474 272 507 z "},"¶":{"ha":853,"x_min":47,"x_max":663,"o":"m 326 -385 l 326 379 q 133 457 207 381 q 49 621 65 531 q 48 644 49 628 q 47 672 47 661 q 49 682 47 682 q 49 682 49 682 q 124 856 50 774 q 326 942 196 933 l 438 942 l 438 -385 l 326 -385 m 550 -385 l 550 942 l 663 942 l 663 -385 l 550 -385 z "},"(":{"ha":443,"x_min":71,"x_max":504,"o":"m 231 435 q 237 235 231 339 q 260 31 243 131 q 308 -152 278 -68 q 387 -293 339 -236 q 504 -368 435 -350 l 504 -401 q 360 -341 426 -392 q 240 -209 293 -290 q 149 -28 186 -128 q 91 182 111 72 q 71 397 71 292 q 71 410 71 403 q 90 621 71 513 q 147 829 110 729 q 238 1012 185 929 q 358 1149 290 1094 q 504 1218 425 1204 l 504 1192 q 385 1121 433 1174 q 306 990 336 1068 q 258 820 275 913 q 236 629 242 728 q 231 435 231 531 z "},")":{"ha":443,"x_min":-61,"x_max":372,"o":"m -61 -368 q 58 -292 10 -350 q 137 -148 106 -233 q 184 39 168 -62 q 206 246 200 140 q 213 449 213 351 q 206 640 213 543 q 183 828 200 738 q 136 995 167 919 q 58 1122 106 1071 q -61 1192 10 1174 l -61 1218 q 85 1149 18 1204 q 206 1012 153 1094 q 296 829 258 929 q 353 621 333 729 q 372 410 372 513 q 353 197 372 307 q 296 -15 333 88 q 206 -202 258 -118 q 85 -339 153 -286 q -61 -401 18 -392 l -61 -368 z "},"%":{"ha":1132,"x_min":85,"x_max":1072,"o":"m 249 401 q 166 426 203 401 q 107 492 129 451 q 85 578 85 532 q 178 814 85 708 q 392 919 274 919 q 461 900 436 919 q 524 862 492 879 q 610 844 556 844 q 722 865 676 844 q 773 894 747 876 q 826 939 799 913 l 881 939 l 346 -18 l 279 -18 l 767 851 q 614 810 694 810 q 524 824 557 810 q 533 763 533 790 q 450 517 533 633 q 249 401 368 401 m 190 533 q 213 473 190 497 q 272 449 236 449 q 428 547 357 449 q 499 765 499 647 q 486 833 499 792 q 446 847 467 839 q 414 864 425 854 q 404 873 410 868 q 392 878 399 878 q 258 756 325 878 q 190 533 190 636 m 790 0 q 669 51 714 0 q 624 179 624 101 q 717 413 624 308 q 929 515 813 515 q 1035 476 999 515 q 1072 367 1072 436 q 1037 198 1072 276 q 953 71 1001 119 q 790 0 882 0 m 729 131 q 753 67 729 92 q 814 42 776 42 q 899 71 861 42 q 965 141 938 100 q 1008 219 993 182 q 1036 360 1036 296 q 1008 437 1036 403 q 939 471 981 471 q 872 448 903 471 q 817 390 842 425 q 776 318 793 356 q 750 250 758 281 q 729 131 729 175 z "},".":{"ha":244,"x_min":15,"x_max":215,"o":"m 115 194 q 185 165 156 194 q 215 94 215 135 q 185 25 215 54 q 115 -4 156 -4 q 45 25 75 -4 q 15 94 15 54 q 45 165 15 135 q 115 194 75 194 z "},"·":{"ha":221,"x_min":51,"x_max":174,"o":"m 51 299 q 69 343 51 325 q 113 361 88 361 q 156 343 138 361 q 174 299 174 325 q 156 254 174 272 q 113 236 138 236 q 69 254 88 236 q 51 299 51 272 z "},"+":{"ha":629,"x_min":0,"x_max":625,"o":"m 0 467 l 250 467 l 250 722 l 385 722 l 385 467 l 625 467 l 625 333 l 385 333 l 385 67 l 250 67 l 250 333 l 0 333 l 0 467 z "},"±":{"ha":804,"x_min":71,"x_max":735,"o":"m 735 431 l 446 431 l 446 150 l 361 150 l 361 431 l 71 431 l 71 503 l 361 503 l 361 765 l 446 765 l 446 503 l 735 503 l 735 431 m 735 0 l 71 0 l 71 72 l 735 72 l 735 0 z "},"q":{"ha":739,"x_min":50,"x_max":699,"o":"m 485 -142 l 482 14 q 475 35 482 35 q 444 21 467 35 q 396 6 426 11 q 338 0 365 0 q 208 28 263 0 q 119 102 154 57 q 67 200 83 147 q 50 301 50 253 q 88 466 50 393 q 193 581 126 539 q 344 624 260 624 q 429 614 389 624 q 501 583 469 604 q 515 576 511 576 q 542 601 525 576 q 557 620 550 613 q 571 628 564 628 q 587 618 582 628 q 592 593 592 608 l 592 -140 q 599 -223 592 -197 q 628 -256 607 -249 q 692 -265 650 -262 q 699 -289 699 -272 q 692 -311 699 -304 q 618 -309 657 -310 q 538 -308 579 -308 q 457 -309 496 -308 q 382 -311 418 -310 q 376 -289 376 -306 q 382 -265 376 -271 q 447 -256 425 -262 q 476 -224 468 -250 q 485 -142 485 -199 m 449 525 q 339 576 403 576 q 213 507 256 576 q 169 329 169 438 q 189 199 169 250 q 240 117 208 147 q 306 74 271 86 q 371 61 340 61 q 413 64 388 61 q 463 79 439 67 q 479 94 476 86 q 482 121 482 103 l 482 440 q 476 484 482 465 q 449 525 469 503 z "},"?":{"ha":511,"x_min":60,"x_max":474,"o":"m 179 1085 q 320 1060 253 1085 q 431 987 388 1035 q 474 869 474 939 q 353 676 474 772 l 304 636 q 208 510 208 560 q 322 396 208 433 q 224 290 267 361 q 97 388 132 329 q 218 622 117 492 l 251 667 q 338 825 338 776 q 302 908 338 875 q 213 958 267 942 q 106 975 160 975 q 87 974 99 975 q 60 972 75 974 q 128 1082 100 1017 q 154 1084 142 1083 q 179 1085 167 1085 m 306 117 q 194 6 243 85 q 83 117 147 82 q 194 228 146 149 q 306 117 243 149 z "},"¿":{"ha":531,"x_min":63,"x_max":453,"o":"m 271 625 q 328 601 304 625 q 350 540 350 578 q 328 481 350 504 q 269 457 304 457 q 211 481 235 457 q 188 540 188 504 q 211 601 188 578 q 271 625 235 625 m 224 306 l 250 339 q 356 268 303 319 q 408 157 408 215 q 382 83 408 119 q 288 -1 354 47 q 224 -47 243 -33 q 176 -93 203 -62 q 150 -149 150 -125 q 228 -219 150 -219 q 304 -200 267 -219 q 364 -161 340 -181 q 392 -142 386 -142 q 432 -162 410 -142 q 453 -208 453 -183 q 424 -261 453 -233 q 354 -300 393 -286 q 290 -314 315 -314 l 289 -314 q 132 -246 201 -314 q 63 -90 63 -178 q 132 38 63 -15 q 174 69 140 44 q 226 111 206 93 q 265 154 246 128 q 283 201 283 179 q 224 306 283 253 z "},"\"":{"ha":501,"x_min":56,"x_max":475,"o":"m 324 482 q 297 474 314 478 q 264 469 279 469 l 357 825 q 382 835 361 828 q 410 846 403 843 q 456 856 431 851 l 475 843 l 324 482 m 115 482 q 88 474 106 478 q 56 469 71 469 l 149 825 q 174 835 153 828 q 201 846 194 843 q 247 856 222 851 l 267 843 l 115 482 z "},"„":{"ha":635,"x_min":51,"x_max":603,"o":"m 51 21 q 51 22 51 22 q 73 90 51 54 q 127 149 94 125 q 190 174 160 174 q 253 150 228 174 q 292 90 279 126 q 304 17 304 54 q 268 -108 304 -46 q 182 -204 232 -169 q 165 -213 174 -210 q 150 -211 157 -217 q 144 -192 142 -204 q 153 -174 147 -179 q 192 -106 176 -139 q 210 -35 208 -72 q 210 -28 210 -32 q 197 35 210 8 q 153 63 183 63 q 117 48 133 63 q 92 14 100 33 q 81 2 89 8 q 65 -3 72 -4 q 55 7 58 -1 q 51 21 51 15 m 350 21 q 350 22 350 22 q 372 90 350 54 q 426 149 393 125 q 489 174 458 174 q 552 150 526 174 q 590 90 578 126 q 603 17 603 54 q 567 -108 603 -46 q 481 -204 531 -169 q 464 -213 472 -210 q 449 -211 456 -217 q 443 -192 440 -204 q 451 -174 446 -179 q 491 -106 475 -139 q 508 -35 507 -72 q 508 -28 508 -32 q 495 35 508 8 q 451 63 482 63 q 415 48 432 63 q 390 14 399 33 q 379 2 388 8 q 364 -3 371 -4 q 353 7 357 -1 q 350 21 350 15 z "},"“":{"ha":606,"x_min":32,"x_max":576,"o":"m 285 878 q 285 876 285 876 q 263 809 285 844 q 209 749 242 774 q 144 725 176 725 q 82 749 107 725 q 44 808 57 772 q 32 882 32 844 q 68 1007 32 944 q 154 1104 104 1069 q 169 1113 161 1110 q 186 1110 178 1115 q 192 1092 194 1104 q 183 1074 189 1081 q 143 1005 160 1039 q 126 933 126 971 q 126 928 126 931 q 139 864 126 892 q 182 836 151 836 q 219 851 203 836 q 244 886 236 867 q 256 899 247 893 q 269 901 264 904 q 281 892 278 900 q 285 878 285 885 m 576 878 q 576 876 576 876 q 555 809 576 844 q 501 749 533 774 q 436 725 468 725 q 374 749 399 725 q 336 808 349 772 q 324 882 324 844 q 360 1007 324 944 q 446 1104 396 1069 q 461 1113 453 1110 q 478 1110 469 1115 q 483 1092 486 1104 q 475 1074 481 1081 q 435 1005 451 1039 q 418 933 418 971 q 418 928 418 931 q 431 864 418 892 q 474 836 443 836 q 511 851 494 836 q 536 886 528 867 q 547 899 539 893 q 561 901 556 904 q 573 892 569 900 q 576 878 576 885 z "},"”":{"ha":606,"x_min":28,"x_max":572,"o":"m 572 950 q 536 826 572 888 q 450 728 500 764 q 435 719 443 722 q 418 722 426 717 q 413 741 410 729 q 421 758 415 753 q 461 828 444 794 q 478 899 478 861 q 478 904 478 901 q 465 968 478 940 q 422 996 453 996 q 385 981 401 996 q 360 946 368 965 q 349 935 357 940 q 335 931 342 929 q 323 940 326 932 q 319 954 319 949 q 319 956 319 956 q 341 1023 319 988 q 395 1083 363 1058 q 460 1107 428 1107 q 522 1083 497 1107 q 560 1024 547 1060 q 572 950 572 988 m 281 950 q 244 826 281 888 q 158 728 208 764 q 143 719 151 722 q 126 722 135 717 q 121 741 118 729 q 129 758 124 753 q 169 828 153 794 q 186 899 186 861 q 186 904 186 901 q 174 968 186 940 q 131 996 161 996 q 93 981 110 996 q 68 946 76 965 q 58 935 65 940 q 43 931 50 929 q 31 940 35 932 q 28 954 28 949 q 28 956 28 956 q 49 1023 28 988 q 103 1083 71 1058 q 168 1107 136 1107 q 231 1083 206 1107 q 268 1024 256 1060 q 281 950 281 988 z "},"‘":{"ha":313,"x_min":32,"x_max":285,"o":"m 285 878 q 285 876 285 876 q 263 809 285 844 q 209 749 242 774 q 144 725 176 725 q 82 749 107 725 q 44 808 57 772 q 32 882 32 844 q 68 1007 32 944 q 154 1104 104 1069 q 169 1113 161 1110 q 186 1110 178 1115 q 192 1092 194 1104 q 183 1074 189 1081 q 143 1005 160 1039 q 126 933 126 971 q 126 928 126 931 q 139 864 126 892 q 182 836 151 836 q 219 851 203 836 q 244 886 236 867 q 256 899 247 893 q 269 901 264 904 q 281 892 278 900 q 285 878 285 885 z "},"’":{"ha":313,"x_min":35,"x_max":288,"o":"m 288 954 q 251 830 288 892 q 165 732 215 768 q 150 724 158 726 q 133 726 142 721 q 128 745 125 733 q 136 763 131 757 q 176 832 160 799 q 193 903 193 865 q 193 908 193 906 q 181 972 193 944 q 138 1000 168 1000 q 100 985 117 1000 q 75 950 83 969 q 65 939 72 944 q 50 935 57 933 q 38 944 42 936 q 35 958 35 953 q 35 960 35 960 q 56 1027 35 992 q 110 1087 78 1063 q 175 1111 143 1111 q 238 1088 213 1111 q 275 1028 263 1064 q 288 954 288 992 z "},"‚":{"ha":340,"x_min":51,"x_max":304,"o":"m 51 21 q 51 22 51 22 q 73 90 51 54 q 127 149 94 125 q 190 174 160 174 q 253 150 228 174 q 292 90 279 126 q 304 17 304 54 q 268 -108 304 -46 q 182 -204 232 -169 q 165 -213 174 -210 q 150 -211 157 -217 q 144 -192 142 -204 q 153 -174 147 -179 q 192 -106 176 -139 q 210 -35 208 -72 q 210 -28 210 -32 q 197 35 210 8 q 153 63 183 63 q 117 48 133 63 q 92 14 100 33 q 81 2 89 8 q 65 -3 72 -4 q 55 7 58 -1 q 51 21 51 15 z "},"'":{"ha":294,"x_min":56,"x_max":267,"o":"m 115 482 q 88 474 106 478 q 56 469 71 469 l 149 825 q 174 835 153 828 q 201 846 194 843 q 247 856 222 851 l 267 843 l 115 482 z "},"r":{"ha":521,"x_min":31,"x_max":499,"o":"m 246 497 q 251 488 246 492 q 261 494 256 483 q 326 572 285 535 q 415 610 367 610 q 479 586 460 610 q 499 543 499 563 q 478 495 499 517 q 433 474 458 474 q 403 485 415 474 q 383 506 390 496 q 366 520 375 517 q 347 524 357 524 q 327 511 339 524 q 303 483 315 499 q 283 456 292 467 q 260 414 271 438 q 250 363 250 390 l 250 169 q 258 85 250 113 q 291 51 267 58 q 364 43 315 43 q 369 19 369 38 q 364 -3 369 3 q 283 -1 328 -3 q 196 0 238 0 q 114 -1 154 0 q 38 -3 74 -3 q 31 19 31 4 q 38 43 31 36 q 103 51 81 43 q 133 85 125 58 q 140 169 140 113 l 140 440 q 124 518 140 501 q 50 535 107 535 q 47 555 49 542 q 47 574 46 568 q 154 593 119 583 q 218 614 189 603 q 230 610 226 614 q 235 603 233 607 q 242 565 239 592 q 246 497 246 539 z "},"®":{"ha":444,"x_min":43,"x_max":404,"o":"m 224 915 q 353 863 300 915 q 404 735 404 808 q 351 610 404 663 q 222 556 299 556 q 94 607 146 556 q 43 735 43 658 q 96 863 43 808 q 224 915 149 915 m 222 883 q 124 840 163 883 q 83 735 83 797 q 124 631 83 672 q 224 588 164 588 q 325 631 283 588 q 365 735 365 672 q 325 840 365 797 q 222 883 283 883 m 326 657 l 322 640 q 254 668 275 640 q 239 694 247 678 q 228 711 229 710 q 210 721 222 721 l 204 721 l 204 689 q 208 668 204 671 q 231 663 213 664 l 231 642 l 136 642 l 136 663 q 160 668 156 664 q 163 689 163 671 l 163 785 q 160 807 163 803 q 138 811 156 810 l 138 832 l 232 832 q 300 782 300 832 q 263 735 300 749 q 308 671 281 700 q 326 657 314 665 m 204 743 l 217 743 q 240 749 233 743 q 256 778 256 758 q 246 804 256 796 q 222 811 235 811 q 204 794 204 811 l 204 743 z "},"˚":{"ha":385,"x_min":33,"x_max":353,"o":"m 33 926 q 58 999 33 963 q 119 1061 82 1036 q 193 1086 157 1086 q 266 1061 229 1086 q 328 999 303 1036 q 353 926 353 963 q 328 853 353 890 q 266 792 303 817 q 193 767 229 767 q 119 792 157 767 q 58 853 82 817 q 33 926 33 890 m 100 926 q 128 863 100 892 q 193 833 157 833 q 257 863 228 833 q 286 926 286 892 q 257 991 286 963 q 193 1019 228 1019 q 128 991 157 1019 q 100 926 100 963 z "},"s":{"ha":511,"x_min":54,"x_max":474,"o":"m 54 206 q 78 213 61 213 q 97 207 89 213 q 119 131 107 168 q 162 70 132 94 q 250 46 192 46 q 303 56 276 46 q 349 88 331 67 q 368 143 368 110 q 357 195 368 174 q 315 236 346 217 q 226 279 285 256 q 110 352 146 313 q 74 468 74 392 q 101 548 74 513 q 174 603 129 583 q 269 624 218 624 q 372 613 324 624 q 451 597 419 603 q 447 525 451 563 q 443 450 443 488 q 433 444 440 446 q 418 443 425 443 q 399 449 404 443 q 365 535 390 508 q 312 570 339 563 q 269 578 285 578 q 203 555 235 578 q 172 489 172 532 q 210 408 172 432 q 311 360 249 383 q 428 290 382 333 q 474 175 474 246 q 451 90 474 124 q 392 36 428 56 q 319 8 357 17 q 253 0 282 0 q 184 4 214 0 q 126 15 154 8 q 113 18 119 18 q 99 18 106 18 q 64 14 85 18 q 59 106 64 58 q 54 206 54 154 z "},"§":{"ha":694,"x_min":97,"x_max":592,"o":"m 453 729 q 407 746 426 729 q 388 789 388 763 q 411 839 388 815 q 435 865 435 863 q 405 899 435 889 q 349 910 375 910 q 265 884 300 910 q 231 811 231 858 q 278 713 231 751 l 468 556 q 592 340 592 453 q 547 220 592 268 q 431 172 503 172 q 420 172 426 172 q 406 172 414 171 q 470 111 444 138 q 510 64 496 85 q 536 -29 536 25 q 479 -159 536 -112 q 336 -206 422 -206 q 246 -189 290 -206 q 173 -141 201 -172 q 144 -67 144 -110 q 167 -13 144 -35 q 219 8 189 8 q 266 -8 246 8 q 286 -50 286 -24 q 263 -99 286 -75 q 239 -128 239 -122 q 256 -155 239 -144 q 296 -171 272 -165 q 338 -176 319 -176 q 424 -149 390 -176 q 458 -69 458 -121 q 421 17 458 -25 q 328 98 382 61 q 225 172 274 135 q 166 229 196 196 q 117 305 136 263 q 97 397 97 347 q 143 515 97 467 q 257 563 189 563 q 276 563 268 563 q 292 561 285 563 q 181 672 208 631 q 153 769 153 715 q 209 894 153 849 q 346 939 265 939 q 432 923 392 939 q 498 876 472 907 q 524 803 524 846 q 505 749 524 768 q 453 729 486 729 m 424 203 q 490 231 461 203 q 519 294 519 258 q 419 450 519 367 q 265 532 317 532 q 199 506 226 532 q 171 439 171 479 q 264 286 171 369 q 424 203 356 203 z "},";":{"ha":436,"x_min":22,"x_max":408,"o":"m 207 638 q 277 608 247 638 q 307 538 307 578 q 277 468 307 497 q 207 439 247 439 q 137 468 167 439 q 107 538 107 497 q 137 608 107 578 q 207 638 167 638 m 24 71 q 68 163 32 118 q 154 235 104 207 q 253 264 204 264 q 340 232 306 264 q 392 151 375 200 q 408 50 408 103 q 385 -65 408 -7 q 324 -173 363 -124 q 240 -254 286 -222 q 226 -263 233 -260 q 211 -267 218 -267 q 197 -262 203 -267 q 189 -244 189 -257 q 192 -227 189 -236 q 200 -212 196 -218 q 256 -118 233 -164 q 279 -21 279 -72 q 258 79 279 36 q 188 122 236 122 q 124 108 153 122 q 74 60 96 94 q 59 43 68 51 q 39 38 50 35 q 26 51 29 40 q 24 71 22 61 z "},"­":{"ha":0,"x_min":0,"x_max":0,"o":""},"∼":{"ha":1232,"x_min":13,"x_max":1211,"o":"m 1119 424 q 1185 405 1160 424 q 1211 346 1211 386 q 1201 297 1211 322 l 1200 297 q 1101 208 1167 239 q 939 176 1036 176 q 799 197 886 176 q 592 257 713 218 q 279 328 375 328 q 266 327 272 328 q 253 326 260 326 q 178 304 192 326 q 179 293 179 299 q 179 282 179 288 q 103 199 179 199 q 35 226 57 199 q 13 297 13 254 q 73 409 13 368 q 247 450 133 450 q 378 433 299 450 q 478 408 421 425 q 596 373 535 392 q 713 337 657 354 q 808 308 768 319 q 944 279 892 286 q 958 278 951 278 q 971 278 965 278 q 1049 357 1049 278 q 1119 424 1049 424 z "},"/":{"ha":563,"x_min":-49,"x_max":556,"o":"m 556 1067 l 33 -390 l -49 -390 l 474 1067 l 556 1067 z "}," ":{"ha":417,"x_min":0,"x_max":0,"o":""},"£":{"ha":671,"x_min":31,"x_max":642,"o":"m 528 407 l 296 407 q 297 378 297 396 q 171 144 297 254 q 317 108 240 144 q 488 56 440 56 q 564 114 564 56 q 553 160 564 135 q 557 190 547 174 q 608 226 583 226 q 632 210 622 226 q 642 171 642 192 q 610 82 642 126 q 532 7 576 36 q 403 -37 467 -37 q 339 -24 376 -37 q 283 0 301 -10 q 215 38 265 10 q 132 71 158 71 q 76 11 99 71 q 58 -7 71 -7 q 33 11 42 -7 q 31 25 31 17 q 39 60 31 40 q 110 149 51 83 q 167 329 167 214 q 161 407 167 368 l 38 407 l 38 463 l 154 463 q 146 576 146 538 q 264 819 146 726 q 413 882 340 879 q 494 864 456 882 q 547 825 532 844 q 557 799 557 813 q 551 779 557 789 q 524 746 543 763 q 485 750 503 732 q 353 810 411 810 q 261 685 261 810 q 292 463 261 621 l 528 463 l 528 407 z "},"t":{"ha":442,"x_min":33,"x_max":417,"o":"m 58 610 l 122 610 q 122 699 122 668 q 120 742 121 729 q 119 760 119 756 q 118 771 118 765 q 127 782 118 778 q 149 789 136 786 q 174 798 163 793 q 196 810 185 803 q 226 821 215 821 q 238 810 238 821 q 235 771 238 810 q 232 664 232 732 l 232 610 l 399 610 q 410 601 410 610 l 410 574 q 399 560 410 564 q 376 556 388 556 l 232 556 l 232 204 q 241 108 232 140 q 278 76 250 76 q 335 85 306 76 q 392 115 365 94 q 417 92 413 115 q 327 23 376 46 q 229 0 278 0 q 152 32 182 0 q 122 138 122 64 l 122 556 l 40 556 q 33 564 33 556 l 33 582 q 39 600 33 590 q 58 610 44 610 z "},"þ":{"ha":740,"x_min":7,"x_max":668,"o":"m 668 339 q 631 167 668 244 q 525 45 593 90 q 363 0 457 0 q 242 21 283 0 q 227 26 232 26 q 222 11 222 25 l 222 -139 q 242 -242 222 -224 q 274 -258 250 -251 q 336 -265 297 -265 q 343 -289 343 -272 q 336 -311 343 -304 l 13 -311 q 7 -289 7 -306 q 13 -265 7 -271 q 94 -242 75 -265 q 113 -139 113 -224 l 113 454 q 97 825 113 810 q 22 846 81 840 q 19 885 14 871 q 113 901 71 892 q 190 925 156 911 q 207 914 207 915 q 212 880 210 903 q 215 828 214 857 q 217 740 217 789 q 218 639 218 690 q 218 581 218 610 q 218 525 218 553 q 223 512 218 514 q 233 519 228 510 q 424 624 328 624 q 597 539 528 624 q 668 339 668 451 m 550 303 q 532 424 550 365 q 477 522 514 483 q 385 560 440 560 q 332 545 360 560 q 281 510 304 531 q 244 474 258 490 q 222 413 222 443 l 222 160 q 228 108 222 121 q 256 76 233 96 q 354 47 289 47 q 469 82 426 47 q 531 175 511 117 q 550 303 550 233 z "},"¾":{"ha":1065,"x_min":94,"x_max":951,"o":"m 844 875 l 281 -40 l 236 -6 l 797 908 l 844 875 m 326 679 l 326 676 q 417 636 385 665 q 449 561 449 606 q 401 458 449 503 q 301 394 353 413 q 213 375 249 375 q 117 404 153 375 q 103 444 94 422 q 129 479 108 464 q 158 476 143 488 q 263 429 219 429 q 324 454 300 429 q 347 529 347 479 q 318 600 347 576 q 244 624 288 624 q 188 614 214 624 l 178 650 q 313 757 313 693 q 293 801 313 783 q 246 817 275 817 q 242 817 244 817 q 185 797 213 817 q 139 751 156 776 l 115 774 l 157 832 q 278 882 204 882 l 279 882 q 376 851 339 882 q 414 776 414 819 q 388 719 414 742 q 326 679 360 697 m 951 138 l 871 138 l 871 100 q 885 49 871 60 q 946 32 899 36 l 946 0 l 690 0 l 690 32 q 764 49 747 36 q 779 100 779 60 l 779 138 l 556 138 l 556 171 q 813 499 707 372 l 871 499 l 871 190 l 951 192 l 951 138 m 779 192 l 779 392 l 775 392 q 629 192 710 308 l 779 192 z "},"˜":{"ha":458,"x_min":36,"x_max":422,"o":"m 147 951 q 208 933 183 951 q 259 897 233 915 q 319 878 285 878 q 357 892 343 878 q 385 950 371 907 q 422 942 407 951 q 380 842 410 879 q 301 804 350 804 q 257 819 279 804 q 213 849 235 835 q 175 867 194 860 q 138 875 156 875 q 98 859 111 875 q 74 808 85 843 q 36 815 47 804 q 77 914 51 876 q 147 951 103 951 z "},"‥":{"ha":599,"x_min":47,"x_max":551,"o":"m 354 74 q 384 143 354 114 q 453 172 414 172 q 522 143 493 172 q 551 74 551 114 q 522 5 551 35 q 453 -25 493 -25 q 384 5 414 -25 q 354 74 354 35 m 47 74 q 77 143 47 114 q 146 172 107 172 q 215 143 186 172 q 244 74 244 114 q 215 5 244 35 q 146 -25 186 -25 q 77 5 107 -25 q 47 74 47 35 z "},"u":{"ha":754,"x_min":25,"x_max":717,"o":"m 297 0 q 188 27 228 0 q 133 98 149 54 q 117 189 117 142 l 117 456 q 99 545 117 524 q 31 567 81 567 q 25 589 25 575 q 31 613 25 604 q 103 611 67 613 q 172 610 139 610 q 222 613 206 610 q 233 604 233 613 q 232 577 233 604 q 229 516 231 550 q 228 461 228 482 l 228 208 q 247 116 228 147 q 292 75 267 85 q 339 65 318 65 q 401 82 364 65 q 478 132 439 99 q 497 156 493 144 q 500 186 500 167 l 500 454 q 482 545 500 524 q 414 567 464 567 q 407 589 407 572 q 414 613 407 607 q 486 611 450 613 q 556 610 522 610 q 585 610 571 610 q 603 613 599 611 q 614 604 614 613 q 613 577 614 604 q 610 516 611 550 q 608 461 608 482 l 608 194 q 626 118 608 143 q 711 93 644 93 q 717 74 717 85 q 711 56 717 64 q 609 34 647 49 q 547 0 571 19 q 533 -3 542 -3 q 519 0 525 -3 q 513 28 519 0 q 506 82 506 56 q 498 88 506 89 q 483 83 490 88 q 385 21 433 42 q 297 0 338 0 z "},"":{"ha":1021,"x_min":65,"x_max":992,"o":"m 992 1443 q 981 1376 986 1401 q 968 1331 976 1351 q 943 1279 960 1310 q 881 1212 917 1239 q 794 1172 844 1185 q 769 1167 782 1169 q 740 1165 756 1165 q 664 1174 704 1165 q 606 1193 624 1183 q 540 1235 571 1213 q 485 1279 508 1258 l 428 1328 q 368 1363 394 1358 l 354 1363 q 297 1338 314 1363 q 267 1281 279 1313 q 258 1244 264 1271 q 251 1193 251 1217 l 249 1151 l 222 1156 q 210 1158 217 1157 q 196 1158 203 1158 l 186 1158 q 146 1156 146 1158 l 113 1151 q 97 1149 104 1150 q 82 1146 89 1147 l 78 1154 q 106 1267 78 1211 q 168 1349 133 1322 q 216 1383 194 1371 q 285 1407 238 1396 q 331 1412 304 1410 q 392 1414 358 1414 q 432 1412 414 1414 q 464 1403 450 1410 q 483 1392 467 1401 q 529 1363 499 1382 q 585 1318 560 1343 q 639 1268 611 1293 q 680 1242 657 1254 q 733 1231 703 1231 l 751 1231 q 781 1253 771 1235 q 793 1292 790 1272 l 803 1331 l 810 1383 q 814 1443 814 1421 l 814 1450 l 856 1442 q 871 1440 863 1440 q 890 1440 879 1440 l 921 1440 q 956 1444 943 1440 l 988 1450 l 992 1443 m 708 1114 q 647 1057 678 1085 q 644 1057 644 1054 q 633 1065 638 1063 q 622 1072 628 1068 q 614 1077 621 1074 q 603 1081 607 1081 q 584 1068 593 1076 q 568 1050 575 1060 l 554 1031 q 547 1022 550 1026 q 544 1014 544 1018 l 607 1014 q 630 985 622 999 q 647 953 638 972 q 658 917 651 939 q 668 875 665 894 l 579 875 q 528 999 564 946 q 522 1004 524 1001 q 521 1010 521 1007 l 521 1014 q 544 1058 526 1036 q 579 1090 563 1079 q 682 1117 615 1117 q 697 1116 685 1117 q 708 1114 708 1115 m 519 1096 q 506 1022 514 1060 q 499 942 499 983 l 499 908 q 501 875 499 889 l 465 875 q 444 875 456 875 q 422 875 432 875 q 406 875 411 875 q 403 917 403 893 q 403 928 403 922 q 404 963 403 942 q 408 1003 406 983 q 411 1029 410 1022 q 417 1069 414 1049 q 428 1107 421 1089 q 459 1112 444 1110 q 500 1115 474 1114 q 519 1096 519 1115 m 65 0 l 65 1057 l 235 1057 l 235 625 q 326 601 281 625 q 418 531 372 576 q 488 451 463 483 q 519 400 514 419 q 626 524 532 446 q 785 611 717 601 l 785 1057 l 954 1057 l 954 0 l 785 0 l 785 557 q 676 489 744 544 q 604 390 625 446 l 604 0 l 435 0 l 435 390 q 364 492 413 446 q 236 561 300 549 l 236 0 l 65 0 m 674 735 q 651 674 674 693 q 590 654 629 654 l 576 654 q 567 653 574 653 q 549 654 560 653 l 510 668 q 510 643 510 654 q 511 622 511 632 l 511 574 l 469 558 l 424 553 l 418 558 l 418 721 q 469 801 425 774 q 572 828 513 828 q 632 811 603 828 q 674 739 674 793 l 674 735 m 514 717 l 511 700 l 535 692 q 546 690 540 690 q 557 689 551 689 q 578 694 568 689 q 589 707 588 699 l 589 725 q 558 761 589 757 l 554 761 q 526 754 539 761 q 514 735 514 747 l 514 717 z "},"":{"ha":1438,"x_min":69,"x_max":1369,"o":"m 992 1443 q 978 1374 985 1401 q 968 1332 972 1346 q 943 1279 961 1311 q 881 1211 917 1239 q 794 1172 846 1183 q 769 1167 782 1169 q 740 1165 756 1165 q 663 1174 703 1165 q 606 1193 624 1183 q 539 1235 564 1218 q 507 1261 521 1250 q 485 1279 493 1272 l 428 1328 q 368 1363 394 1358 l 354 1363 q 320 1354 331 1363 q 296 1335 310 1346 q 267 1281 276 1311 q 257 1244 264 1271 q 250 1193 250 1217 l 249 1151 l 222 1156 q 210 1158 217 1157 q 196 1158 203 1158 l 186 1158 q 146 1156 146 1158 l 113 1151 q 97 1149 104 1150 q 82 1146 89 1147 l 78 1154 q 91 1228 78 1194 q 121 1290 104 1261 q 169 1346 143 1326 q 217 1379 194 1365 q 279 1406 244 1397 q 369 1414 314 1414 q 413 1410 392 1414 q 456 1399 433 1406 q 483 1389 467 1396 q 529 1363 499 1382 q 585 1318 561 1343 q 639 1268 610 1293 q 680 1242 657 1254 q 733 1231 703 1231 l 751 1231 q 781 1253 771 1236 q 793 1292 790 1271 l 803 1331 l 810 1383 q 814 1443 814 1421 l 814 1450 l 856 1442 q 871 1440 863 1440 q 890 1440 879 1440 l 921 1440 q 956 1444 943 1440 l 988 1450 l 992 1443 m 542 1075 q 663 1033 624 1075 q 703 910 703 990 q 672 835 703 854 q 588 817 640 817 q 497 833 543 817 l 497 642 l 374 642 l 376 907 l 376 915 q 542 1075 376 1075 m 69 0 l 69 1057 l 239 1057 l 240 625 q 422 529 331 624 q 524 400 513 439 q 631 524 536 444 q 789 611 721 601 l 789 1057 l 958 1057 l 960 608 q 1101 764 1067 613 q 1116 847 1111 807 q 1121 926 1121 888 q 1117 988 1121 958 q 1107 1047 1114 1018 l 1304 1047 q 1129 644 1296 804 l 1081 608 q 1344 296 1264 608 l 1369 0 l 1178 0 l 1169 242 q 1013 582 1169 458 q 960 474 976 572 l 961 0 l 789 0 l 789 557 q 681 489 749 544 q 608 390 629 446 l 613 0 l 439 0 l 439 390 q 368 492 417 446 q 240 561 304 549 l 243 0 l 69 0 m 531 868 q 603 885 576 868 q 629 942 629 903 q 565 1010 629 989 q 546 1014 556 1014 q 496 900 496 1014 q 496 885 496 893 q 497 869 496 878 q 515 868 507 868 q 531 868 524 868 z "},"":{"ha":1032,"x_min":65,"x_max":992,"o":"m 992 1443 q 978 1374 985 1401 q 968 1332 972 1346 q 887 1215 946 1264 q 740 1165 828 1165 q 663 1174 703 1165 q 606 1193 624 1183 q 539 1235 564 1218 q 507 1261 521 1250 q 485 1279 493 1272 l 428 1328 q 368 1363 394 1358 l 354 1363 q 320 1354 331 1363 q 296 1335 310 1346 q 267 1281 276 1311 q 257 1244 264 1271 q 250 1193 250 1217 l 249 1151 l 222 1156 q 210 1158 217 1157 q 196 1158 203 1158 l 186 1158 q 146 1156 146 1158 l 113 1151 q 97 1149 104 1150 q 82 1146 89 1147 l 78 1154 q 91 1228 78 1194 q 121 1290 104 1261 q 169 1346 143 1326 q 217 1379 194 1365 q 279 1406 244 1397 q 369 1414 314 1414 q 413 1410 392 1414 q 456 1399 433 1406 q 483 1389 467 1396 q 529 1363 499 1382 q 585 1318 561 1343 q 639 1268 610 1293 q 680 1242 657 1254 q 733 1231 703 1231 l 751 1231 q 781 1253 771 1236 q 793 1292 790 1271 l 803 1331 l 810 1383 q 814 1443 814 1421 l 814 1450 l 856 1442 q 871 1440 863 1440 q 890 1440 879 1440 l 921 1440 q 956 1444 943 1440 l 988 1450 l 992 1443 m 65 0 l 65 1060 l 235 1060 l 235 732 q 326 708 281 732 q 418 638 372 683 q 488 558 463 590 q 519 507 514 526 q 626 631 532 553 q 785 718 717 708 l 785 1060 l 954 1060 l 954 0 l 785 0 l 785 664 q 676 596 744 651 q 604 497 625 553 l 604 318 l 435 318 l 435 497 q 364 599 413 553 q 236 668 300 656 l 236 0 l 65 0 m 653 922 q 630 862 653 881 q 568 843 607 843 l 556 843 q 546 842 553 842 q 528 843 539 842 l 489 856 q 490 832 489 843 q 490 811 490 821 l 490 789 l 488 763 l 449 747 l 403 742 l 397 747 l 397 910 q 447 989 406 961 q 549 1017 489 1017 q 621 993 589 1017 q 653 928 653 969 l 653 922 m 536 878 q 557 882 547 876 q 568 896 567 888 l 568 914 q 560 940 568 932 q 538 950 553 947 l 531 950 q 492 922 496 950 l 492 888 l 514 881 q 525 878 519 879 q 536 878 531 878 m 678 239 q 617 182 647 210 q 614 182 614 179 q 602 190 607 188 q 592 197 597 193 q 583 202 590 199 q 572 206 576 206 q 553 193 563 201 q 538 175 544 185 l 524 156 q 517 147 519 151 q 514 139 514 143 l 576 139 q 599 110 592 124 q 617 78 607 96 q 628 42 621 64 q 638 0 635 19 l 549 0 q 497 124 533 71 q 492 129 493 126 q 490 135 490 132 l 490 139 q 514 183 496 161 q 549 215 532 204 q 651 242 585 242 q 666 241 654 242 q 678 239 678 240 m 489 221 q 476 147 483 185 q 468 67 468 108 l 468 33 q 471 0 468 14 l 435 0 q 413 0 425 0 q 392 0 401 0 q 375 0 381 0 q 372 42 372 18 q 372 53 372 47 q 374 88 372 67 q 377 128 375 108 q 381 154 379 147 q 387 194 383 174 q 397 232 390 214 q 428 237 414 235 q 469 240 443 239 q 489 221 489 240 z "},"":{"ha":1032,"x_min":65,"x_max":992,"o":"m 992 1443 q 978 1374 985 1401 q 968 1332 972 1346 q 887 1215 946 1264 q 740 1165 828 1165 q 663 1174 703 1165 q 606 1193 624 1183 q 539 1235 564 1218 q 507 1261 521 1250 q 485 1279 493 1272 l 428 1328 q 368 1363 394 1358 l 354 1363 q 320 1354 331 1363 q 296 1335 310 1346 q 267 1281 276 1311 q 257 1244 264 1271 q 250 1193 250 1217 l 249 1151 l 222 1156 q 210 1158 217 1157 q 196 1158 203 1158 l 186 1158 q 146 1156 146 1158 l 113 1151 q 97 1149 104 1150 q 82 1146 89 1147 l 78 1154 q 91 1228 78 1194 q 121 1290 104 1261 q 169 1346 143 1326 q 217 1379 194 1365 q 279 1406 244 1397 q 369 1414 314 1414 q 413 1410 392 1414 q 456 1399 433 1406 q 483 1389 467 1396 q 529 1363 499 1382 q 585 1318 561 1343 q 639 1268 610 1293 q 680 1242 657 1254 q 733 1231 703 1231 l 751 1231 q 781 1253 771 1236 q 793 1292 790 1271 l 803 1331 l 810 1383 q 814 1443 814 1421 l 814 1450 l 856 1442 q 871 1440 863 1440 q 890 1440 879 1440 l 921 1440 q 956 1444 943 1440 l 988 1450 l 992 1443 m 65 0 l 65 1060 l 235 1060 l 235 888 q 326 863 281 888 q 418 793 372 839 q 488 714 463 746 q 519 663 514 682 q 626 786 532 708 q 785 874 717 864 l 785 1060 l 954 1060 l 954 0 l 785 0 l 785 819 q 676 751 744 807 q 604 653 625 708 l 604 308 l 435 308 l 435 653 q 364 754 413 708 q 236 824 300 811 l 236 0 l 65 0 m 678 239 q 617 182 647 210 q 614 182 614 179 q 602 190 607 188 q 592 197 597 193 q 583 202 590 199 q 572 206 576 206 q 553 193 563 201 q 538 175 544 185 l 524 156 q 517 147 519 151 q 514 139 514 143 l 576 139 q 599 110 592 124 q 617 78 607 96 q 628 42 621 64 q 638 0 635 19 l 549 0 q 497 124 533 71 q 492 129 493 126 q 490 135 490 132 l 490 139 q 514 183 496 161 q 549 215 532 204 q 651 242 585 242 q 666 241 654 242 q 678 239 678 240 m 489 221 q 476 147 483 185 q 468 67 468 108 l 468 33 q 471 0 468 14 l 435 0 q 413 0 425 0 q 392 0 401 0 q 375 0 381 0 q 372 42 372 18 q 372 53 372 47 q 374 88 372 67 q 377 128 375 108 q 381 154 379 147 q 387 194 383 174 q 397 232 390 214 q 428 237 414 235 q 469 240 443 239 q 489 221 489 240 z "},"":{"ha":1304,"x_min":14,"x_max":1272,"o":"m 14 1246 l 1272 1246 l 1272 -225 l 14 -225 l 14 1246 m 92 1179 l 92 -162 l 1197 -162 l 1197 1179 l 92 1179 m 258 200 l 258 1114 l 406 1114 l 406 740 q 485 719 446 740 q 564 658 525 699 q 625 591 603 619 q 651 546 647 563 q 744 653 663 585 q 881 729 821 718 l 881 1114 l 1028 1114 l 1028 200 l 881 200 l 881 682 q 788 622 847 671 q 725 538 744 588 l 725 200 l 578 200 l 578 538 q 517 625 560 585 q 407 685 464 674 l 407 200 l 258 200 m 993 -96 q 970 -112 985 -103 q 940 -122 956 -122 q 935 -119 935 -122 l 935 -108 q 926 -81 935 -97 q 911 -54 918 -64 q 888 -14 899 -35 q 876 36 876 7 q 897 97 876 72 q 932 133 918 122 q 956 149 943 143 q 988 156 969 156 q 992 151 992 156 l 992 136 q 1003 107 992 119 q 1025 75 1014 94 q 1041 45 1036 58 q 1046 11 1046 32 q 1029 -53 1046 -28 q 993 -96 1013 -79 m 585 154 q 633 139 613 154 q 654 96 654 124 q 642 53 654 71 q 606 35 629 35 q 585 39 594 35 q 568 47 575 43 l 529 0 l 529 -112 l 549 -112 l 549 -121 l 468 -121 l 468 -112 l 489 -112 l 489 89 q 500 121 489 107 q 530 143 507 132 q 585 154 553 154 m 836 100 q 821 51 836 71 q 779 25 806 32 q 806 18 793 22 q 829 0 819 14 q 843 -32 840 -14 q 846 -57 846 -50 q 845 -89 846 -68 q 844 -112 844 -110 l 861 -112 l 861 -121 l 779 -121 l 779 -112 l 799 -112 q 802 -92 800 -106 q 804 -68 804 -78 q 801 -29 804 -49 q 790 0 797 -10 q 760 21 778 14 q 721 17 742 17 l 721 -112 l 743 -112 l 743 -121 l 657 -121 l 657 -112 l 679 -112 l 679 143 l 657 143 l 657 151 l 743 151 l 743 143 l 721 143 l 721 26 q 751 30 735 26 q 776 44 768 33 q 792 76 788 60 q 796 111 796 93 q 792 143 796 133 l 772 143 l 772 151 l 854 151 l 854 143 l 836 143 l 836 100 m 371 42 q 343 1 364 19 q 300 -18 322 -18 q 318 -43 318 -25 l 318 -47 q 310 -64 318 -57 q 292 -71 301 -71 l 292 -75 q 300 -99 292 -85 q 317 -114 308 -114 l 329 -114 l 329 -122 l 247 -122 l 247 -114 l 257 -114 q 275 -99 268 -114 q 282 -74 282 -83 l 282 -69 q 261 -43 261 -62 q 286 -17 261 -17 q 271 6 271 -10 q 289 38 271 26 q 329 63 307 50 q 358 100 358 78 l 358 101 q 332 118 349 118 l 328 118 q 338 100 338 114 q 315 78 338 78 q 293 99 293 78 q 300 117 293 110 l 301 117 q 332 128 315 128 q 356 119 347 128 q 371 99 365 110 l 371 142 l 349 142 l 349 150 l 433 150 l 433 142 l 413 142 l 413 -114 l 433 -114 l 433 -122 l 349 -122 l 349 -114 l 371 -114 l 371 42 m 982 146 q 933 113 946 146 q 921 36 921 79 q 925 -21 921 7 q 935 -64 929 -49 q 942 -85 939 -72 q 944 -106 944 -99 l 944 -114 q 962 -108 954 -114 q 976 -97 969 -103 q 994 -60 986 -89 q 1001 -6 1001 -32 q 999 36 1001 19 q 990 75 997 53 q 984 101 986 90 q 982 125 982 111 l 982 146 m 574 144 q 529 100 529 144 l 529 11 l 565 57 q 569 57 568 60 l 571 57 q 578 53 574 56 q 588 50 582 50 q 608 66 601 50 q 615 96 615 82 q 606 130 615 115 q 574 144 596 144 m 367 74 q 365 86 367 81 q 349 60 361 72 q 324 38 338 49 q 308 23 315 31 q 301 8 301 15 q 306 1 301 3 q 314 0 310 0 q 335 7 325 0 q 349 21 344 14 q 367 74 367 47 z "},"":{"ha":1190,"x_min":0,"x_max":1158,"o":"m 317 1094 q 299 1074 317 1085 q 258 1052 282 1063 q 211 1035 233 1042 q 178 1029 189 1029 q 152 1047 156 1029 q 142 1089 149 1064 q 137 1114 139 1101 q 135 1139 135 1126 q 167 1237 135 1196 q 236 1304 199 1278 q 294 1339 264 1324 q 360 1365 325 1354 q 433 1384 394 1376 q 508 1392 471 1392 q 641 1359 586 1392 q 742 1292 696 1326 q 850 1232 789 1256 q 971 1183 911 1208 q 999 1172 986 1178 q 1013 1151 1013 1167 q 996 1125 1013 1131 q 951 1119 979 1119 q 926 1118 939 1119 q 900 1117 914 1117 q 796 1124 849 1117 q 707 1144 743 1131 q 614 1208 654 1168 q 528 1278 574 1247 q 498 1294 514 1288 q 458 1301 482 1301 l 449 1301 q 385 1286 419 1301 q 335 1256 351 1271 q 310 1226 319 1243 q 301 1181 301 1208 q 306 1135 301 1158 q 317 1097 310 1113 l 317 1094 m 435 683 l 435 953 q 483 1053 435 1018 q 603 1088 531 1088 q 722 1049 682 1088 q 763 956 763 1011 q 720 867 763 899 q 621 836 678 836 q 586 839 604 836 q 550 847 568 842 l 546 844 l 546 683 q 518 679 529 681 q 490 678 507 678 q 463 679 474 678 q 435 683 451 681 m 546 963 q 557 892 546 917 q 597 867 568 867 q 638 892 626 867 q 650 963 650 917 q 638 1034 650 1008 q 597 1060 626 1060 q 557 1034 568 1060 q 546 963 546 1008 m 0 0 l 0 44 l 71 44 l 151 924 l 81 924 l 81 964 l 329 964 q 381 593 354 743 q 436 353 407 443 q 501 224 465 264 q 579 185 536 185 q 658 224 622 185 q 723 353 693 264 q 779 593 753 443 q 831 964 806 743 l 1079 964 l 1079 924 l 1010 924 l 1088 44 l 1158 44 l 1158 0 l 819 0 l 819 44 l 896 44 l 840 654 l 836 654 q 770 301 808 450 q 685 73 732 153 q 579 -7 638 -7 q 474 73 521 -7 q 390 301 426 153 q 325 654 353 450 l 321 654 l 265 44 l 340 44 l 340 0 l 0 0 z "},"":{"ha":963,"x_min":29,"x_max":932,"o":"m 889 1008 q 869 983 889 992 q 824 970 849 974 q 783 967 799 967 q 670 997 722 967 q 565 1068 618 1028 q 478 1131 518 1104 q 379 1157 439 1157 q 332 1143 357 1157 q 299 1125 313 1133 q 274 1100 285 1117 q 263 1075 265 1090 q 261 1042 261 1060 q 262 1017 261 1029 q 263 993 263 1004 q 259 984 263 989 q 251 979 256 979 l 154 979 q 144 992 144 979 q 162 1077 144 1039 q 208 1143 179 1115 q 276 1189 235 1171 q 358 1216 317 1207 q 429 1225 400 1225 q 557 1191 499 1225 q 672 1119 615 1157 q 764 1061 717 1089 q 868 1026 811 1033 q 889 1008 889 1025 m 651 883 q 596 833 624 857 q 593 833 593 831 q 583 841 588 839 q 574 846 579 843 q 566 851 572 847 q 556 854 560 854 q 540 842 547 850 q 525 826 532 835 l 513 808 q 507 801 510 806 q 503 794 504 797 l 560 794 q 581 768 574 781 q 596 739 588 756 q 606 706 600 726 q 615 669 613 686 l 535 669 q 489 781 521 733 q 485 786 486 783 q 482 790 483 789 l 482 794 q 504 833 488 814 q 535 863 521 853 q 628 886 568 886 q 641 886 631 886 q 651 883 651 886 m 481 868 q 469 801 476 835 q 463 729 463 767 l 463 699 q 465 669 463 682 l 432 669 q 413 669 424 669 q 394 669 403 669 q 378 669 383 669 q 376 707 376 685 q 376 717 376 711 q 379 767 376 735 q 383 808 382 799 q 390 843 388 825 q 399 878 393 861 q 426 883 414 881 q 464 885 439 885 q 481 868 481 886 m 276 494 q 296 412 276 454 q 348 333 315 369 q 419 275 381 297 q 494 253 457 253 q 558 275 526 253 q 615 332 589 297 q 660 404 642 367 q 686 471 679 442 q 693 524 693 501 q 684 620 693 568 q 668 728 675 672 q 659 769 664 750 q 654 797 654 789 q 675 817 654 811 q 724 826 696 824 q 772 828 751 828 q 791 819 782 828 q 801 793 800 811 q 849 393 818 593 q 888 210 864 300 q 931 31 911 119 q 932 18 932 24 q 922 -1 932 3 q 893 -4 911 -4 q 881 -4 888 -4 q 868 -4 875 -4 l 826 -4 q 792 4 804 -4 q 774 29 781 13 q 740 219 750 144 q 722 344 731 294 q 718 372 721 351 q 708 393 715 393 q 701 375 703 393 q 682 283 699 331 q 637 194 665 235 q 570 127 608 153 q 489 101 532 101 q 410 126 446 101 q 345 190 374 151 q 297 274 317 229 q 268 356 278 318 q 260 381 261 381 q 253 350 257 381 q 239 250 247 306 q 222 142 231 194 q 204 50 213 89 q 197 27 201 38 q 186 8 193 17 q 156 -6 176 -1 q 119 -8 140 -6 q 81 -10 99 -10 q 46 -4 56 -10 q 33 2 38 -4 q 32 19 29 8 q 55 115 44 72 q 74 203 65 157 q 94 312 83 250 q 118 463 104 374 q 137 613 129 538 q 147 774 144 689 q 158 812 147 799 q 181 828 168 825 q 275 836 225 836 q 296 836 285 836 q 314 817 314 836 q 310 789 314 803 q 303 747 306 775 q 297 701 301 736 q 288 622 293 665 q 280 543 283 579 q 276 494 276 507 m 608 538 q 588 483 608 500 q 533 467 568 467 l 521 467 q 512 464 518 465 q 496 467 506 463 l 461 478 q 462 456 461 467 q 463 438 463 446 l 463 418 l 460 393 l 425 381 l 383 375 l 379 381 l 379 526 q 424 597 386 572 q 515 622 463 622 q 580 601 551 622 q 608 543 608 581 l 608 538 m 504 497 q 522 501 514 496 q 533 514 531 506 l 533 531 q 526 553 533 546 q 506 563 519 560 l 499 563 q 474 556 485 563 q 464 538 464 549 l 464 506 l 483 500 q 494 498 489 499 q 504 497 499 497 z "},"ú":{"ha":743,"x_min":39,"x_max":725,"o":"m 353 683 l 317 703 l 406 924 q 464 935 415 929 q 513 939 496 939 q 525 938 521 939 l 529 924 l 353 683 m 725 71 l 725 33 q 615 11 682 28 q 513 -17 540 -8 l 503 -8 l 503 88 q 406 19 440 39 q 296 -17 344 -17 q 171 35 218 -17 q 122 189 122 85 l 122 464 q 114 529 122 514 q 76 551 104 544 l 39 560 l 39 593 q 144 603 65 594 q 249 618 179 607 q 244 415 244 572 l 244 225 q 363 74 244 74 q 503 136 439 74 l 503 463 q 493 531 503 515 q 447 551 482 544 l 399 560 l 399 593 q 526 604 460 596 q 625 618 560 607 l 625 157 q 638 90 625 106 q 689 72 649 75 l 725 71 z "},"û":{"ha":743,"x_min":39,"x_max":725,"o":"m 525 706 l 490 681 q 365 814 436 729 q 240 681 289 724 l 206 706 q 347 935 279 808 l 385 935 q 525 706 458 800 m 725 71 l 725 33 q 615 11 682 28 q 513 -17 540 -8 l 503 -8 l 503 88 q 406 19 440 39 q 296 -17 344 -17 q 171 35 218 -17 q 122 189 122 85 l 122 464 q 114 529 122 514 q 76 551 104 544 l 39 560 l 39 593 q 144 603 65 594 q 249 618 179 607 q 244 415 244 572 l 244 225 q 363 74 244 74 q 503 136 439 74 l 503 463 q 493 531 503 515 q 447 551 482 544 l 399 560 l 399 593 q 526 604 460 596 q 625 618 560 607 l 625 157 q 638 90 625 106 q 689 72 649 75 l 725 71 z "},"ü":{"ha":743,"x_min":39,"x_max":725,"o":"m 238 743 q 189 765 210 743 q 168 815 168 786 q 189 867 168 846 q 239 888 210 888 q 290 867 269 888 q 310 815 310 846 q 289 765 310 786 q 238 743 268 743 m 482 743 q 432 764 453 743 q 411 814 411 785 q 432 867 411 844 q 483 888 453 888 q 533 867 513 888 q 553 814 553 844 q 533 764 553 785 q 482 743 513 743 m 725 71 l 725 33 q 615 11 682 28 q 513 -17 540 -8 l 503 -8 l 503 88 q 406 19 440 39 q 296 -17 344 -17 q 171 35 218 -17 q 122 189 122 85 l 122 464 q 114 531 122 515 q 76 551 104 544 l 39 560 l 39 594 q 144 603 88 597 q 249 618 179 607 q 244 415 244 572 l 244 225 q 363 74 244 74 q 503 136 439 74 l 503 464 q 493 531 503 515 q 447 551 482 546 l 399 560 l 399 594 q 526 604 447 596 q 625 618 560 607 l 625 157 q 638 90 625 106 q 689 72 649 75 l 725 71 z "},"ù":{"ha":743,"x_min":39,"x_max":725,"o":"m 411 700 l 374 681 l 207 903 l 211 915 q 267 931 222 922 q 315 936 299 936 q 325 935 321 936 q 411 700 329 926 m 725 71 l 725 33 q 615 11 682 28 q 513 -17 540 -8 l 503 -8 l 503 88 q 406 19 440 39 q 296 -17 344 -17 q 171 35 218 -17 q 122 189 122 85 l 122 464 q 114 529 122 514 q 76 551 104 544 l 39 560 l 39 593 q 144 603 65 594 q 249 618 179 607 q 244 415 244 572 l 244 225 q 363 74 244 74 q 503 136 439 74 l 503 463 q 493 531 503 515 q 447 551 482 544 l 399 560 l 399 593 q 526 604 460 596 q 625 618 560 607 l 625 157 q 638 90 625 106 q 689 72 649 75 l 725 71 z "},"_":{"ha":646,"x_min":38,"x_max":608,"o":"m 608 0 l 38 0 l 38 97 l 608 97 l 608 0 z "},"\r":{"ha":625,"x_min":0,"x_max":0,"o":""},"":{"ha":593,"x_min":0,"x_max":593,"o":"m 0 0 l 0 1069 l 593 1069 l 593 0 l 0 0 m 553 1039 l 40 1039 l 296 553 l 553 1039 m 563 1018 l 307 532 l 563 47 l 563 1018 m 286 532 l 31 1018 l 31 47 l 286 532 m 40 26 l 553 26 l 296 513 l 40 26 z "},"²":{"ha":475,"x_min":54,"x_max":429,"o":"m 397 692 l 429 682 q 394 556 414 636 l 54 556 l 54 588 q 128 647 103 625 q 199 714 153 669 q 267 800 244 758 q 289 881 289 842 q 264 956 289 929 q 199 981 239 981 q 82 906 135 981 l 56 931 l 101 993 q 238 1056 153 1056 q 349 1015 303 1056 q 393 906 393 975 q 361 813 393 857 q 246 697 328 768 l 175 635 l 175 632 l 303 632 q 360 643 342 632 q 397 692 376 653 z "},"³":{"ha":475,"x_min":56,"x_max":410,"o":"m 288 851 l 286 849 q 378 808 344 838 q 410 733 410 778 q 363 631 410 675 q 263 567 314 585 q 174 547 210 547 q 78 576 114 547 q 64 617 56 594 q 89 651 69 638 q 119 649 104 660 q 224 601 181 601 q 285 626 261 601 q 308 703 308 651 q 278 772 308 749 q 204 796 247 796 q 147 788 181 796 l 139 822 q 274 929 274 865 q 254 974 274 956 q 203 990 235 990 q 100 924 143 990 l 76 947 l 118 1004 q 239 1056 167 1056 l 240 1056 q 339 1025 301 1056 q 375 949 375 993 q 347 892 375 913 q 288 851 324 871 z "},"¹":{"ha":475,"x_min":103,"x_max":383,"o":"m 383 557 l 104 557 l 104 590 q 178 610 161 594 q 194 674 194 624 l 194 915 q 188 967 194 956 q 143 978 179 976 l 103 981 l 103 1014 q 294 1054 200 1025 l 294 674 q 310 611 294 624 q 383 590 325 597 l 383 557 z "},"̆":{"ha":1,"x_min":-449,"x_max":-144,"o":"m -219 969 q -220 982 -219 976 q -221 993 -221 988 q -211 1023 -221 1014 q -189 1032 -201 1032 q -162 1021 -175 1032 q -146 988 -149 1010 q -144 944 -144 965 q -187 786 -144 849 q -322 724 -231 724 q -419 767 -389 724 q -449 869 -449 811 q -407 1013 -449 949 q -369 1033 -393 1033 q -348 1026 -357 1033 q -339 1006 -339 1019 q -346 981 -339 994 q -360 918 -360 951 q -346 865 -360 888 q -304 842 -332 842 q -256 863 -275 842 q -228 913 -237 883 q -219 969 -219 943 z "},"̇":{"ha":1,"x_min":-285,"x_max":-149,"o":"m -283 893 q -281 906 -285 900 q -271 911 -278 911 l -207 911 q -197 905 -201 911 q -192 893 -193 899 l -151 742 q -154 730 -149 736 q -167 724 -160 724 l -225 724 q -236 730 -231 724 q -243 742 -242 736 l -283 893 z "},"̈":{"ha":1,"x_min":-460,"x_max":-149,"o":"m -283 893 q -281 906 -285 900 q -271 911 -278 911 l -207 911 q -197 905 -201 911 q -192 893 -193 899 l -151 742 q -154 730 -149 736 q -167 724 -160 724 l -225 724 q -236 730 -231 724 q -243 742 -242 736 l -283 893 m -458 893 q -456 906 -460 900 q -446 911 -453 911 l -385 911 q -374 905 -379 911 q -367 893 -368 899 l -326 742 q -329 730 -324 736 q -342 724 -335 724 l -400 724 q -411 730 -406 724 q -418 742 -417 736 l -458 893 z "},"̏":{"ha":1,"x_min":-501,"x_max":-183,"o":"m -325 893 q -323 906 -326 900 q -312 911 -319 911 l -244 911 q -233 905 -239 911 q -226 893 -228 899 l -186 742 q -189 730 -183 736 q -201 724 -194 724 l -267 724 q -278 730 -272 724 q -285 742 -283 736 l -325 893 m -500 893 q -498 906 -501 900 q -487 911 -494 911 l -419 911 q -408 905 -414 911 q -401 893 -403 899 l -361 742 q -364 730 -358 736 q -376 724 -369 724 l -442 724 q -453 730 -447 724 q -460 742 -458 736 l -500 893 z "},"̑":{"ha":1,"x_min":-536,"x_max":-81,"o":"m -81 744 l -164 744 q -181 840 -164 796 q -231 910 -199 883 q -308 936 -262 936 q -413 881 -374 936 q -453 749 -453 826 q -453 744 -453 746 l -536 744 q -536 747 -536 746 q -506 888 -536 826 q -424 985 -475 950 q -308 1019 -372 1019 q -190 983 -240 1019 q -110 883 -139 946 q -81 744 -81 821 z "},"̾":{"ha":1,"x_min":-279,"x_max":-94,"o":"m -125 1026 q -114 1029 -119 1029 q -94 1006 -94 1029 q -104 981 -94 992 q -131 952 -114 969 q -160 924 -147 935 q -159 919 -161 922 q -156 913 -157 915 q -133 888 -144 901 q -108 861 -121 875 q -99 838 -99 851 q -111 814 -99 822 q -176 772 -143 790 q -235 738 -210 753 q -244 735 -239 735 q -266 742 -256 735 q -276 758 -276 750 q -272 768 -276 764 q -247 794 -260 779 q -224 821 -235 808 q -225 835 -217 828 q -247 860 -231 842 q -271 889 -262 879 q -279 913 -279 899 q -267 940 -279 932 q -194 988 -233 964 q -125 1026 -156 1011 z "},"͏":{"ha":1,"x_min":0,"x_max":0,"o":""},"͠":{"ha":1,"x_min":-771,"x_max":-47,"o":"m -593 758 q -610 743 -593 743 l -719 743 q -737 761 -737 743 l -737 878 q -741 878 -739 878 q -746 879 -743 879 q -765 890 -758 881 q -771 911 -771 900 q -763 935 -771 924 q -743 946 -756 946 q -739 946 -742 946 q -617 932 -690 938 q -469 922 -543 926 q -427 922 -460 922 q -355 920 -394 921 q -283 919 -315 919 q -240 919 -250 919 l -240 1043 q -222 1061 -240 1061 l -112 1061 q -96 1046 -96 1061 l -96 918 q -85 919 -90 918 q -75 919 -81 919 q -54 911 -61 919 q -47 892 -47 903 q -54 873 -47 882 q -75 864 -61 864 q -142 864 -110 864 q -237 864 -176 864 q -366 865 -297 864 q -496 867 -435 867 q -593 869 -557 868 l -593 758 z "},"Ѐ":{"ha":750,"x_min":56,"x_max":713,"o":"m 456 1061 q 447 1036 456 1047 q 421 1025 438 1025 q 382 1043 393 1025 l 192 1340 q 194 1356 188 1347 q 210 1364 201 1364 l 289 1364 q 319 1344 310 1364 l 453 1075 q 456 1061 456 1067 m 135 256 q 92 353 110 308 q 65 444 75 397 q 56 551 56 490 q 97 749 56 658 q 215 895 139 840 q 394 950 290 950 q 555 918 492 950 q 649 838 618 886 q 679 738 679 789 l 713 738 l 713 682 l 481 682 l 481 738 l 528 738 q 517 805 528 768 q 478 869 507 842 q 393 896 449 896 q 306 869 342 896 q 250 799 271 843 q 220 702 229 754 q 211 597 211 650 q 217 526 211 558 q 233 463 224 493 q 325 568 268 529 q 458 607 382 607 q 631 538 578 607 q 685 367 685 469 l 525 367 q 525 372 525 369 q 499 484 525 435 q 413 533 472 533 q 351 510 381 533 q 298 451 322 488 q 257 376 274 415 q 281 226 275 300 q 286 94 286 151 l 286 63 q 401 90 350 63 q 483 160 451 118 q 519 243 514 203 l 678 243 q 547 64 661 131 q 208 -3 432 -3 q 208 3 208 0 q 186 135 208 76 q 135 256 164 194 z "},"Ё":{"ha":750,"x_min":56,"x_max":713,"o":"m 393 1199 q 395 1211 392 1206 q 406 1217 399 1217 l 469 1217 q 479 1210 475 1217 q 485 1199 483 1204 l 525 1047 q 522 1035 528 1042 q 510 1029 517 1029 l 451 1029 q 440 1035 446 1029 q 433 1047 435 1042 l 393 1199 m 218 1199 q 220 1211 217 1206 q 231 1217 224 1217 l 292 1217 q 303 1210 297 1217 q 310 1199 308 1204 l 350 1047 q 347 1035 353 1042 q 335 1029 342 1029 l 276 1029 q 265 1035 271 1029 q 258 1047 260 1042 l 218 1199 m 135 256 q 92 353 110 308 q 65 444 75 397 q 56 551 56 490 q 97 749 56 658 q 215 895 139 840 q 394 950 290 950 q 555 918 492 950 q 649 838 618 886 q 679 738 679 789 l 713 738 l 713 682 l 481 682 l 481 738 l 528 738 q 517 805 528 768 q 478 869 507 842 q 393 896 449 896 q 306 869 342 896 q 250 799 271 843 q 220 702 229 754 q 211 597 211 650 q 217 526 211 558 q 233 463 224 493 q 325 568 268 529 q 458 607 382 607 q 631 538 578 607 q 685 367 685 469 l 525 367 q 525 372 525 369 q 499 484 525 435 q 413 533 472 533 q 351 510 381 533 q 298 451 322 488 q 257 376 274 415 q 281 226 275 300 q 286 94 286 151 l 286 63 q 401 90 350 63 q 483 160 451 118 q 519 243 514 203 l 678 243 q 547 64 661 131 q 208 -3 432 -3 q 208 3 208 0 q 186 135 208 76 q 135 256 164 194 z "},"Ђ":{"ha":1042,"x_min":28,"x_max":1014,"o":"m 28 939 l 910 939 q 929 917 929 939 q 915 883 929 894 q 865 830 889 867 q 825 757 842 793 q 815 753 825 753 q 806 757 806 753 q 772 826 794 788 q 717 883 749 865 l 575 883 l 575 522 l 654 522 q 703 519 681 522 q 751 513 725 517 q 922 456 867 496 q 996 351 978 417 q 1014 189 1014 286 q 1001 54 1014 106 q 960 -30 988 3 q 894 -87 933 -62 q 800 -140 854 -111 q 771 -156 790 -146 q 740 -172 751 -165 q 728 -177 740 -172 q 708 -182 717 -182 q 701 -176 701 -182 q 715 -154 701 -171 q 781 -78 756 -110 q 821 -18 807 -47 q 842 50 835 11 q 844 70 842 57 q 846 99 846 83 l 846 165 q 841 290 846 235 q 816 385 836 346 q 751 446 796 425 q 624 467 706 467 q 599 466 613 467 q 575 465 586 465 l 575 56 l 647 56 l 647 0 l 338 0 l 338 56 l 413 56 l 413 883 l 250 883 l 250 578 l 103 578 l 103 883 l 28 883 l 28 939 z "},"Ѓ":{"ha":681,"x_min":31,"x_max":661,"o":"m 253 1026 q 231 1036 238 1026 q 225 1060 225 1046 q 228 1076 225 1069 l 349 1349 q 379 1368 358 1368 l 458 1368 q 474 1360 467 1368 q 476 1344 481 1351 l 289 1047 q 253 1026 276 1026 m 422 883 l 269 883 l 269 56 l 344 56 l 344 0 l 31 0 l 31 56 l 106 56 l 106 883 l 31 883 l 31 939 l 644 939 q 661 919 661 939 q 646 890 661 899 q 633 874 638 886 q 626 854 629 861 q 613 787 618 824 q 606 718 608 750 q 590 706 604 706 q 569 718 575 706 q 525 794 549 763 q 471 861 501 826 q 450 877 463 871 q 422 883 438 883 z "},"Љ":{"ha":1115,"x_min":28,"x_max":1088,"o":"m 397 0 l 397 56 l 474 56 l 474 583 q 447 540 463 561 q 415 492 431 519 q 368 403 388 440 q 326 314 349 367 q 295 232 308 268 q 276 158 282 196 q 269 68 269 119 l 269 56 l 332 56 l 332 0 l 28 0 l 28 56 l 89 56 q 117 222 89 149 q 188 356 146 294 q 241 423 215 394 q 294 478 267 451 q 353 540 322 506 q 427 633 394 588 q 474 735 460 679 l 474 883 l 397 883 l 397 939 l 714 939 l 714 883 l 638 883 l 638 522 q 722 501 685 508 q 806 485 758 494 q 924 469 867 474 q 1061 464 981 464 l 1061 408 l 1026 408 l 1026 56 l 1088 56 l 1088 0 l 397 0 m 863 56 l 863 418 q 830 422 846 419 q 797 429 814 425 q 715 447 751 439 q 638 465 679 454 l 638 56 l 863 56 z "},"Њ":{"ha":1125,"x_min":28,"x_max":1097,"o":"m 644 526 q 731 503 692 513 q 818 485 771 494 q 935 469 879 474 q 1071 464 990 464 l 1071 408 l 1036 408 l 1036 56 l 1097 56 l 1097 0 l 404 0 l 404 56 l 481 56 l 481 383 l 265 486 l 265 56 l 342 56 l 342 0 l 28 0 l 28 56 l 103 56 l 103 883 l 28 883 l 28 939 l 342 939 l 342 883 l 265 883 l 265 550 l 481 444 l 481 883 l 404 883 l 404 939 l 721 939 l 721 883 l 644 883 l 644 526 m 646 476 l 646 56 l 874 56 l 874 418 q 841 428 854 424 q 804 439 828 433 q 767 449 779 446 q 743 454 754 451 q 711 462 732 457 q 646 476 690 467 z "},"Ћ":{"ha":1056,"x_min":28,"x_max":1026,"o":"m 738 56 l 800 56 l 800 274 q 795 335 800 301 q 769 398 790 368 q 703 447 749 428 q 575 465 657 465 l 575 56 l 653 56 l 653 0 l 335 0 l 335 56 l 413 56 l 413 883 l 250 883 l 250 578 l 101 578 l 101 883 l 28 883 l 28 939 l 911 939 q 929 917 929 939 q 924 898 929 907 q 911 883 918 889 q 863 830 885 867 q 825 757 842 793 q 815 753 825 753 q 806 757 806 753 q 772 826 794 788 q 717 883 749 865 l 575 883 l 575 522 q 801 488 715 519 q 925 412 886 457 q 964 318 964 367 l 964 56 l 1026 56 l 1026 0 l 738 0 l 738 56 z "},"Ќ":{"ha":772,"x_min":31,"x_max":740,"o":"m 308 1026 q 287 1036 293 1026 q 281 1060 281 1046 q 283 1076 281 1069 l 404 1349 q 435 1368 414 1368 l 514 1368 q 529 1360 522 1368 q 532 1344 536 1351 l 344 1047 q 308 1026 332 1026 m 639 319 q 671 208 663 260 q 679 94 679 156 l 679 56 l 740 56 l 740 0 l 442 0 l 442 56 l 503 56 l 503 114 q 497 234 503 176 q 458 357 490 292 q 396 437 433 410 q 301 465 358 464 l 256 465 l 256 56 l 317 56 l 317 0 l 31 0 l 31 56 l 92 56 l 92 883 l 31 883 l 31 939 l 317 939 l 317 883 l 256 883 l 256 519 l 300 519 q 382 553 357 519 q 425 638 407 586 q 453 744 444 690 q 461 838 461 797 l 461 883 l 400 883 l 400 939 l 686 939 l 686 883 l 625 883 l 625 850 q 610 735 625 790 q 558 622 596 679 q 500 552 532 583 q 431 500 468 521 q 552 438 496 482 q 639 319 608 394 z "}}}
